<svg xmlns="http://www.w3.org/2000/svg" xmlns:xlink="http://www.w3.org/1999/xlink" width="416.21" height="190.936" viewBox="0 0 416.21 190.936">
  <defs>
    <clipPath id="clip-path">
      <rect id="Rectangle_818" data-name="Rectangle 818" width="414.006" height="190.935" fill="none"/>
    </clipPath>
    <clipPath id="clip-path-2">
      <path id="Path_3104" data-name="Path 3104" d="M347.853,256.191c-46.092.111-58.169.535-71.308,9.734-32.1,22.478-11.506,51.863,38.272,46.843,16.593-1.673,31.408-.557,44.535.56,8.221.7,15.785,1.4,22.706,1.412h.419c14.982-.031,26.946-3.362,36.13-17.026,7.677-11.421,5.986-20.167-1.807-26.805-12.079-10.295-39.9-14.719-68.289-14.719h-.657" transform="translate(-261.135 -256.19)" fill="none"/>
    </clipPath>
    <clipPath id="clip-path-4">
      <path id="Rectangle_826" data-name="Rectangle 826" d="M4.666,0h35.55a4.666,4.666,0,0,1,4.666,4.666v18.64a4.666,4.666,0,0,1-4.666,4.666H4.665A4.665,4.665,0,0,1,0,23.307V4.666A4.666,4.666,0,0,1,4.666,0Z" fill="none"/>
    </clipPath>
    <clipPath id="clip-path-5">
      <path id="Path_3138" data-name="Path 3138" d="M414.531,179.672v12.8a7.633,7.633,0,0,0,7.633,7.633h10.22a7.629,7.629,0,0,0,6.471-3.583v-14.44a2.411,2.411,0,0,0-2.411-2.411Z" transform="translate(-414.531 -179.672)" fill="none"/>
    </clipPath>
    <linearGradient id="linear-gradient" x1="-8.806" y1="4.8" x2="-8.785" y2="4.8" gradientUnits="objectBoundingBox">
      <stop offset="0" stop-color="#294792"/>
      <stop offset="0.387" stop-color="#294792"/>
      <stop offset="1" stop-color="#153175"/>
    </linearGradient>
    <clipPath id="clip-path-7">
      <rect id="Rectangle_830" data-name="Rectangle 830" width="50.635" height="3.939" fill="none"/>
    </clipPath>
  </defs>
  <g id="_404-light_theme" data-name="404-light theme" transform="translate(-753 -197.783)">
    <path id="Path_3632" data-name="Path 3632" d="M79.17-28.42H4.06V-56.84L52.78-142.1h40.6L44.66-56.84H79.17V-87.29h36.54v30.45h14.21v28.42H115.71V0H79.17Zm290.29,0H294.35V-56.84l48.72-85.26h40.6L334.95-56.84h34.51V-87.29H406v30.45h14.21v28.42H406V0H369.46Z" transform="translate(749 366)" fill="#d1d5d9"/>
    <g id="Group_3393" data-name="Group 3393" transform="translate(753 197.784)">
      <g id="Group_3404" data-name="Group 3404">
        <g id="Group_3370" data-name="Group 3370">
          <g id="Group_3369" data-name="Group 3369" clip-path="url(#clip-path)">
            <path id="Path_3100" data-name="Path 3100" d="M39.6,301.2l1.742.953a.786.786,0,0,1,0,1.38l-1.742.953a.785.785,0,0,0-.313.313l-.953,1.742a.786.786,0,0,1-1.38,0L36,304.8a.778.778,0,0,0-.313-.313l-1.742-.953a.786.786,0,0,1,0-1.38l1.742-.953a.784.784,0,0,0,.313-.313l.953-1.742a.786.786,0,0,1,1.38,0l.953,1.742a.791.791,0,0,0,.313.313" transform="translate(-16.206 -144.365)" fill="#f0f6ff"/>
            <path id="Path_3101" data-name="Path 3101" d="M418.705,163.119l1.743.953a.787.787,0,0,1,0,1.38l-1.743.953a.785.785,0,0,0-.313.313l-.953,1.742a.786.786,0,0,1-1.38,0l-.953-1.742a.778.778,0,0,0-.313-.313l-1.742-.953a.786.786,0,0,1,0-1.38l1.742-.953a.784.784,0,0,0,.313-.313l.953-1.742a.786.786,0,0,1,1.38,0l.953,1.742a.792.792,0,0,0,.313.313" transform="translate(-199.412 -77.637)" fill="#f0f6ff"/>
            <path id="Path_3102" data-name="Path 3102" d="M418.791,225.36l1.664.91a.751.751,0,0,1,0,1.318l-1.664.91a.751.751,0,0,0-.3.3l-.91,1.663a.751.751,0,0,1-1.318,0l-.91-1.663a.747.747,0,0,0-.3-.3l-1.664-.91a.751.751,0,0,1,0-1.318l1.664-.91a.747.747,0,0,0,.3-.3l.91-1.664a.751.751,0,0,1,1.318,0l.91,1.664a.752.752,0,0,0,.3.3" transform="translate(-199.586 -107.769)" fill="#f0f6ff"/>
            <path id="Path_3103" data-name="Path 3103" d="M419.589,335.648l.927.507a.418.418,0,0,1,0,.734l-.927.507a.421.421,0,0,0-.166.166l-.506.927a.419.419,0,0,1-.734,0l-.506-.927a.421.421,0,0,0-.166-.166l-.927-.507a.418.418,0,0,1,0-.734l.927-.507a.419.419,0,0,0,.166-.166l.506-.927a.419.419,0,0,1,.734,0l.506.927a.419.419,0,0,0,.166.166" transform="translate(-201.211 -161.57)" fill="#f0f6ff"/>
          </g>
        </g>
        <g id="Group_3372" data-name="Group 3372" transform="translate(134.94 132.385)" opacity="0.47">
          <g id="Group_3371" data-name="Group 3371" clip-path="url(#clip-path-2)">
            <path id="Path_3180" data-name="Path 3180" d="M0,0H194.314V61.6H0Z" transform="translate(-16.693)" fill="#d1d7dc"/>
          </g>
        </g>
        <g id="Group_3374" data-name="Group 3374">
          <g id="Group_3373" data-name="Group 3373" clip-path="url(#clip-path)">
            <path id="Path_3105" data-name="Path 3105" d="M513.694,148.245l3.785,2.263,5.674-2.263-1.927,5.11,5.632,4.115-7.442-1.231-1.937,4.238-2.77-3.006-4.563,1.224,3.89-5.873Z" transform="translate(-246.531 -71.64)" fill="#edbdab"/>
            <path id="Path_3106" data-name="Path 3106" d="M354.425,296.857l1.086-1.323-.543-2.309,1.852,1.034,1.9-1.927-.9,2.787,1.516.987-1.313.891.208,1.822-2.032-1.83Z" transform="translate(-171.278 -141.271)" fill="#edbdab"/>
          </g>
        </g>
        <g id="Group_3380" data-name="Group 3380">
          <g id="Group_3405" data-name="Group 3405">
            <path id="Path_3109" data-name="Path 3109" d="M367.453,36a5.139,5.139,0,1,1-5.139-5.139A5.139,5.139,0,0,1,367.453,36" transform="translate(-172.607 -14.912)" fill="#1f3262"/>
            <path id="Path_3110" data-name="Path 3110" d="M471.593,36a5.139,5.139,0,1,1-5.139-5.139A5.139,5.139,0,0,1,471.593,36" transform="translate(-222.933 -14.912)" fill="#1f3262"/>
            <path id="Path_3111" data-name="Path 3111" d="M331.48,91.875h4.93V78.844h-4.93a4.588,4.588,0,0,0-4.588,4.589v3.854a4.588,4.588,0,0,0,4.588,4.588" transform="translate(-157.973 -38.102)" fill="#ea5050"/>
            <path id="Path_3112" data-name="Path 3112" d="M495.7,91.875h-4.93V78.844h4.93a4.588,4.588,0,0,1,4.588,4.589v3.854a4.588,4.588,0,0,1-4.588,4.588" transform="translate(-237.165 -38.102)" fill="#ea5050"/>
            <path id="Path_3113" data-name="Path 3113" d="M319.9,207.968c-.284-.076-6.991-1.94-10.276-7.765-1.956-3.467-2.293-7.5-1-12,4.143-14.4,20.3-16.556,20.989-16.641l.689,5.518c-.538.07-13.215,1.823-16.333,12.66-.865,3.006-.7,5.606.5,7.726,2.119,3.756,6.833,5.116,6.88,5.129Z" transform="translate(-148.773 -82.91)" fill="#bfcbeb"/>
            <path id="Path_3114" data-name="Path 3114" d="M349.33,177.17l-1-5.47c.539-.1.843-.135.843-.135l.691,5.518c-.035,0-.223.03-.533.087" transform="translate(-168.333 -82.909)" fill="#8b9ac3"/>
            <path id="Path_3115" data-name="Path 3115" d="M314.672,206.654c-.438-.3-.86-.621-1.254-.947l3.544-4.286c.271.225.564.445.87.657Zm-4.763-5.059a13.638,13.638,0,0,1-.74-1.5l5.13-2.148a8.059,8.059,0,0,0,.436.884Zm-1.433-6.864v-.094c0-.5-.164-1.009-.116-1.522l5.443.516c-.032.342.092.68.093,1Zm6.075-4.717-5.226-1.9c.174-.479.368-.956.576-1.42l5.074,2.277c-.153.341-.3.692-.423,1.044m2.363-4.236-4.361-3.451c.314-.4.647-.789.991-1.164l4.1,3.754c-.254.278-.5.568-.734.861m3.615-3.38-3.2-4.546c.4-.283.819-.56,1.243-.823l2.936,4.723c-.333.207-.661.425-.976.646m4.51-2.435-2.1-5.15c.447-.182.905-.357,1.363-.519l1.86,5.241q-.545.193-1.125.428" transform="translate(-149.012 -84.228)" fill="#8b9ac3"/>
            <path id="Path_3116" data-name="Path 3116" d="M330.358,236.852c-.059-.016-.377-.1-.871-.28l1.867-5.238c.256.091.421.14.46.151Z" transform="translate(-159.227 -111.794)" fill="#8b9ac3"/>
            <path id="Path_3117" data-name="Path 3117" d="M498.509,162.694l-.377-.847c.025-.011,2.525-1.123,3.554-1.767a3.941,3.941,0,0,0,.68-1.577c.328-1.089.666-2.216,1.5-2.591a1.56,1.56,0,0,1,1.336.07,8.3,8.3,0,0,1,1.569.974c.858.64,1.374,1.027,3.5.622l.173.91c-2.4.457-3.172,0-4.227-.789a7.413,7.413,0,0,0-1.405-.876c-.35-.163-.514-.089-.566-.065-.45.2-.751,1.206-.994,2.013a3.667,3.667,0,0,1-1.075,2.1c-1.085.678-3.564,1.782-3.669,1.828" transform="translate(-240.725 -75.288)" fill="#bfcbeb"/>
            <path id="Path_3118" data-name="Path 3118" d="M509.415,180.93h-4.493l-5.32-3.191.478-.853,5.1,3.01h4.236Z" transform="translate(-241.435 -85.481)" fill="#bfcbeb"/>
            <path id="Path_3119" data-name="Path 3119" d="M351.119,169.754a7.647,7.647,0,1,1-7.647-7.647,7.647,7.647,0,0,1,7.647,7.647" transform="translate(-162.289 -78.339)" fill="#1f3262"/>
            <path id="Path_3120" data-name="Path 3120" d="M489.284,169.754a7.647,7.647,0,1,1-7.647-7.647,7.647,7.647,0,0,1,7.647,7.647" transform="translate(-229.059 -78.339)" fill="#1f3262"/>
            <path id="Path_3121" data-name="Path 3121" d="M338.533,92.158h7.088V70.371h-7.088a2.43,2.43,0,0,0-2.43,2.43V89.728a2.43,2.43,0,0,0,2.43,2.43" transform="translate(-162.424 -34.007)" fill="#1f3262"/>
            <path id="Path_3122" data-name="Path 3122" d="M488.643,92.158h-7.088V70.371h7.088a2.43,2.43,0,0,1,2.43,2.43V89.728a2.43,2.43,0,0,1-2.43,2.43" transform="translate(-232.714 -34.007)" fill="#1f3262"/>
            <path id="Path_3123" data-name="Path 3123" d="M360.4,283.769c-.042-.016-4.194-1.571-5.79-2.023-.5-.141-.935.105-1.6.519a3.673,3.673,0,0,1-3.449.646c-2.626-.917-3.224-4.176-3.248-4.314l.913-.16c.005.028.533,2.863,2.641,3.6a2.8,2.8,0,0,0,2.654-.558,2.823,2.823,0,0,1,2.343-.624c1.633.461,5.691,1.982,5.863,2.046Z" transform="translate(-167.355 -134.556)" fill="#bfcbeb"/>
            <path id="Path_3124" data-name="Path 3124" d="M360.3,294.966l-.025-.927a6.47,6.47,0,0,0,5.771-4.24l.88.29c-.016.048-1.616,4.739-6.626,4.877" transform="translate(-174.104 -140.047)" fill="#bfcbeb"/>
            <path id="Path_3125" data-name="Path 3125" d="M377.927,280.08a7.647,7.647,0,1,1-7.647-7.647,7.647,7.647,0,0,1,7.647,7.647" transform="translate(-175.245 -131.655)" fill="#1f3262"/>
            <path id="Path_3126" data-name="Path 3126" d="M473.437,311.8c-.026-.131-2.8-13.23-16.786-24.255l3.444-4.368c15.69,12.37,18.68,26.937,18.8,27.551l-5.459,1.062,2.729-.531Z" transform="translate(-220.679 -136.845)" fill="#bfcbeb"/>
            <path id="Path_3127" data-name="Path 3127" d="M473.752,312.068s-.083-.409-.289-1.121l5.343-1.543c.276.957.391,1.529.4,1.591l-5.458,1.064,2.729-.532ZM472,306.921q-.247-.572-.536-1.19l5.036-2.362q.327.7.606,1.348Zm-2.581-5.046q-.327-.552-.686-1.12l4.7-2.97q.4.634.766,1.252Zm-3.19-4.717q-.395-.516-.815-1.037l4.328-3.493q.467.578.9,1.15Zm-3.721-4.333q-.452-.47-.926-.94l3.914-3.951q.525.519,1.024,1.04Zm-4.183-3.91q-.5-.42-1.021-.837l3.472-4.344q.576.46,1.129.925Z" transform="translate(-220.993 -137.116)" fill="#8b9ac3"/>
            <path id="Path_3128" data-name="Path 3128" d="M457.32,280.08a7.647,7.647,0,1,1-7.647-7.647,7.647,7.647,0,0,1,7.647,7.647" transform="translate(-213.612 -131.655)" fill="#1f3262"/>
            <path id="Path_3129" data-name="Path 3129" d="M395.7,250.031H413a6.131,6.131,0,0,0,6.131-6.131v-2.345H389.571V243.9a6.131,6.131,0,0,0,6.131,6.131" transform="translate(-188.263 -116.733)" fill="#1f3262"/>
            <rect id="Rectangle_823" data-name="Rectangle 823" width="12.518" height="7.511" transform="translate(210.303 133.298)" fill="#2f4b92"/>
            <path id="Path_3130" data-name="Path 3130" d="M411.545,286.331H385.336a5.391,5.391,0,0,1-5.227-4.071L377.5,271.936a5.391,5.391,0,0,1,5.227-6.71h31.422a5.39,5.39,0,0,1,5.226,6.71l-2.606,10.324a5.39,5.39,0,0,1-5.226,4.071" transform="translate(-182.35 -128.172)" fill="#1e70b9"/>
            <rect id="Rectangle_824" data-name="Rectangle 824" width="12.518" height="7.511" transform="translate(210.303 70.995)" fill="#2f4b92"/>
            <path id="Path_3131" data-name="Path 3131" d="M395.7,151.926H413a6.131,6.131,0,0,1,6.131,6.131V160.4H389.571v-2.345a6.131,6.131,0,0,1,6.131-6.131" transform="translate(-188.263 -73.419)" fill="#1f3262"/>
            <path id="Path_3132" data-name="Path 3132" d="M410.344,204.779H362.509a10.033,10.033,0,0,1-10.033-10.033V167.006a10.033,10.033,0,0,1,10.033-10.033h47.834a10.033,10.033,0,0,1,10.033,10.033v27.739a10.033,10.033,0,0,1-10.033,10.033" transform="translate(-170.336 -75.858)" fill="#1e70b9"/>
            <path id="Path_3133" data-name="Path 3133" d="M412.2,134.9H384.37a7.354,7.354,0,0,1-7.354-7.354v-1.122h42.539v1.122A7.354,7.354,0,0,1,412.2,134.9" transform="translate(-182.195 -61.093)" fill="#1f3262"/>
            <path id="Path_3134" data-name="Path 3134" d="M410.344,89.113H362.509a10.033,10.033,0,0,1-10.033-10.033V51.34a10.033,10.033,0,0,1,10.033-10.033h47.834A10.033,10.033,0,0,1,420.377,51.34V79.079a10.033,10.033,0,0,1-10.033,10.033" transform="translate(-170.336 -19.962)" fill="#1e70b9"/>
            <path id="Path_3135" data-name="Path 3135" d="M417.22,207.644H377.16a2.411,2.411,0,0,1-2.411-2.411v-23.15a2.411,2.411,0,0,1,2.411-2.411h40.06a2.411,2.411,0,0,1,2.411,2.411v23.15a2.411,2.411,0,0,1-2.411,2.411" transform="translate(-181.1 -86.828)" fill="#1f3262"/>
          </g>
        </g>
        <g id="Group_3382" data-name="Group 3382" transform="translate(193.649 92.844)">
          <g id="Group_3381" data-name="Group 3381" clip-path="url(#clip-path-4)">
            <path id="Path_3136" data-name="Path 3136" d="M433.071,230.121l-1.391-.029.091-4.329a2.962,2.962,0,0,1,2.945-2.885H448.5v1.391h-13.78a1.564,1.564,0,0,0-1.555,1.524Z" transform="translate(-402.261 -200.552)" fill="#1e3b82"/>
            <path id="Path_3137" data-name="Path 3137" d="M437.746,234.8l-1.391-.029.116-5.5a1.76,1.76,0,0,1,1.75-1.715h14.95v1.391h-14.95a.362.362,0,0,0-.36.352Z" transform="translate(-404.52 -202.811)" fill="#1e3b82"/>
          </g>
        </g>
        <g id="Group_3384" data-name="Group 3384" transform="translate(214.206 92.844)">
          <g id="Group_3383" data-name="Group 3383" clip-path="url(#clip-path-5)">
            <rect id="Rectangle_827" data-name="Rectangle 827" width="24.325" height="20.434" transform="translate(0 0)" fill="url(#linear-gradient)"/>
          </g>
        </g>
        <g id="Group_3389" data-name="Group 3389" transform="translate(193.649 92.844)">
          <g id="Group_3388" data-name="Group 3388" clip-path="url(#clip-path-4)">
            <path id="Path_3139" data-name="Path 3139" d="M436.147,193.73a6.633,6.633,0,0,0-.172-1.482l1.454-1.291-1.562-2.706-1.848.614a6.4,6.4,0,0,0-2.565-1.372l-.39-1.782H427.94l-.39,1.782a6.508,6.508,0,0,0-2.565,1.43l-1.848-.643-1.562,2.691,1.454,1.284a6.462,6.462,0,0,0,0,2.958l-1.454,1.29,1.562,2.705,1.848-.614a6.926,6.926,0,0,0,2.565,1.621l.39,2.032h3.124l.39-2.032a6.773,6.773,0,0,0,2.565-1.555l1.848.581,1.562-2.722-1.454-1.3a6.705,6.705,0,0,0,.172-1.49m-6.645,3.776a3.777,3.777,0,1,1,3.776-3.776,3.777,3.777,0,0,1-3.776,3.776" transform="translate(-397.378 -182.59)" fill="#ea5050"/>
            <path id="Path_3140" data-name="Path 3140" d="M422.023,219.832a4.547,4.547,0,0,0,.475-.9l1.316-.165.166-2.125-1.277-.368a4.43,4.43,0,0,0-.893-1.79l.488-1.182-1.757-1.206-.927.88a4.481,4.481,0,0,0-2-.172l-.8-1.068-1.92.914.321,1.285a4.409,4.409,0,0,0-1.143,1.665l-1.316.165-.166,2.125,1.277.368a4.545,4.545,0,0,0,.862,1.835l-.519,1.227,1.757,1.207.958-.925a4.54,4.54,0,0,0,2.02.149l.8,1.057,1.924-.92-.319-1.288a4.541,4.541,0,0,0,.669-.767m-5.2-.441a2.577,2.577,0,1,1,3.583-.667,2.577,2.577,0,0,1-3.583.667" transform="translate(-393.035 -195.167)" fill="#3e64c3"/>
            <path id="Path_3141" data-name="Path 3141" d="M401.573,186.639h-8.991a3.011,3.011,0,0,1-3.011-3.011v-7.757h15.013v7.757a3.011,3.011,0,0,1-3.011,3.011" transform="translate(-381.912 -177.835)" fill="#3e64c3"/>
            <path id="Path_3142" data-name="Path 3142" d="M396.194,190.342a.964.964,0,1,1-.964-.964.964.964,0,0,1,.964.964" transform="translate(-384.181 -184.362)" fill="#ea5050"/>
            <path id="Path_3143" data-name="Path 3143" d="M389.738,203.019h-.927v-1.6a2.331,2.331,0,0,1,2.328-2.328,1.4,1.4,0,0,0,1.4-1.4v-1.066h.927v1.066a2.331,2.331,0,0,1-2.328,2.328,1.4,1.4,0,0,0-1.4,1.4Z" transform="translate(-381.545 -187.865)" fill="#bfcbeb"/>
            <rect id="Rectangle_828" data-name="Rectangle 828" width="1.033" height="6.718" transform="translate(12.321 8.805)" fill="#bfcbeb"/>
            <path id="Path_3144" data-name="Path 3144" d="M403.412,190.342a.964.964,0,1,1-.964-.964.964.964,0,0,1,.964.964" transform="translate(-387.669 -184.362)" fill="#bfcbeb"/>
            <path id="Path_3145" data-name="Path 3145" d="M393.293,225.371h-9.307a2.921,2.921,0,0,1-2.922-2.922V211.46a2.921,2.921,0,0,1,2.922-2.922h9.307a2.921,2.921,0,0,1,2.922,2.922v10.99a2.921,2.921,0,0,1-2.922,2.922" transform="translate(-377.801 -193.622)" fill="#ea5050"/>
            <path id="Path_3146" data-name="Path 3146" d="M387.57,217.213h-6.5v-2.141h6.5a1.07,1.07,0,0,1,0,2.141" transform="translate(-377.801 -196.779)" fill="#cf2e2e"/>
            <path id="Path_3147" data-name="Path 3147" d="M387.57,226.735h-6.5v-2.141h6.5a1.07,1.07,0,0,1,0,2.141" transform="translate(-377.801 -201.381)" fill="#cf2e2e"/>
            <path id="Path_3148" data-name="Path 3148" d="M434.69,201.383A2.379,2.379,0,1,1,437.069,199a2.379,2.379,0,0,1-2.379,2.379" transform="translate(-402.566 -187.864)" fill="#1f3262"/>
            <g id="Group_3387" data-name="Group 3387" transform="translate(-1.008 -1.964)" opacity="0.2">
              <g id="Group_3386" data-name="Group 3386">
                <g id="Group_3385" data-name="Group 3385" clip-path="url(#clip-path-7)">
                  <rect id="Rectangle_829" data-name="Rectangle 829" width="50.635" height="3.939" transform="translate(0 0)"/>
                </g>
              </g>
            </g>
          </g>
        </g>
        <g id="Group_3391" data-name="Group 3391">
          <g id="Group_3406" data-name="Group 3406">
            <path id="Path_3149" data-name="Path 3149" d="M389.287,82.112a7.647,7.647,0,1,1-7.647-7.647,7.647,7.647,0,0,1,7.647,7.647" transform="translate(-180.734 -35.986)" fill="#1f3262"/>
            <path id="Path_3150" data-name="Path 3150" d="M389.116,84.56a5.029,5.029,0,1,1-5.029-5.029,5.029,5.029,0,0,1,5.029,5.029" transform="translate(-183.182 -38.434)" fill="#ea5050"/>
            <rect id="Rectangle_832" data-name="Rectangle 832" width="16.647" height="5.5" transform="translate(208.01 58.151)" fill="#1f3262"/>
            <path id="Path_3151" data-name="Path 3151" d="M444.464,89.438l-8.031-8.031a1.965,1.965,0,1,1,2.779-2.778l8.03,8.031a1.964,1.964,0,0,1-2.778,2.778" transform="translate(-210.631 -37.72)" fill="#bfcbeb"/>
            <path id="Path_3152" data-name="Path 3152" d="M439.212,89.438l8.031-8.031a1.965,1.965,0,1,0-2.779-2.778l-8.03,8.031a1.964,1.964,0,1,0,2.778,2.778" transform="translate(-210.631 -37.72)" fill="#bfcbeb"/>
            <path id="Path_3153" data-name="Path 3153" d="M356.092,19.592l-1.341-.364c.038-.142.9-3.481-1.521-4.161a10.407,10.407,0,0,0-3.226-.22c-1.714.066-3.655.143-4.271-2.013-.51-1.784,1.234-2.8,2.636-3.608,1.77-1.027,2.339-1.532,2-2.324a3,3,0,0,0-2.411-1.808A2.862,2.862,0,0,1,345.694,3.5l1.293-.51c.161.408.494.532,1.336.761a4.333,4.333,0,0,1,3.326,2.6c.878,2.063-1.123,3.224-2.584,4.071-1.375.8-2.195,1.331-2,2.024.29,1.015.981,1.08,2.879,1.005a11.5,11.5,0,0,1,3.655.271c3,.841,2.941,4.2,2.488,5.863" transform="translate(-167.033 -1.446)" fill="#1e3b82"/>
            <path id="Path_3154" data-name="Path 3154" d="M460.559,193.124h0a1.541,1.541,0,0,1-1.541-1.541V187.6a1.541,1.541,0,1,1,3.083,0v3.978a1.541,1.541,0,0,1-1.541,1.541" transform="translate(-221.823 -89.916)" fill="#2f4b92"/>
            <path id="Path_3155" data-name="Path 3155" d="M460.559,222.133h0a1.541,1.541,0,0,1-1.541-1.541v-3.978a1.541,1.541,0,0,1,3.083,0v3.978a1.542,1.542,0,0,1-1.541,1.541" transform="translate(-221.823 -103.935)" fill="#2f4b92"/>
            <rect id="Rectangle_833" data-name="Rectangle 833" width="26.636" height="5.536" transform="translate(165.508 138.078) rotate(-66.381)" fill="#ea5050"/>
            <path id="Path_3156" data-name="Path 3156" d="M343.661,195.613a1.112,1.112,0,0,0-1.384.5c-.66.876-4.534,4.283-2.178,7.642s8.44,3.8,10.856,1.421c2.143-2.112,1.688-4.36.453-7.121-.617-1.379-.947-1.411-1.605-1.481l-.411,3.277a2.831,2.831,0,0,1-3.126,2.46l-.533-.06a2.83,2.83,0,0,1-2.493-3.153Z" transform="translate(-163.992 -94.493)" fill="#ea5050"/>
            <path id="Path_3157" data-name="Path 3157" d="M340.233,210.519a6.21,6.21,0,0,1,.161,5.359l5.072,2.218a10.255,10.255,0,0,1,5.135-5.072Z" transform="translate(-164.42 -101.735)" fill="#ea5050"/>
            <path id="Path_3158" data-name="Path 3158" d="M320.12,267.24a4.491,4.491,0,1,0,2.316,5.914,4.491,4.491,0,0,0-2.316-5.914m-2.713,6.205a2.281,2.281,0,1,1,3-1.176,2.281,2.281,0,0,1-3,1.176" transform="translate(-151.66 -128.963)" fill="#ea5050"/>
            <path id="Path_3159" data-name="Path 3159" d="M320.382,324.753l-3.085-4.627c.52-.348,12.963-8.492,32.8-6.078l-.672,5.52c-17.679-2.152-28.927,5.111-29.038,5.185" transform="translate(-153.336 -151.55)" fill="#bfcbeb"/>
            <path id="Path_3160" data-name="Path 3160" d="M320.382,324.756l-3.085-4.626c.052-.036.539-.358,1.414-.836l2.666,4.881c-.647.354-.991.58-.995.582m4.886-2.38-2.035-5.176q.654-.257,1.379-.518l1.881,5.234q-.643.231-1.225.46m5.4-1.725-1.356-5.394q.7-.174,1.429-.338l1.205,5.429q-.656.145-1.278.3m5.6-1.061-.717-5.515q.716-.093,1.456-.169l.567,5.532q-.664.068-1.306.152M349,319.522q-.666-.076-1.319-.135l.5-5.538q.717.064,1.447.147Zm-7.038-.346-.1-5.56q.488-.009.984-.009l.48,0-.05,5.562-.429,0q-.447,0-.887.008" transform="translate(-153.336 -151.552)" fill="#8b9ac3"/>
            <path id="Path_3161" data-name="Path 3161" d="M320.172,327.278a5.311,5.311,0,1,1-5.311-5.311,5.311,5.311,0,0,1,5.311,5.311" transform="translate(-149.592 -155.592)" fill="#1f3262"/>
            <path id="Path_3162" data-name="Path 3162" d="M484.933,330.2a5.311,5.311,0,1,0,7.511.025,5.311,5.311,0,0,0-7.511-.025" transform="translate(-233.589 -158.825)" fill="#1f3262"/>
            <path id="Path_3163" data-name="Path 3163" d="M412.485,322.711h-5.357L404.45,327.1l2.678,4.392h5.357l2.678-4.392Zm-2.711,5.744a1.868,1.868,0,1,1,1.867-1.867,1.867,1.867,0,0,1-1.867,1.867" transform="translate(-195.453 -155.952)" fill="#bfcbeb"/>
            <path id="Path_3164" data-name="Path 3164" d="M501.73,294.626h-6.413a.905.905,0,0,1-.9-.9v-2.39a.905.905,0,0,1,.9-.9h6.413a.906.906,0,0,1,.9.9v2.39a.906.906,0,0,1-.9.9" transform="translate(-238.929 -140.352)" fill="#2f4b92"/>
            <path id="Path_3165" data-name="Path 3165" d="M481.537,332.3l4.884,10.371,35.346-16.644-1.2-2.553a8.641,8.641,0,0,0-11.5-4.137Z" transform="translate(-232.706 -153.922)" fill="#1e70b9"/>
            <path id="Path_3166" data-name="Path 3166" d="M301.568,313.062l-10.8,3.844-13.1-36.807,2.659-.946a8.641,8.641,0,0,1,11.038,5.243Z" transform="translate(-134.185 -134.659)" fill="#1e70b9"/>
            <path id="Path_3167" data-name="Path 3167" d="M338.676,232.949a7.378,7.378,0,1,1-7.378-7.378,7.378,7.378,0,0,1,7.378,7.378" transform="translate(-156.536 -109.009)" fill="#3e64c3"/>
            <path id="Path_3168" data-name="Path 3168" d="M346.622,1.9a1.9,1.9,0,1,1-1.9-1.9,1.9,1.9,0,0,1,1.9,1.9" transform="translate(-165.668 0)" fill="#d15b2d"/>
            <path id="Path_3169" data-name="Path 3169" d="M530.682,308.263a2.113,2.113,0,1,1-2.113-2.113,2.113,2.113,0,0,1,2.113,2.113" transform="translate(-254.413 -147.949)" fill="#3e64c3"/>
          </g>
        </g>
      </g>
    </g>
  </g>
</svg>
