<svg xmlns="http://www.w3.org/2000/svg" width="33" height="33" viewBox="0 0 33 33">
  <g id="adfree_icon-yellow" data-name="adfree icon-yellow" transform="translate(-25.687 -290.687)">
    <path id="Path_13496" data-name="Path 13496" d="M9.492,3.75h2.229L6.86-7H4.631L-.23,3.75H1.984l.929-2.027H8.579ZM7.758-.166H3.733L5.746-4.742ZM17.573-7H13.316V3.75h4.257a5.11,5.11,0,0,0,5.418-5.467A5.1,5.1,0,0,0,17.573-7ZM15.344-5.08h2.229a3.209,3.209,0,0,1,3.39,3.348A3.2,3.2,0,0,1,17.573,1.8H15.344Z" transform="translate(30.339 308.905)" fill="#fff"/>
    <g id="Group_23079" data-name="Group 23079" transform="translate(26 291)">
      <g id="Ellipse_728" data-name="Ellipse 728" transform="translate(-0.313 -0.313)" fill="none" stroke="#ffc033" stroke-width="2">
        <circle cx="16.5" cy="16.5" r="16.5" stroke="none"/>
        <circle cx="16.5" cy="16.5" r="15.5" fill="none"/>
      </g>
      <line id="Line_516" data-name="Line 516" x1="21" y2="21" transform="translate(5.687 5.687)" fill="none" stroke="#ffc033" stroke-width="2"/>
    </g>
  </g>
</svg>
