<svg xmlns="http://www.w3.org/2000/svg" width="41" height="41" viewBox="0 0 41 41">
  <g id="Alexa_Rank_Checker" data-name="Alexa Rank Checker" transform="translate(-202.392 -290.392)">
    <g id="Group_2589" data-name="Group 2589" transform="translate(202.892 290.892)">
      <g id="Group_2588" data-name="Group 2588" transform="translate(0)">
        <rect id="Rectangle_583" data-name="Rectangle 583" width="40" height="40" rx="2.5" fill="#fff" stroke="#1e70b9" stroke-miterlimit="10" stroke-width="1"/>
        <g id="Group_2587" data-name="Group 2587" transform="translate(8.539 7.497)">
          <path id="Path_1689" data-name="Path 1689" d="M213.563,319.877h-3.126a.52.52,0,0,1-.521-.521V313.1a.521.521,0,0,1,.521-.522h3.126a.521.521,0,0,1,.521.522v6.252A.52.52,0,0,1,213.563,319.877Zm-2.605-1.042h2.085v-5.209h-2.085Z" transform="translate(-209.917 -294.87)" fill="#1e70b9"/>
          <path id="Path_1690" data-name="Path 1690" d="M219.063,320.5h-3.126a.52.52,0,0,1-.521-.521V308.521a.52.52,0,0,1,.521-.521h3.126a.52.52,0,0,1,.521.521v11.462A.52.52,0,0,1,219.063,320.5Zm-2.605-1.042h2.085V309.042h-2.085Z" transform="translate(-209.165 -295.497)" fill="#1e70b9"/>
          <path id="Path_1691" data-name="Path 1691" d="M224.563,320.253h-3.126a.52.52,0,0,1-.521-.521v-9.378a.521.521,0,0,1,.521-.522h3.126a.521.521,0,0,1,.521.522v9.378A.52.52,0,0,1,224.563,320.253Zm-2.605-1.042h2.085v-8.335h-2.085Z" transform="translate(-208.414 -295.246)" fill="#1e70b9"/>
          <path id="Path_1692" data-name="Path 1692" d="M230.063,321h-3.126a.52.52,0,0,1-.521-.521V304.855a.521.521,0,0,1,.521-.522h3.126a.521.521,0,0,1,.521.522v15.629A.52.52,0,0,1,230.063,321Zm-2.605-1.042h2.085V305.375h-2.085Z" transform="translate(-207.662 -295.998)" fill="#1e70b9"/>
          <path id="Path_1693" data-name="Path 1693" d="M230.756,297a2.084,2.084,0,0,0-1.795,3.142l-3.4,3.4a2.083,2.083,0,0,0-2.681.489l-2.545-.725v-.052a2.084,2.084,0,1,0-3.985.851l-3.249,2.59a2.061,2.061,0,0,0-1.1-.316,2.084,2.084,0,1,0,2.083,2.084,2.062,2.062,0,0,0-.261-1.009L217,304.917a2.082,2.082,0,0,0,3.049-.612l2.4.684a2.044,2.044,0,0,0-.028.346,2.084,2.084,0,1,0,4.167,0,2.064,2.064,0,0,0-.289-1.057h0l3.4-3.4A2.084,2.084,0,1,0,230.756,297ZM212,309.5a1.042,1.042,0,1,1,.724-1.79l.026.026A1.041,1.041,0,0,1,212,309.5Zm6.252-5.209a1.041,1.041,0,0,1-.8-.375l-.031-.038,0,0a1.042,1.042,0,1,1,.833.417Zm6.252,2.084a1.042,1.042,0,1,1,1.042-1.042A1.044,1.044,0,0,1,224.5,306.378Zm6.252-6.252a1.039,1.039,0,0,1-.717-.286l0,0v0a.243.243,0,0,1-.03-.03l0,0a1.041,1.041,0,1,1,.755.325Z" transform="translate(-209.917 -297)" fill="#1e70b9"/>
        </g>
      </g>
    </g>
    <path id="Path_1694" data-name="Path 1694" d="M228.178,298.831l-.03-.031.016.016Z" transform="translate(4.243 1.366)"/>
    <path id="Path_1695" data-name="Path 1695" d="M217.11,302.426l-.03-.038.016.018Z" transform="translate(2.408 1.961)"/>
  </g>
</svg>
