<svg xmlns="http://www.w3.org/2000/svg" width="31" height="41" viewBox="0 0 31 41">
  <g id="Anchor_Text_Distribution" data-name="Anchor Text Distribution" transform="translate(-206.375 -204.667)">
    <g id="Group_2272" data-name="Group 2272" transform="translate(206.875 205.167)">
      <g id="Group_2270" data-name="Group 2270">
        <g id="Group_2269" data-name="Group 2269">
          <path id="Path_1545" data-name="Path 1545" d="M234.018,245.167H209.732a2.857,2.857,0,0,1-2.857-2.857V208.024a2.857,2.857,0,0,1,2.857-2.857h16.793a2.852,2.852,0,0,1,2.019.837l7.494,7.493a2.857,2.857,0,0,1,.837,2.021V242.31A2.857,2.857,0,0,1,234.018,245.167Z" transform="translate(-206.875 -205.167)" fill="#fff" stroke="#1e70b9" stroke-miterlimit="10" stroke-width="1"/>
          <path id="Path_1546" data-name="Path 1546" d="M223.49,208.552v7.143h7.143" transform="translate(-204.501 -204.683)" fill="none" stroke="#1e70b9" stroke-linecap="round" stroke-linejoin="round" stroke-width="1"/>
          <g id="Group_2268" data-name="Group 2268" transform="translate(5.56 31.143)">
            <line id="Line_173" data-name="Line 173" x2="18.88" transform="translate(0 4.286)" fill="none" stroke="#1e70b9" stroke-linecap="round" stroke-miterlimit="10" stroke-width="1"/>
            <line id="Line_174" data-name="Line 174" x2="11.737" transform="translate(7.143)" fill="none" stroke="#1e70b9" stroke-linecap="round" stroke-miterlimit="10" stroke-width="1"/>
            <line id="Line_175" data-name="Line 175" x2="3.165" fill="none" stroke="#1e70b9" stroke-linecap="round" stroke-miterlimit="10" stroke-width="1"/>
          </g>
        </g>
      </g>
      <g id="Group_2271" data-name="Group 2271" transform="translate(10.374 15.039)">
        <circle id="Ellipse_104" data-name="Ellipse 104" cx="1.78" cy="1.78" r="1.78" transform="translate(2.846)" fill="#fff" stroke="#1e70b9" stroke-linecap="round" stroke-miterlimit="10" stroke-width="1"/>
        <line id="Line_176" data-name="Line 176" y2="7.868" transform="translate(4.626 3.561)" fill="#fff" stroke="#1e70b9" stroke-linecap="round" stroke-miterlimit="10" stroke-width="1"/>
        <line id="Line_177" data-name="Line 177" x1="4.451" transform="translate(2.401 5.786)" fill="#fff" stroke="#1e70b9" stroke-linecap="round" stroke-miterlimit="10" stroke-width="1"/>
        <path id="Path_1547" data-name="Path 1547" d="M225.2,224.278a4.626,4.626,0,1,1-9.253,0" transform="translate(-215.952 -217.476)" fill="none" stroke="#1e70b9" stroke-linecap="round" stroke-miterlimit="10" stroke-width="1"/>
      </g>
    </g>
  </g>
</svg>
