<svg xmlns="http://www.w3.org/2000/svg" width="55.007" height="11.113" viewBox="0 0 55.007 11.113">
  <path id="Path_4782" data-name="Path 4782" d="M53.141.5a1.8,1.8,0,0,0-1.8,1.841,1.8,1.8,0,0,0,1.8,1.841,1.841,1.841,0,1,0,0-3.681ZM49.2,7.988a1.8,1.8,0,1,0,1.32.523,1.812,1.812,0,0,0-1.32-.523ZM44.593.5a1.809,1.809,0,0,0-1.808,1.841,1.809,1.809,0,0,0,1.808,1.841,1.841,1.841,0,1,0,0-3.681ZM40.656,7.988a1.8,1.8,0,1,0,1.321.523,1.812,1.812,0,0,0-1.321-.523ZM36.044.5a1.816,1.816,0,0,0-1.816,1.841,1.816,1.816,0,0,0,1.816,1.841,1.841,1.841,0,1,0,0-3.681ZM32.107,7.988a1.8,1.8,0,1,0,1.32.523,1.812,1.812,0,0,0-1.32-.523ZM27.5.5a1.824,1.824,0,0,0-1.825,1.841A1.858,1.858,0,1,0,27.5.5ZM23.559,7.988a1.8,1.8,0,1,0,1.321.523,1.812,1.812,0,0,0-1.321-.523ZM18.947.5a1.832,1.832,0,1,0,1.312.532A1.841,1.841,0,0,0,18.947.5ZM15.01,7.988a1.8,1.8,0,1,0,1.321.523,1.812,1.812,0,0,0-1.321-.523ZM10.4.5A1.77,1.77,0,0,0,8.64,2.341a1.77,1.77,0,0,0,1.76,1.84A1.841,1.841,0,1,0,10.4.5ZM6.462,7.988A1.812,1.812,0,1,0,8.274,9.8,1.812,1.812,0,0,0,6.462,7.988ZM1.85.5A1.841,1.841,0,1,0,3.7,2.341,1.841,1.841,0,0,0,1.85.5Z" transform="translate(-0.018 -0.5)" fill-rule="evenodd"/>
</svg>
