<svg xmlns="http://www.w3.org/2000/svg" width="55.007" height="11.113" viewBox="0 0 55.007 11.113">
  <path id="Path_4781" data-name="Path 4781" d="M53.141,11.611a1.841,1.841,0,1,1,1.63-.908,1.841,1.841,0,0,1-1.63.908ZM49.2,4.124a1.8,1.8,0,0,1-1.85-1.841,1.852,1.852,0,0,1,3.7,0A1.8,1.8,0,0,1,49.2,4.124Zm-4.612,7.488a1.841,1.841,0,1,1,1.63-.908,1.841,1.841,0,0,1-1.63.908ZM40.656,4.124a1.8,1.8,0,0,1-1.85-1.841,1.852,1.852,0,0,1,3.7,0,1.8,1.8,0,0,1-1.85,1.841Zm-4.612,7.488a1.841,1.841,0,1,1,1.63-.908,1.841,1.841,0,0,1-1.63.908ZM32.107,4.124a1.8,1.8,0,0,1-1.851-1.841,1.852,1.852,0,0,1,3.7,0,1.8,1.8,0,0,1-1.849,1.841ZM27.5,11.611a1.841,1.841,0,1,1,1.63-.908,1.841,1.841,0,0,1-1.63.908ZM23.559,4.124a1.8,1.8,0,0,1-1.85-1.841,1.852,1.852,0,0,1,3.7,0,1.8,1.8,0,0,1-1.85,1.841Zm-4.612,7.488a1.834,1.834,0,1,1,1.312-.533,1.841,1.841,0,0,1-1.312.533ZM15.011,4.124a1.8,1.8,0,0,1-1.85-1.841,1.852,1.852,0,0,1,3.7,0,1.8,1.8,0,0,1-1.85,1.841ZM10.4,11.611A1.77,1.77,0,0,1,8.64,9.77,1.77,1.77,0,0,1,10.4,7.93a1.841,1.841,0,1,1,0,3.681ZM6.462,4.124a1.8,1.8,0,0,1-1.85-1.841A1.8,1.8,0,0,1,6.462.5a1.8,1.8,0,0,1,1.85,1.783,1.8,1.8,0,0,1-1.85,1.841ZM1.85,11.611A1.841,1.841,0,1,1,3.7,9.771a1.841,1.841,0,0,1-1.85,1.84Z" transform="translate(-0.018 -0.499)" fill-rule="evenodd"/>
</svg>
