<svg xmlns="http://www.w3.org/2000/svg" width="23.233" height="23.232" viewBox="0 0 23.233 23.232">
  <g id="copy_clipboard" data-name="copy clipboard" style="isolation: isolate">
    <path id="Path_68" data-name="Path 68" d="M551.867,83.326H536.047A1.048,1.048,0,0,0,535,84.373v15.82a1.048,1.048,0,0,0,1.047,1.047h15.821a1.048,1.048,0,0,0,1.047-1.047V84.373A1.048,1.048,0,0,0,551.867,83.326Zm-14.774,15.82V85.419H550.82V99.146Z" transform="translate(-535 -78.007)" fill="#fff"/>
    <path id="Path_69" data-name="Path 69" d="M658.447-24H642.627a1.048,1.048,0,0,0-1.046,1.047v1.769a1.048,1.048,0,0,0,1.046,1.047,1.048,1.048,0,0,0,1.047-1.047v-.722H657.4V-8.179h-.653A1.048,1.048,0,0,0,655.7-7.133a1.048,1.048,0,0,0,1.047,1.047h1.7a1.048,1.048,0,0,0,1.046-1.047V-22.953A1.048,1.048,0,0,0,658.447-24Z" transform="translate(-636.261 24)" fill="#fff"/>
  </g>
</svg>
