<svg xmlns="http://www.w3.org/2000/svg" width="23.089" height="23.089" viewBox="0 0 23.089 23.089">
  <g id="download" style="isolation: isolate">
    <path id="Path_66" data-name="Path 66" d="M27.916,314a1.152,1.152,0,0,0-1.173,1.128v5.137H8.346v-5.137a1.174,1.174,0,0,0-2.346,0V321.4a1.152,1.152,0,0,0,1.173,1.128H27.916a1.152,1.152,0,0,0,1.173-1.128v-6.269A1.152,1.152,0,0,0,27.916,314Z" transform="translate(-6 -299.436)" fill="#fff"/>
    <path id="Path_67" data-name="Path 67" d="M112.331,19.81l0,0a1.175,1.175,0,0,0,.812.33h.05a1.165,1.165,0,0,0,.779-.337l5.656-5.43a1.085,1.085,0,0,0,0-1.575,1.194,1.194,0,0,0-1.639,0l-3.686,3.538V5.512a1.159,1.159,0,0,0-2.315,0v10.82L108.3,12.794a1.194,1.194,0,0,0-1.639,0,1.085,1.085,0,0,0,0,1.576Z" transform="translate(-101.872 -4.4)" fill="#fff"/>
  </g>
</svg>
