<svg xmlns="http://www.w3.org/2000/svg" width="18" height="13" viewBox="0 0 18 13">
  <g id="saudi-arabia_2_" data-name="saudi-arabia (2)" transform="translate(0 -88.276)">
    <path id="Path_7089" data-name="Path 7089" d="M18,101.276H0v-13H18Z" fill="#73af00"/>
    <g id="Group_2349" data-name="Group 2349" transform="translate(3.002 91.013)">
      <path id="Path_7090" data-name="Path 7090" d="M102.344,167.472c.034.216.164.284.278.275a.279.279,0,0,0,.251-.262v-.742a.067.067,0,0,1,.135,0v.745a.27.27,0,0,0,.37.25l.067-.027c.006.623-.032,1.17-.032,1.18a.135.135,0,0,0,.125.144h.01a.135.135,0,0,0,.134-.125c0-.044.045-.643.032-1.307l.041-.016a.135.135,0,0,1,.11,0,.385.385,0,0,0,.445-.072l.024-.024a.4.4,0,0,0,.1-.414l-.115-.344a.135.135,0,0,0,.1-.25l-.27-.135a.135.135,0,0,0-.188.163l.217.651a.134.134,0,0,1-.033.138l-.024.024a.116.116,0,0,1-.133.022.4.4,0,0,0-.28-.028,4.651,4.651,0,0,0-.165-1.162.135.135,0,0,0-.256.085,4.637,4.637,0,0,1,.155,1.177l-.161.065v-.745a.337.337,0,1,0-.674,0v.653l-.138-.68a.135.135,0,1,0-.264.053Z" transform="translate(-102.161 -165.791)" fill="#f5f5f5"/>
      <path id="Path_7091" data-name="Path 7091" d="M109.295,163a.135.135,0,0,0,.135-.135v-.135a.135.135,0,1,0-.27,0v.135A.135.135,0,0,0,109.295,163Z" transform="translate(-108.852 -162.451)" fill="#f5f5f5"/>
      <path id="Path_7092" data-name="Path 7092" d="M144.092,162.864h.135a.135.135,0,1,0,0-.27h-.135a.135.135,0,1,0,0,.27Z" transform="translate(-142.301 -162.451)" fill="#f5f5f5"/>
      <path id="Path_7093" data-name="Path 7093" d="M106.419,214.808l-.674.4a.135.135,0,1,0,.139.231l.674-.4a.135.135,0,1,0-.139-.231Z" transform="translate(-105.506 -212.623)" fill="#f5f5f5"/>
      <path id="Path_7094" data-name="Path 7094" d="M118.2,168.218l0,0a.308.308,0,0,0,.062.127.265.265,0,0,0,.23.089.372.372,0,0,0,.281-.148l.028.017a.255.255,0,0,0,.237-.008.512.512,0,0,0,.242-.475.138.138,0,0,0-.14-.128.135.135,0,0,0-.129.14s0,.162-.095.221a.329.329,0,0,1-.042-.114.135.135,0,0,0-.268.022c0,.02,0,.193-.138.207a.329.329,0,0,1,0-.176.135.135,0,0,0-.207-.143l-.075.051c-.036-.782-.118-1.693-.119-1.705a.135.135,0,1,0-.269.025c0,.012.1,1.067.126,1.872l-.021.02a.348.348,0,0,0-.3-.232.492.492,0,0,0-.475.3.319.319,0,0,0,.1.4.45.45,0,0,0,.4.018,1.128,1.128,0,0,1-.219.416.566.566,0,0,1-.431.22.354.354,0,0,1-.262-.112.77.77,0,0,1-.143-.483.135.135,0,0,0-.127-.142.132.132,0,0,0-.142.127,1.034,1.034,0,0,0,.212.678.618.618,0,0,0,.451.2H117a.822.822,0,0,0,.619-.314,1.4,1.4,0,0,0,.309-.691,1.528,1.528,0,0,1-.647,1.211.673.673,0,0,1-.675.049.579.579,0,0,1-.3-.57.135.135,0,1,0-.268-.033.847.847,0,0,0,.445.846.917.917,0,0,0,.408.1,1,1,0,0,0,.529-.159,1.793,1.793,0,0,0,.775-1.441C118.2,168.413,118.2,168.318,118.2,168.218Zm-.813.139c-.024-.016-.005-.067,0-.077a.229.229,0,0,1,.188-.133h.011c.017,0,.063.006.083.108q0,.016.005.033C117.519,168.377,117.418,168.38,117.384,168.357Z" transform="translate(-115.466 -165.794)" fill="#f5f5f5"/>
      <path id="Path_7095" data-name="Path 7095" d="M101.735,243.191a.135.135,0,0,0-.184.048.277.277,0,0,1-.023.032l0-.011a.907.907,0,0,1,0-.458.135.135,0,0,0-.261-.07,1.161,1.161,0,0,0,0,.622c.062.165.157.207.226.212h.018a.354.354,0,0,0,.269-.193A.135.135,0,0,0,101.735,243.191Z" transform="translate(-101.225 -239.388)" fill="#f5f5f5"/>
      <path id="Path_7096" data-name="Path 7096" d="M175.264,163.808a.134.134,0,0,0,.083-.029l.68-.534a.13.13,0,0,0,.022-.026.338.338,0,1,0-.388-.03l-.481.378a.135.135,0,0,0,.083.241Zm.612-.944a.067.067,0,1,1-.067.067A.068.068,0,0,1,175.876,162.864Z" transform="translate(-172.264 -162.451)" fill="#f5f5f5"/>
      <path id="Path_7097" data-name="Path 7097" d="M185.348,190.438a.135.135,0,0,0-.171.085.412.412,0,0,0,.053.4.272.272,0,0,0,.2.077.593.593,0,0,0,.186-.034.135.135,0,1,0-.085-.256.47.47,0,0,1-.11.024.258.258,0,0,1,.011-.123A.135.135,0,0,0,185.348,190.438Z" transform="translate(-181.896 -189.209)" fill="#f5f5f5"/>
      <path id="Path_7098" data-name="Path 7098" d="M227.713,162.981a.135.135,0,0,0,.167-.092l.079-.27a.135.135,0,1,0-.259-.076l-.079.27A.135.135,0,0,0,227.713,162.981Z" transform="translate(-222.717 -162.31)" fill="#f5f5f5"/>
      <path id="Path_7099" data-name="Path 7099" d="M205.947,159.553a.135.135,0,1,0,.136-.233c-.027-.016-.023-.06-.022-.069a.106.106,0,0,1,.062-.09.135.135,0,0,0-.08-.258.37.37,0,0,0-.25.317A.332.332,0,0,0,205.947,159.553Z" transform="translate(-201.737 -158.897)" fill="#f5f5f5"/>
      <path id="Path_7100" data-name="Path 7100" d="M178.889,232.189a.135.135,0,0,0-.025.267.253.253,0,0,1,.025.137.135.135,0,0,0,.27,0C179.159,232.194,178.9,232.189,178.889,232.189Z" transform="translate(-175.749 -229.349)" fill="#f5f5f5"/>
      <path id="Path_7101" data-name="Path 7101" d="M234.7,208.215a.311.311,0,0,0,.051,0,.461.461,0,0,0,.319-.159.135.135,0,1,0-.191-.191c-.081.081-.124.082-.135.08s-.049-.037-.054-.046a.135.135,0,0,0-.24.122A.365.365,0,0,0,234.7,208.215Z" transform="translate(-229.269 -205.933)" fill="#f5f5f5"/>
      <path id="Path_7102" data-name="Path 7102" d="M293.85,190.912l0-.006a.135.135,0,0,0-.256.086.3.3,0,0,0,.219.21l.03,0a.33.33,0,0,0,.261-.18.135.135,0,1,0-.224-.15A.415.415,0,0,1,293.85,190.912Z" transform="translate(-286.131 -189.578)" fill="#f5f5f5"/>
      <path id="Path_7103" data-name="Path 7103" d="M203.271,169.572c0-.575-.025-1.115-.06-1.587a6.831,6.831,0,0,1,.473.96.135.135,0,0,0,.126.087.137.137,0,0,0,.047-.009.135.135,0,0,0,.079-.174,8.933,8.933,0,0,0-.78-1.478c-.074-.726-.156-1.188-.158-1.2a.135.135,0,0,0-.265.048c0,.006.044.243.094.643-.1-.154-.2-.292-.281-.407l.007,0a.135.135,0,1,0,.085-.256l-.4-.135a.134.134,0,0,0-.172.09.294.294,0,0,0-.281-.068.229.229,0,0,0-.129.24,1.218,1.218,0,0,0,.093.382c.079.225.129.39.045.469a.147.147,0,0,1-.138.049c-.083-.021-.165-.132-.22-.3a.126.126,0,0,0-.011-.019,2.293,2.293,0,0,0-.041-.746.135.135,0,0,0-.264.053,1.284,1.284,0,0,1-.071.961.242.242,0,0,1-.2.091.078.078,0,0,1-.065-.03,1.3,1.3,0,0,1-.072-.76.135.135,0,0,0-.134-.154c-.232,0-.32.264-.4.5-.034.1-.1.293-.142.312-.082,0-.134-.24-.135-.4a.135.135,0,0,0-.135-.135h0a.135.135,0,0,0-.135.135c0,.311.106.674.4.674.222,0,.312-.242.388-.468a.845.845,0,0,0,.153.479.346.346,0,0,0,.268.123.513.513,0,0,0,.41-.19.622.622,0,0,0,.05-.074.5.5,0,0,0,.283.212.388.388,0,0,0,.1.012.428.428,0,0,0,.294-.126.394.394,0,0,0,.045-.054.363.363,0,0,0,.1.015.546.546,0,0,0,.28-.086.135.135,0,0,0-.145-.227.286.286,0,0,1-.153.04,1.392,1.392,0,0,0-.1-.443,1.878,1.878,0,0,1-.07-.225l.032.029a.135.135,0,0,0,.191,0,.13.13,0,0,0,.02-.029c.14.193.427.6.723,1.064.056.573.106,1.3.106,2.107a.135.135,0,0,0,.27,0Z" transform="translate(-195.816 -165.788)" fill="#f5f5f5"/>
      <path id="Path_7104" data-name="Path 7104" d="M293.721,166.615a.135.135,0,0,0,.27,0,1.375,1.375,0,0,0-.149-.465.135.135,0,0,0-.241.121A1.2,1.2,0,0,1,293.721,166.615Z" transform="translate(-286.131 -165.797)" fill="#f5f5f5"/>
      <path id="Path_7105" data-name="Path 7105" d="M263,249.873a.135.135,0,0,0-.181.059.387.387,0,0,1-.056.08.754.754,0,0,1,.035-.249.135.135,0,0,0-.224-.135l-.27.27a.135.135,0,0,0,.191.191l.007-.007a.279.279,0,0,0,.072.142.247.247,0,0,0,.175.077.242.242,0,0,0,.037,0,.439.439,0,0,0,.273-.244A.135.135,0,0,0,263,249.873Z" transform="translate(-256.029 -246.074)" fill="#f5f5f5"/>
      <path id="Path_7106" data-name="Path 7106" d="M169.29,205.3h-.95q.013-.05.026-.1c.379-.079.6-.2.671-.364a.3.3,0,0,0-.051-.3.334.334,0,0,0-.341-.145c-.192.039-.362.245-.485.576a1.55,1.55,0,0,0-.779.337,2.09,2.09,0,0,0-.28-.9.135.135,0,0,0-.224.15,1.947,1.947,0,0,1,.247,1,1.067,1.067,0,0,1-.809,1.079c-.151,0-.218-.18-.247-.332a1.549,1.549,0,0,0,.647-.714,1.072,1.072,0,0,0-.09-.731l-.01-.023.008.008a.135.135,0,1,0,.191-.191c-.079-.079-.232-.2-.371-.145a.23.23,0,0,0-.129.24.573.573,0,0,0,.063.217.815.815,0,0,1,.076.56,1.141,1.141,0,0,1-.441.487.133.133,0,0,0-.1-.049h0a.135.135,0,0,0-.135.135c0,.024,0,.05,0,.077a7.093,7.093,0,0,1-.868.475.135.135,0,0,0,.056.258.133.133,0,0,0,.056-.012,7.765,7.765,0,0,0,.805-.431.525.525,0,0,0,.487.443,1.146,1.146,0,0,0,.9-.659.789.789,0,0,0,.09.129,1.52,1.52,0,0,0,1.031.4.135.135,0,0,0,.01-.269.289.289,0,0,1-.168-.082.231.231,0,0,1-.044-.177c.014-.166.55-.29,1.022-.3a.135.135,0,0,0,.125-.09l.135-.379a.135.135,0,0,0-.127-.18Zm-.592-.644h.01c.013,0,.033.006.06.043.005.007.022.03.017.041-.015.038-.109.1-.3.158C168.569,204.732,168.652,204.667,168.7,204.658Zm-.814,1.773a.826.826,0,0,1-.373-.227.573.573,0,0,1-.12-.475.4.4,0,0,1,.028-.057c.19-.017.7.057.732.2a.453.453,0,0,0-.285.352A.569.569,0,0,0,167.884,206.431Z" transform="translate(-162.366 -202.588)" fill="#f5f5f5"/>
      <path id="Path_7107" data-name="Path 7107" d="M291.179,166.567l-.135-.4a.135.135,0,0,0-.262.056c.093.931.269,2.745.269,2.953,0,.187-.332.555-.869.823a.135.135,0,0,0,.121.241c.491-.245,1.019-.683,1.019-1.065,0-.2-.138-1.633-.217-2.438A.135.135,0,0,0,291.179,166.567Z" transform="translate(-282.787 -165.792)" fill="#f5f5f5"/>
      <path id="Path_7108" data-name="Path 7108" d="M335.79,193.881a.135.135,0,0,0,.226-.129.681.681,0,0,1-.019-.262.137.137,0,0,0,.14-.116.135.135,0,0,0-.114-.153.243.243,0,0,0-.222.075.309.309,0,0,0-.068.145l-.156-.156a.135.135,0,0,0-.191.191Z" transform="translate(-326.273 -191.89)" fill="#f5f5f5"/>
      <path id="Path_7109" data-name="Path 7109" d="M340.691,213.288l-.506.362a.135.135,0,1,0,.157.219l.506-.362a.135.135,0,1,0-.157-.219Z" transform="translate(-330.87 -211.156)" fill="#f5f5f5"/>
      <path id="Path_7110" data-name="Path 7110" d="M352.771,225.714a.135.135,0,0,0,.012.179.374.374,0,0,1,.027.194.135.135,0,0,0,.13.14h0a.135.135,0,0,0,.135-.13c.01-.275-.08-.376-.119-.406A.135.135,0,0,0,352.771,225.714Z" transform="translate(-342.995 -223.074)" fill="#f5f5f5"/>
      <path id="Path_7111" data-name="Path 7111" d="M323.842,169.431a.135.135,0,0,0,.135-.135c0-.2-.01-.421-.027-.652a4.915,4.915,0,0,1,.316.587.135.135,0,0,0,.124.082.133.133,0,0,0,.053-.011.135.135,0,0,0,.071-.177,7.414,7.414,0,0,0-.617-1.064c-.053-.495-.122-.98-.176-1.328a.13.13,0,0,0,.084-.021.076.076,0,1,1,.075-.083.491.491,0,0,1,.049.33.135.135,0,0,0,.1.159l.027,0a.135.135,0,0,0,.132-.108.764.764,0,0,0-.086-.53.135.135,0,0,0-.186-.041.133.133,0,0,0-.06.122.131.131,0,0,0-.015-.039l-.228-.354a.135.135,0,0,0-.246.1c0,.011.1.6.2,1.316-.1-.146-.207-.289-.307-.425-.016-.2-.033-.393-.047-.549l.022-.009a.135.135,0,0,0,.06-.181l-.135-.27a.135.135,0,0,0-.255.074c.016.161.033.339.049.526-.085-.112-.164-.215-.232-.3a.135.135,0,0,0-.028-.223l-.27-.135a.135.135,0,0,0-.166.2c.007.009.339.425.736.962a10.842,10.842,0,0,1,.05,2.012c-.012.036-.033.077-.052.079-.082.011-.276-.171-.374-.366a.188.188,0,0,0-.181-.122c-.145.009-.2.168-.3.458a1.9,1.9,0,0,1-.268.571,1.532,1.532,0,0,1-.168-.531.134.134,0,0,0,.26-.045c0-.2-.141-1.733-.219-2.572a.135.135,0,0,0,.077-.168l-.135-.4a.135.135,0,0,0-.262.055c.092.962.264,2.82.269,3.077v-.007a.135.135,0,1,0-.267.038c.039.276.14.75.372.827a.225.225,0,0,0,.072.012.265.265,0,0,0,.19-.088,1.944,1.944,0,0,0,.334-.674c.02-.056.043-.122.065-.179.124.181.34.406.558.388a.331.331,0,0,0,.289-.263,7.6,7.6,0,0,0,0-1.684c.114.159.227.322.336.483.042.4.072.808.072,1.141A.135.135,0,0,0,323.842,169.431Z" transform="translate(-312.889 -165.799)" fill="#f5f5f5"/>
      <path id="Path_7112" data-name="Path 7112" d="M382.286,169.136c-.1-.712-.229-1.536-.313-2.042a.133.133,0,0,0,.113-.024.135.135,0,0,0,.025-.189l-.244-.32a.135.135,0,0,0-.24.1c0,.014.243,1.4.392,2.506a1.264,1.264,0,0,1-.222,1.012.6.6,0,0,1-.495.184.135.135,0,0,0-.017.269l.067,0a.851.851,0,0,0,.641-.272A1.506,1.506,0,0,0,382.286,169.136Z" transform="translate(-370.31 -166.213)" fill="#f5f5f5"/>
      <path id="Path_7113" data-name="Path 7113" d="M371.05,256.174a.136.136,0,0,0,.007.189.057.057,0,0,1,.016.028.063.063,0,0,1-.02.03.135.135,0,1,0,.191.191.306.306,0,0,0,.1-.23.32.32,0,0,0-.106-.22A.134.134,0,0,0,371.05,256.174Z" transform="translate(-360.557 -252.362)" fill="#f5f5f5"/>
      <path id="Path_7114" data-name="Path 7114" d="M152.318,326.89h-.944v-.135a.135.135,0,1,0-.27,0v.135h-7.147a1.882,1.882,0,0,0,1.214.4H151.1v.27a.135.135,0,0,0,.135.135h1.079a.4.4,0,1,0,0-.809Zm0,.539h-.944v-.135h1.079l-.024-.073a.131.131,0,0,1,.024.073A.135.135,0,0,1,152.318,327.429Z" transform="translate(-142.301 -320.12)" fill="#f5f5f5"/>
    </g>
  </g>
</svg>
