<svg xmlns="http://www.w3.org/2000/svg" width="23.489" height="25.652" viewBox="0 0 23.489 25.652">
  <g id="print_option" data-name="print option" transform="translate(0.2 0.2)" style="isolation: isolate">
    <path id="Path_71" data-name="Path 71" d="M1640.545,171.282a1.18,1.18,0,1,0,1.18,1.18A1.181,1.181,0,0,0,1640.545,171.282Z" transform="translate(-1622.487 -171.282)" fill="#fff" stroke="#fff" stroke-width="0.4"/>
    <path id="Path_73" data-name="Path 73" d="M1404.427,402.2h-4.009a.566.566,0,0,0,0,1.132h4.009a.566.566,0,1,0,0-1.132Z" transform="translate(-1391.003 -395.326)" fill="#fff" stroke="#fff" stroke-width="0.4"/>
    <path id="Path_70" data-name="Path 70" d="M1229.285-23.747a1.8,1.8,0,0,0-1.27-.516h-2.347v-3.874a.874.874,0,0,0-.882-.863h-13.038a.874.874,0,0,0-.882.863v3.874h-2.347a1.78,1.78,0,0,0-1.8,1.759v8.623a1.78,1.78,0,0,0,1.8,1.759h2.347v3.143a.874.874,0,0,0,.882.863h13.038a.874.874,0,0,0,.882-.863v-3.143h2.347a1.78,1.78,0,0,0,1.8-1.759V-22.5A1.729,1.729,0,0,0,1229.285-23.747Zm-16.655,13.9v-6.285H1223.9v6.285Zm0-14.421v-3.011H1223.9v3.011Zm12.156,6.409h-13.038a.874.874,0,0,0-.882.863v3.142h-2.347a.037.037,0,0,1-.034-.033V-22.5a.037.037,0,0,1,.034-.033h19.5a.036.036,0,0,1,.034.033v8.623a.037.037,0,0,1-.034.033h-2.347V-16.99A.874.874,0,0,0,1224.786-17.854Z" transform="translate(-1206.723 33.367)" fill="#fff" stroke="#fff" stroke-width="0.4"/>
  </g>
</svg>
