<svg xmlns="http://www.w3.org/2000/svg" width="26.407" height="24.72" viewBox="0 0 26.407 24.72">
  <g id="start_new_search" data-name="start new search" transform="translate(0.2 0.2)" style="isolation: isolate">
    <path id="Path_92" data-name="Path 92" d="M1626.217,50.68a3.324,3.324,0,0,0-3.082-2.06h-.006a3.333,3.333,0,0,0-2.352.979l-7.634,7.653a.817.817,0,0,0-.221.4l-.983,4.518a.82.82,0,0,0,.976.976l4.518-.983a.816.816,0,0,0,.405-.221h0l7.653-7.634A3.322,3.322,0,0,0,1626.217,50.68Zm-9.99,10.237-2.624.571.571-2.624Zm5.748-5.412-4.326,4.373-2.376-2.376,4.314-4.385Zm2.358-2.354-1.2,1.195-2.392-2.388,1.192-1.2h0a1.691,1.691,0,0,1,1.193-.5h.006a1.692,1.692,0,0,1,1.2,2.89Z" transform="translate(-1606.959 -42.969)" fill="#f2f5f7" stroke="#f2f5f7" stroke-width="0.4"/>
    <path id="Path_93" data-name="Path 93" d="M1395-219.594h0a12.124,12.124,0,0,0-2.606-3.865,12.12,12.12,0,0,0-3.865-2.605,12.084,12.084,0,0,0-4.734-.956,12.083,12.083,0,0,0-4.733.956,12.12,12.12,0,0,0-3.865,2.606,12.117,12.117,0,0,0-2.605,3.865,12.092,12.092,0,0,0-.767,2.581l-.221-.221a.971.971,0,0,0-1.372,0,.964.964,0,0,0-.284.686.964.964,0,0,0,.284.686l1.814,1.814a.964.964,0,0,0,.686.284.964.964,0,0,0,.686-.284l1.814-1.814a.971.971,0,0,0,0-1.372.971.971,0,0,0-1.372,0h0a10.128,10.128,0,0,1,.525-1.6,10.178,10.178,0,0,1,2.189-3.246,10.177,10.177,0,0,1,3.246-2.189,10.15,10.15,0,0,1,3.975-.8,10.147,10.147,0,0,1,3.975.8,10.184,10.184,0,0,1,3.246,2.189,10.18,10.18,0,0,1,2.189,3.246,10.149,10.149,0,0,1,.8,3.975,10.148,10.148,0,0,1-.8,3.975,10.18,10.18,0,0,1-2.189,3.246,10.177,10.177,0,0,1-3.247,2.189,10.144,10.144,0,0,1-3.975.8,10.147,10.147,0,0,1-3.975-.8c-.138-.058-.276-.12-.41-.184a.978.978,0,0,0-1.261.393.975.975,0,0,0-.086.776.981.981,0,0,0,.515.592c.158.075.321.148.483.217a12.082,12.082,0,0,0,4.733.956,12.085,12.085,0,0,0,4.734-.956,12.116,12.116,0,0,0,3.865-2.606,12.122,12.122,0,0,0,2.606-3.865,12.089,12.089,0,0,0,.956-4.733A12.089,12.089,0,0,0,1395-219.594Z" transform="translate(-1369.95 227.02)" fill="#f2f5f7" stroke="#f2f5f7" stroke-width="0.4"/>
  </g>
</svg>
