<svg xmlns="http://www.w3.org/2000/svg" width="22.451" height="23.589" viewBox="0 0 22.451 23.589">
  <path id="share" d="M2776.612-198.734a4.342,4.342,0,0,0-1.96.462,4.462,4.462,0,0,0-1.316,1.007l-5.706-3.166a4.327,4.327,0,0,0,.158-1.159,4.271,4.271,0,0,0-.161-1.164l5.7-3.16a4.435,4.435,0,0,0,1.315,1.012,4.341,4.341,0,0,0,1.967.465,4.366,4.366,0,0,0,4.375-4.346,4.366,4.366,0,0,0-4.375-4.346,4.366,4.366,0,0,0-4.375,4.346,4.262,4.262,0,0,0,.16,1.165l-5.693,3.159a4.407,4.407,0,0,0-1.316-1.014,4.348,4.348,0,0,0-1.967-.463,4.366,4.366,0,0,0-4.375,4.346,4.368,4.368,0,0,0,4.38,4.346,4.339,4.339,0,0,0,1.967-.466,4.461,4.461,0,0,0,1.319-1.016l5.7,3.164a4.266,4.266,0,0,0-.166,1.174,4.366,4.366,0,0,0,4.375,4.346,4.366,4.366,0,0,0,4.375-4.346A4.368,4.368,0,0,0,2776.612-198.734Zm0,1.932a2.421,2.421,0,0,1,2.426,2.41,2.421,2.421,0,0,1-2.426,2.41,2.421,2.421,0,0,1-2.426-2.41A2.421,2.421,0,0,1,2776.612-196.8Zm0-9.567a2.421,2.421,0,0,1-2.426-2.41,2.421,2.421,0,0,1,2.426-2.41,2.421,2.421,0,0,1,2.426,2.41A2.42,2.42,0,0,1,2776.612-206.369Zm-13.19,7.189a2.421,2.421,0,0,1-2.426-2.41,2.421,2.421,0,0,1,2.426-2.41,2.42,2.42,0,0,1,2.426,2.41A2.421,2.421,0,0,1,2763.421-199.181Z" transform="translate(-2758.791 213.38)" stroke="#000" stroke-width="0.5"/>
</svg>
