<svg xmlns="http://www.w3.org/2000/svg" width="30.21" height="39.947" viewBox="0 0 30.21 39.947">
  <g id="article_rewriter" data-name="article rewriter" transform="translate(-122.375 -34)">
    <g id="Group_1957" data-name="Group 1957" transform="translate(122.875 34.5)">
      <g id="Group_1955" data-name="Group 1955">
        <path id="Path_1446" data-name="Path 1446" d="M149.3,73.447H125.657a2.782,2.782,0,0,1-2.782-2.782V37.282a2.782,2.782,0,0,1,2.782-2.782h16.351a2.777,2.777,0,0,1,1.966.815l7.3,7.3a2.777,2.777,0,0,1,.815,1.966V70.665A2.782,2.782,0,0,1,149.3,73.447Z" transform="translate(-122.875 -34.5)" fill="#fff" stroke="#1e70b9" stroke-miterlimit="10" stroke-width="1"/>
        <path id="Path_1447" data-name="Path 1447" d="M139.49,37.885V44.84h6.955" transform="translate(-121.001 -34.118)" fill="none" stroke="#1e70b9" stroke-linecap="round" stroke-linejoin="round" stroke-width="1"/>
        <g id="Group_1954" data-name="Group 1954" transform="translate(5.414 30.323)">
          <line id="Line_46" data-name="Line 46" x2="18.383" transform="translate(0 4.173)" fill="none" stroke="#1e70b9" stroke-linecap="round" stroke-miterlimit="10" stroke-width="1"/>
          <line id="Line_47" data-name="Line 47" x2="11.428" transform="translate(6.955)" fill="none" stroke="#1e70b9" stroke-linecap="round" stroke-miterlimit="10" stroke-width="1"/>
          <line id="Line_48" data-name="Line 48" x2="3.082" fill="none" stroke="#1e70b9" stroke-linecap="round" stroke-miterlimit="10" stroke-width="1"/>
        </g>
      </g>
      <g id="Group_1956" data-name="Group 1956" transform="translate(8.512 13.93)">
        <path id="Rectangle_382" data-name="Rectangle 382" d="M1.5,0H2.981a1.5,1.5,0,0,1,1.5,1.5V12.1a0,0,0,0,1,0,0H0a0,0,0,0,1,0,0V1.5A1.5,1.5,0,0,1,1.5,0Z" transform="translate(9.71 0) rotate(45)" fill="#fff" stroke="#1e70b9" stroke-linejoin="round" stroke-width="1"/>
        <line id="Line_49" data-name="Line 49" x2="3.168" y2="3.168" transform="translate(7.667 2.043)" fill="none" stroke="#1e70b9" stroke-miterlimit="10" stroke-width="1"/>
        <path id="Path_1448" data-name="Path 1448" d="M131.677,54.707l-1.153,4.318,4.323-1.155Z" transform="translate(-130.524 -46.151)" fill="#fff" stroke="#1e70b9" stroke-linejoin="round" stroke-width="1"/>
        <line id="Line_50" data-name="Line 50" x1="6.512" y2="6.512" transform="translate(2.738 3.626)" fill="none" stroke="#1e70b9" stroke-linejoin="round" stroke-width="1"/>
      </g>
    </g>
  </g>
</svg>
