<svg xmlns="http://www.w3.org/2000/svg" width="41" height="41" viewBox="0 0 41 41">
  <g id="Backlink_Maker" data-name="Backlink Maker" transform="translate(-118 -34)">
    <g id="Group_2186" data-name="Group 2186" transform="translate(118.5 34.5)">
      <rect id="Rectangle_466" data-name="Rectangle 466" width="40" height="40" rx="2.5" fill="#fff" stroke="#1e70b9" stroke-linecap="round" stroke-linejoin="round" stroke-width="1"/>
      <g id="Group_2185" data-name="Group 2185" transform="translate(7.114 7.114)">
        <g id="Group_2184" data-name="Group 2184">
          <g id="Group_2183" data-name="Group 2183">
            <path id="Path_1523" data-name="Path 1523" d="M147.489,49.209l-3.322,3.322a4.808,4.808,0,0,1-6.8,0l-.011-.011a4.8,4.8,0,0,1,0-6.79l3.321-3.323a4.808,4.808,0,0,1,6.8,0l.012.012A4.8,4.8,0,0,1,147.489,49.209Z" transform="translate(-123.123 -41)" fill="#fff" stroke="#1e70b9" stroke-linecap="round" stroke-linejoin="round" stroke-width="1"/>
            <path id="Path_1524" data-name="Path 1524" d="M136.539,60.162l-3.321,3.323a4.808,4.808,0,0,1-6.8,0l-.012-.012a4.8,4.8,0,0,1,0-6.79l3.322-3.322a4.808,4.808,0,0,1,6.8,0l.011.011A4.8,4.8,0,0,1,136.539,60.162Z" transform="translate(-125 -39.122)" fill="#fff" stroke="#1e70b9" stroke-linecap="round" stroke-linejoin="round" stroke-width="1"/>
          </g>
          <line id="Line_150" data-name="Line 150" y1="6.58" x2="6.578" transform="translate(9.597 9.855)" fill="none" stroke="#1e70b9" stroke-linecap="round" stroke-linejoin="round" stroke-width="1"/>
        </g>
      </g>
    </g>
  </g>
</svg>
