<svg xmlns="http://www.w3.org/2000/svg" width="41" height="41" viewBox="0 0 41 41">
  <g id="Binary_To_HEX" data-name="Binary To HEX" transform="translate(-202 -34)">
    <g id="Group_3118" data-name="Group 3118" transform="translate(202.5 34.5)">
      <g id="Group_3114" data-name="Group 3114">
        <rect id="Rectangle_724" data-name="Rectangle 724" width="26.983" height="26.983" rx="2.5" fill="#fff" stroke="#1e70b9" stroke-miterlimit="10" stroke-width="1"/>
        <g id="Group_3113" data-name="Group 3113" transform="translate(4.47 4.47)">
          <line id="Line_424" data-name="Line 424" x2="7.178" y2="7.178" fill="#fff" stroke="#1e70b9" stroke-linecap="round" stroke-miterlimit="10" stroke-width="1"/>
          <path id="Path_1904" data-name="Path 1904" d="M213.062,41.447v3.615h-3.615" transform="translate(-205.884 -37.884)" fill="none" stroke="#1e70b9" stroke-linecap="round" stroke-linejoin="round" stroke-width="1"/>
        </g>
      </g>
      <g id="Group_3117" data-name="Group 3117" transform="translate(13.018 13.017)">
        <g id="Group_3115" data-name="Group 3115">
          <rect id="Rectangle_725" data-name="Rectangle 725" width="26.983" height="26.983" rx="2.5" fill="#fff" stroke="#1e70b9" stroke-miterlimit="10" stroke-width="1"/>
        </g>
        <g id="Group_3116" data-name="Group 3116" transform="translate(6.32 10.741)">
          <path id="Path_1905" data-name="Path 1905" d="M223.548,55.455a.566.566,0,0,0-.565.565v1.626h-2.224V56.02a.563.563,0,1,0-1.126,0v4.369a.563.563,0,1,0,1.126,0V58.737h2.224v1.652a.563.563,0,1,0,1.125,0V56.02A.57.57,0,0,0,223.548,55.455Z" transform="translate(-219.632 -55.455)" fill="#1e70b9"/>
          <path id="Path_1906" data-name="Path 1906" d="M227.8,59.84h-2.485V58.718h2.138a.539.539,0,0,0,.539-.538.545.545,0,0,0-.539-.539h-2.138v-1.08h2.452a.539.539,0,0,0,0-1.078h-3.018a.564.564,0,0,0-.559.567v4.3a.564.564,0,0,0,.559.567H227.8a.538.538,0,1,0,0-1.077Z" transform="translate(-218.919 -55.45)" fill="#1e70b9"/>
          <path id="Path_1907" data-name="Path 1907" d="M232.51,60.015l-1.459-1.864,1.395-1.766a.583.583,0,0,0,.148-.385.542.542,0,0,0-.539-.545.634.634,0,0,0-.494.272l-1.211,1.581L229.108,55.7a.573.573,0,0,0-.465-.244.555.555,0,0,0-.559.552.607.607,0,0,0,.153.389l1.4,1.762-1.476,1.873a.58.58,0,0,0-.145.379.546.546,0,0,0,.532.546.642.642,0,0,0,.5-.272l1.28-1.672,1.311,1.7a.585.585,0,0,0,.464.242.561.561,0,0,0,.561-.56A.573.573,0,0,0,232.51,60.015Z" transform="translate(-218.321 -55.455)" fill="#1e70b9"/>
        </g>
      </g>
    </g>
  </g>
</svg>
