<svg xmlns="http://www.w3.org/2000/svg" width="41" height="41" viewBox="0 0 41 41">
  <g id="Binary_To_ASCII" data-name="Binary To ASCII" transform="translate(-34 -119.333)">
    <g id="Group_3130" data-name="Group 3130" transform="translate(34.5 119.833)">
      <g id="Group_3127" data-name="Group 3127">
        <rect id="Rectangle_728" data-name="Rectangle 728" width="26.667" height="26.667" rx="2.5" fill="#fff" stroke="#1e70b9" stroke-miterlimit="10" stroke-width="1"/>
        <g id="Group_3126" data-name="Group 3126" transform="translate(4.418 4.418)">
          <line id="Line_426" data-name="Line 426" x2="7.094" y2="7.094" fill="#fff" stroke="#1e70b9" stroke-linecap="round" stroke-miterlimit="10" stroke-width="1"/>
          <path id="Path_1912" data-name="Path 1912" d="M45.02,126.78v3.573H41.447" transform="translate(-37.926 -123.259)" fill="none" stroke="#1e70b9" stroke-linecap="round" stroke-linejoin="round" stroke-width="1"/>
        </g>
      </g>
      <g id="Group_3129" data-name="Group 3129" transform="translate(13.333 13.333)">
        <rect id="Rectangle_729" data-name="Rectangle 729" width="26.667" height="26.667" rx="2.5" fill="#fff" stroke="#1e70b9" stroke-miterlimit="10" stroke-width="1"/>
        <g id="Group_3128" data-name="Group 3128" transform="translate(5.563 11.064)">
          <path id="Path_1913" data-name="Path 1913" d="M53.78,141.606a.638.638,0,0,0-1.178-.014l-1.509,3.3a.581.581,0,0,0-.059.261.534.534,0,0,0,.533.535.549.549,0,0,0,.517-.346l.3-.665h1.6l.294.65a.563.563,0,0,0,.522.361.546.546,0,0,0,.545-.544.633.633,0,0,0-.057-.25Zm-.273,2h-.654l.327-.727Z" transform="translate(-51.034 -141.177)" fill="#1e70b9"/>
          <path id="Path_1914" data-name="Path 1914" d="M56.936,142.911c-.742-.159-.742-.287-.742-.4,0-.152.185-.259.45-.259a1.23,1.23,0,0,1,.762.259.54.54,0,0,0,.323.1.546.546,0,0,0,.545-.544.564.564,0,0,0-.232-.449,2.242,2.242,0,0,0-1.387-.432,1.445,1.445,0,0,0-1.567,1.37c0,.952.768,1.248,1.521,1.41.7.147.7.273.7.384,0,.2-.246.29-.488.29a1.329,1.329,0,0,1-.936-.344.531.531,0,0,0-.367-.145.548.548,0,0,0-.546.55.53.53,0,0,0,.216.433,2.516,2.516,0,0,0,1.618.57,1.455,1.455,0,0,0,1.614-1.408C58.419,143.347,57.572,143.051,56.936,142.911Z" transform="translate(-50.472 -141.18)" fill="#1e70b9"/>
          <path id="Path_1915" data-name="Path 1915" d="M61.616,144.135a.532.532,0,0,0-.366.149,1.191,1.191,0,0,1-.874.362,1.132,1.132,0,0,1-1.1-1.207,1.12,1.12,0,0,1,1.1-1.185,1.236,1.236,0,0,1,.881.37.565.565,0,0,0,.589.025.542.542,0,0,0,.294-.472.582.582,0,0,0-.208-.433,2.279,2.279,0,0,0-1.551-.563,2.27,2.27,0,1,0,1.591,3.907.534.534,0,0,0,.19-.408A.553.553,0,0,0,61.616,144.135Z" transform="translate(-50.017 -141.181)" fill="#1e70b9"/>
          <path id="Path_1916" data-name="Path 1916" d="M62.658,141.214a.553.553,0,0,0-.55.555v3.353a.553.553,0,1,0,1.106,0v-3.353A.556.556,0,0,0,62.658,141.214Z" transform="translate(-49.452 -141.176)" fill="#1e70b9"/>
          <path id="Path_1917" data-name="Path 1917" d="M64.216,141.214a.554.554,0,0,0-.551.555v3.353a.553.553,0,1,0,1.106,0v-3.353A.556.556,0,0,0,64.216,141.214Z" transform="translate(-49.23 -141.176)" fill="#1e70b9"/>
        </g>
      </g>
    </g>
  </g>
</svg>
