<svg xmlns="http://www.w3.org/2000/svg" width="19" height="25" viewBox="0 0 19 25">
  <g id="l-binary-converter-tools" transform="translate(-122.375 -290)">
    <g id="Group_1506" data-name="Group 1506" transform="translate(122.875 290.5)">
      <path id="Path_1364" data-name="Path 1364" d="M139.161,314.5H124.589a1.714,1.714,0,0,1-1.714-1.714V292.214a1.714,1.714,0,0,1,1.714-1.714h10.076a1.712,1.712,0,0,1,1.212.5l4.5,4.5a1.712,1.712,0,0,1,.5,1.212v16.076A1.714,1.714,0,0,1,139.161,314.5Z" transform="translate(-122.875 -290.5)" fill="#fff" stroke="#1e70b9" stroke-miterlimit="10" stroke-width="1"/>
      <path id="Path_1365" data-name="Path 1365" d="M139.49,293.885v4.291h4.291" transform="translate(-128.105 -291.561)" fill="none" stroke="#1e70b9" stroke-linecap="round" stroke-linejoin="round" stroke-width="1"/>
    </g>
    <g id="Group_1509" data-name="Group 1509" transform="translate(126.066 301.808)">
      <g id="Group_1507" data-name="Group 1507" transform="translate(0 0)">
        <path id="Path_1366" data-name="Path 1366" d="M128.337,307.7l-.388.119a.506.506,0,0,1-.119.016.287.287,0,0,1-.07-.566l.572-.183a1.146,1.146,0,0,1,.323-.059h.01a.324.324,0,0,1,.33.329v3.193a.327.327,0,0,1-.33.329.33.33,0,0,1-.329-.329Z" transform="translate(-127.539 -307.011)" fill="#1e70b9"/>
        <path id="Path_1367" data-name="Path 1367" d="M131.45,307.7l-.389.119a.505.505,0,0,1-.118.016.287.287,0,0,1-.071-.566l.572-.183a1.15,1.15,0,0,1,.324-.059h.01a.323.323,0,0,1,.329.329v3.193a.327.327,0,0,1-.329.329.33.33,0,0,1-.329-.329Z" transform="translate(-128.515 -307.011)" fill="#1e70b9"/>
        <path id="Path_1368" data-name="Path 1368" d="M133.977,308.967v-.011a1.668,1.668,0,1,1,3.29-.011v.011a1.668,1.668,0,1,1-3.29.011Zm2.605,0v-.011c0-.744-.383-1.354-.965-1.354s-.955.594-.955,1.343v.011c0,.744.377,1.354.965,1.354S136.582,309.705,136.582,308.967Z" transform="translate(-129.557 -307.003)" fill="#1e70b9"/>
        <path id="Path_1369" data-name="Path 1369" d="M139.668,308.967v-.011a1.669,1.669,0,1,1,3.291-.011v.011a1.768,1.768,0,0,1-1.65,1.953A1.75,1.75,0,0,1,139.668,308.967Zm2.605,0v-.011c0-.744-.383-1.354-.965-1.354s-.955.594-.955,1.343v.011c0,.744.378,1.354.965,1.354S142.273,309.705,142.273,308.967Z" transform="translate(-131.341 -307.003)" fill="#1e70b9"/>
      </g>
      <g id="Group_1508" data-name="Group 1508" transform="translate(0.205 5.127)">
        <path id="Path_1370" data-name="Path 1370" d="M127.838,316.434v-.01a1.668,1.668,0,1,1,3.29-.011v.011a1.668,1.668,0,1,1-3.29.01Zm2.6,0v-.01c0-.744-.382-1.354-.965-1.354s-.954.593-.954,1.343v.011c0,.744.377,1.353.965,1.353S130.443,317.173,130.443,316.434Z" transform="translate(-127.838 -314.471)" fill="#1e70b9"/>
        <path id="Path_1371" data-name="Path 1371" d="M134.075,315.169l-.389.118a.472.472,0,0,1-.118.016.287.287,0,0,1-.071-.566l.572-.183a1.149,1.149,0,0,1,.324-.059h.01a.323.323,0,0,1,.329.329v3.192a.326.326,0,0,1-.329.329.33.33,0,0,1-.329-.329Z" transform="translate(-129.543 -314.479)" fill="#1e70b9"/>
        <path id="Path_1372" data-name="Path 1372" d="M136.6,316.434v-.01a1.668,1.668,0,1,1,3.29-.011v.011a1.668,1.668,0,1,1-3.29.01Zm2.6,0v-.01c0-.744-.382-1.354-.965-1.354s-.954.593-.954,1.343v.011c0,.744.377,1.353.965,1.353S139.207,317.173,139.207,316.434Z" transform="translate(-130.585 -314.471)" fill="#1e70b9"/>
        <path id="Path_1373" data-name="Path 1373" d="M142.839,315.169l-.389.118a.472.472,0,0,1-.118.016.287.287,0,0,1-.071-.566l.572-.183a1.149,1.149,0,0,1,.324-.059h.01a.323.323,0,0,1,.329.329v3.192a.326.326,0,0,1-.329.329.33.33,0,0,1-.329-.329Z" transform="translate(-132.29 -314.479)" fill="#1e70b9"/>
      </g>
    </g>
  </g>
</svg>
