<svg xmlns="http://www.w3.org/2000/svg" width="41" height="41" viewBox="0 0 41 41">
  <g id="Binary_To_Text" data-name="Binary To Text" transform="translate(-118 -34)">
    <g id="Group_3111" data-name="Group 3111" transform="translate(118.5 34.5)">
      <g id="Group_3107" data-name="Group 3107">
        <rect id="Rectangle_722" data-name="Rectangle 722" width="26.667" height="26.667" rx="2.5" fill="#fff" stroke="#1e70b9" stroke-miterlimit="10" stroke-width="1"/>
        <g id="Group_3106" data-name="Group 3106" transform="translate(4.418 4.418)">
          <line id="Line_423" data-name="Line 423" x2="7.094" y2="7.094" fill="#fff" stroke="#1e70b9" stroke-linecap="round" stroke-miterlimit="10" stroke-width="1"/>
          <path id="Path_1900" data-name="Path 1900" d="M129.02,41.447V45.02h-3.573" transform="translate(-121.926 -37.926)" fill="none" stroke="#1e70b9" stroke-linecap="round" stroke-linejoin="round" stroke-width="1"/>
        </g>
      </g>
      <g id="Group_3110" data-name="Group 3110" transform="translate(13.333 13.333)">
        <g id="Group_3108" data-name="Group 3108">
          <rect id="Rectangle_723" data-name="Rectangle 723" width="26.667" height="26.667" rx="2.5" fill="#fff" stroke="#1e70b9" stroke-miterlimit="10" stroke-width="1"/>
        </g>
        <g id="Group_3109" data-name="Group 3109" transform="translate(6.28 10.556)">
          <path id="Path_1901" data-name="Path 1901" d="M139.62,55.433h-3.411a.554.554,0,0,0-.546.545.543.543,0,0,0,.546.539h1.139v3.87a.566.566,0,1,0,1.133,0v-3.87h1.139a.543.543,0,0,0,.546-.539A.554.554,0,0,0,139.62,55.433Z" transform="translate(-135.662 -55.399)" fill="#1e70b9"/>
          <path id="Path_1902" data-name="Path 1902" d="M142.838,58.125l1.418-1.793a.594.594,0,0,0,.147-.384.543.543,0,0,0-.539-.545.636.636,0,0,0-.495.273l-1.232,1.607-1.262-1.637a.586.586,0,0,0-.466-.243.556.556,0,0,0-.559.552.622.622,0,0,0,.154.387l1.417,1.789-1.5,1.9a.593.593,0,0,0-.144.379.545.545,0,0,0,.53.546.641.641,0,0,0,.5-.273l1.3-1.7,1.333,1.729a.582.582,0,0,0,.464.243.556.556,0,0,0,.407-.939Z" transform="translate(-135.074 -55.403)" fill="#1e70b9"/>
          <path id="Path_1903" data-name="Path 1903" d="M148.022,55.433H144.61a.554.554,0,0,0-.546.545.544.544,0,0,0,.546.539h1.138v3.87a.567.567,0,1,0,1.134,0v-3.87h1.139a.543.543,0,0,0,.545-.539A.553.553,0,0,0,148.022,55.433Z" transform="translate(-134.462 -55.399)" fill="#1e70b9"/>
        </g>
      </g>
    </g>
  </g>
</svg>
