<svg xmlns="http://www.w3.org/2000/svg" width="33.92" height="24.272" viewBox="0 0 33.92 24.272">
  <g id="Business_Card" transform="translate(0.7 0.3)">
    <g id="Group_3311" transform="translate(-0.7 -0.3)">
      <path id="Rectangle_808_-_Outline" d="M31.146-.3H1.371A2.1,2.1,0,0,0-.7,1.836V21.9a2.086,2.086,0,0,0,2.071,2.071H31.146A2.086,2.086,0,0,0,33.217,21.9V1.836A2.06,2.06,0,0,0,31.146-.3Zm1.165,22.2a1.16,1.16,0,0,1-1.165,1.165H1.371A1.1,1.1,0,0,1,.918,23h0a1.392,1.392,0,0,1-.583-.777A.7.7,0,0,1,.271,21.9V1.836A1.16,1.16,0,0,1,1.436.671H31.21a1.16,1.16,0,0,1,1.165,1.165V21.9Z" transform="translate(0.7 0.3)" fill="#1e70b9"/>
      <path id="Path_13499" data-name="Path 13499" d="M40.679,12.618a.511.511,0,0,1-.518.518H33.818a.518.518,0,0,1,0-1.036h6.343A.511.511,0,0,1,40.679,12.618Z" transform="translate(-11.293 -4.074)" fill="#1e70b9"/>
      <path id="Path_13500" data-name="Path 13500" d="M39.444,18.118a.511.511,0,0,1-.518.518H30.318a.518.518,0,0,1,0-1.036h8.673A.5.5,0,0,1,39.444,18.118Z" transform="translate(-10.058 -6.014)" fill="#1e70b9"/>
      <path id="Path_13501" data-name="Path 13501" d="M40.679,23.618a.511.511,0,0,1-.518.518H33.818a.518.518,0,0,1,0-1.036h6.343A.476.476,0,0,1,40.679,23.618Z" transform="translate(-11.293 -7.954)" fill="#1e70b9"/>
      <path id="Path_1964" d="M18.727,9.336a3.906,3.906,0,0,0-.518-.518c-.129-.129-.259-.194-.388-.324a1.354,1.354,0,0,0-.388-.259,1.415,1.415,0,0,1-.324-.194c-.065-.065-.129-.065-.194-.129l-.388-.194c-.129-.065-.194-.065-.324-.129s-.194-.065-.324-.129a.584.584,0,0,0-.324-.065c-.129,0-.194-.065-.324-.065-.194-.065-.453-.065-.712-.129h-1.1a1.792,1.792,0,0,0-.583.065c-.129,0-.259.065-.388.065h-.129c-.065,0-.194.065-.259.065-.129,0-.194.065-.324.065s-.194.194-.259.194a6.522,6.522,0,0,0-1.489.777H9.925c-.065.065-.194.129-.259.194a7.758,7.758,0,0,0-.777.712,7.351,7.351,0,0,0,0,10.162l.194.194h0a.063.063,0,0,0,.065.065l.065.065h0l.129.129a3.59,3.59,0,0,0,.518.388l.971.583c.129.065.194.129.324.129.129.065.194.065.324.129.194.065.453.129.647.194a2.3,2.3,0,0,0,.647.129,5.747,5.747,0,0,0,1.489.065,1.792,1.792,0,0,0,.583-.065h0c.129,0,.194-.065.324-.065s.194-.065.324-.065a3.743,3.743,0,0,0,.906-.324h.065a5.987,5.987,0,0,0,.647-.324c.129-.065.194-.129.324-.194.259-.194.583-.388.841-.583a3.906,3.906,0,0,0,.518-.518A7.334,7.334,0,0,0,18.727,9.336Zm-7.508,10.68a6.413,6.413,0,0,1-1.1-.712,3.709,3.709,0,0,1-.712-.712A6.358,6.358,0,0,1,9.8,9.854l.194-.194a.894.894,0,0,1,.259-.194l.583-.388a3.023,3.023,0,0,1,.647-.324c.065-.065.194-.065.259-.129a4.187,4.187,0,0,1,.841-.259A.584.584,0,0,0,12.9,8.3c.194,0,.388-.065.583-.065h.324a6.018,6.018,0,0,1,4.272,1.812c.194.194.388.453.583.647a3.613,3.613,0,0,1,.324.518,5.646,5.646,0,0,1,.841,3.236,6.187,6.187,0,0,1-1.683,4.272,3.755,3.755,0,0,1-.777.647,7.706,7.706,0,0,1-.971.583c-.194.065-.324.194-.518.259a5.718,5.718,0,0,1-4.143,0C11.543,20.145,11.413,20.081,11.219,20.016Z" transform="translate(-1.963 -2.345)" fill="#1e70b9"/>
      <path id="Ellipse_251" d="M15.954,12A2.666,2.666,0,0,0,13.3,14.654a2.625,2.625,0,0,0,2.654,2.654h.259a1.523,1.523,0,0,0,.518-.129c.129-.065.324-.129.453-.194a2.568,2.568,0,0,0,1.359-2.33A2.533,2.533,0,0,0,15.954,12Zm0,4.337a1.516,1.516,0,0,1-1.165-.518c-.065-.129-.194-.194-.259-.324l-.194-.388a1.262,1.262,0,0,1-.065-.518,1.425,1.425,0,0,1,.065-.518c.065-.129.065-.259.194-.388a1.136,1.136,0,0,1,.259-.324,1.621,1.621,0,0,1,1.165-.518,1.714,1.714,0,0,1,1.683,1.683,1.516,1.516,0,0,1-.518,1.165A1.233,1.233,0,0,1,15.954,16.337Z" transform="translate(-4.238 -4.039)" fill="#1e70b9"/>
      <path id="Path_13502" data-name="Path 13502" d="M19.247,25.207h-.129c-.129,0-.194-.065-.324-.129a.894.894,0,0,1-.194-.259c0-.065-.065-.129-.065-.194a2.4,2.4,0,0,0-2.265-1.553H13.422a2.431,2.431,0,0,0-2.2,1.424c-.065.065-.065.194-.129.324a.226.226,0,0,1-.065.129.537.537,0,0,1-.518.194c-.065,0-.065,0-.129-.065h0a3106.327,3106.327,0,0,0-.129-.129.532.532,0,0,1-.065-.453c0-.065.065-.194.065-.259a1.043,1.043,0,0,1,.259-.453A3.319,3.319,0,0,1,13.422,22.1H16.27a3.337,3.337,0,0,1,2.977,1.812c.065.129.129.324.194.453h0c0,.065,0,.065.065.129A.524.524,0,0,1,19.247,25.207Z" transform="translate(-3.13 -7.601)" fill="#1e70b9"/>
    </g>
  </g>
</svg>
