<svg xmlns="http://www.w3.org/2000/svg" width="37" height="35" viewBox="0 0 37 35">
  <g id="Group_1406" data-name="Group 1406" transform="translate(935.545 -550.748)">
    <path id="Path_2141" data-name="Path 2141" d="M17.306,15.248h20.1a3.378,3.378,0,0,1,3.35,3.406v23.84A3.379,3.379,0,0,1,37.41,45.9h-20.1a3.38,3.38,0,0,1-3.351-3.406V18.654a3.379,3.379,0,0,1,3.351-3.406" transform="translate(-949 536)" fill="#fff"/>
    <path id="Rectangle_600" data-name="Rectangle 600" d="M3.351,0h20.1a3.35,3.35,0,0,1,3.35,3.35V27.3a3.351,3.351,0,0,1-3.351,3.351H3.351A3.351,3.351,0,0,1,0,27.3V3.351A3.351,3.351,0,0,1,3.351,0Z" transform="translate(-935.045 551.248)" fill="none" stroke="#1e70b9" stroke-miterlimit="10" stroke-width="1"/>
    <path id="Path_2142" data-name="Path 2142" d="M22.332,21.949H32.384a1.675,1.675,0,0,1,1.675,1.675V25.3a1.675,1.675,0,0,1-1.675,1.675H22.332A1.675,1.675,0,0,1,20.657,25.3V23.624a1.675,1.675,0,0,1,1.675-1.675" transform="translate(-948.902 536.117)" fill="#fff"/>
    <rect id="Rectangle_601" data-name="Rectangle 601" width="13.402" height="5.026" rx="1.675" transform="translate(-928.245 558.066)" fill="none" stroke="#1e70b9" stroke-miterlimit="10" stroke-width="1"/>
    <line id="Line_509" data-name="Line 509" x2="3.362" transform="translate(-930.057 569.949)" fill="none" stroke="#1e70b9" stroke-miterlimit="10" stroke-width="1"/>
    <line id="Line_510" data-name="Line 510" x2="3.362" transform="translate(-923.205 569.966)" fill="none" stroke="#1e70b9" stroke-miterlimit="10" stroke-width="1"/>
    <line id="Line_511" data-name="Line 511" x2="3.362" transform="translate(-923.205 569.966)" fill="none" stroke="#1e70b9" stroke-miterlimit="10" stroke-width="1"/>
    <line id="Line_512" data-name="Line 512" x2="3.362" transform="translate(-916.436 569.873)" fill="none" stroke="#1e70b9" stroke-miterlimit="10" stroke-width="1"/>
    <line id="Line_513" data-name="Line 513" x2="3.362" transform="translate(-930.057 575.05)" fill="none" stroke="#1e70b9" stroke-miterlimit="10" stroke-width="1"/>
    <line id="Line_514" data-name="Line 514" x2="3.362" transform="translate(-923.205 575.067)" fill="none" stroke="#1e70b9" stroke-miterlimit="10" stroke-width="1"/>
    <line id="Line_515" data-name="Line 515" x2="3.362" transform="translate(-916.436 574.973)" fill="none" stroke="#1e70b9" stroke-miterlimit="10" stroke-width="1"/>
    <path id="Path_2143" data-name="Path 2143" d="M49.628,38.627A10.125,10.125,0,1,1,39.5,28.5,10.125,10.125,0,0,1,49.628,38.627" transform="translate(-948.673 536.496)" fill="#fff"/>
    <circle id="Ellipse_205" data-name="Ellipse 205" cx="10.125" cy="10.125" r="10.125" transform="translate(-919.295 564.998)" fill="none" stroke="#1e70b9" stroke-miterlimit="10" stroke-width="1"/>
    <path id="Path_2144" data-name="Path 2144" d="M39.51,37.908A1.187,1.187,0,1,1,38.323,39.1a1.187,1.187,0,0,1,1.187-1.187" transform="translate(-948.761 536.361)" fill="#fff"/>
    <circle id="Ellipse_206" data-name="Ellipse 206" cx="1.187" cy="1.187" r="1.187" transform="translate(-910.437 574.269)" fill="none" stroke="#1e70b9" stroke-miterlimit="10" stroke-width="1"/>
    <line id="Line_516" data-name="Line 516" y1="3.074" x2="3.074" transform="translate(-907.543 570.659)" fill="#fff"/>
    <line id="Line_517" data-name="Line 517" y1="3.074" x2="3.074" transform="translate(-907.543 570.659)" fill="none" stroke="#1e70b9" stroke-miterlimit="10" stroke-width="1"/>
    <path id="Path_2145" data-name="Path 2145" d="M36.087,34.247a5.907,5.907,0,0,1,1.844-.874" transform="translate(-948.786 536.276)" fill="#fff"/>
    <path id="Path_2146" data-name="Path 2146" d="M36.087,34.247a5.907,5.907,0,0,1,1.844-.874" transform="translate(-948.786 536.276)" fill="none" stroke="#1e70b9" stroke-miterlimit="10" stroke-width="1"/>
    <path id="Path_2147" data-name="Path 2147" d="M33.576,39.1a5.909,5.909,0,0,1,.7-2.8" transform="translate(-948.817 536.34)" fill="#fff"/>
    <path id="Path_2148" data-name="Path 2148" d="M33.576,39.1a5.909,5.909,0,0,1,.7-2.8" transform="translate(-948.817 536.34)" fill="none" stroke="#1e70b9" stroke-miterlimit="10" stroke-width="1"/>
    <path id="Path_2149" data-name="Path 2149" d="M42.44,33.955a5.879,5.879,0,0,0-2.188-.743" transform="translate(-948.743 536.272)" fill="none" stroke="#1e70b9" stroke-miterlimit="10" stroke-width="1"/>
    <path id="Path_2150" data-name="Path 2150" d="M45.407,39.1a5.915,5.915,0,0,0-.544-2.486" transform="translate(-948.673 536.342)" fill="none" stroke="#1e70b9" stroke-miterlimit="10" stroke-width="1"/>
  </g>
</svg>
