<svg xmlns="http://www.w3.org/2000/svg" width="41" height="41" viewBox="0 0 41 41">
  <g id="convert_to_jpg" data-name="convert to jpg" transform="translate(-286 -119.333)">
    <g id="Group_2060" data-name="Group 2060" transform="translate(286.5 119.833)">
      <g id="Group_2058" data-name="Group 2058">
        <g id="Group_2057" data-name="Group 2057">
          <g id="Group_2055" data-name="Group 2055">
            <rect id="Rectangle_422" data-name="Rectangle 422" width="27.333" height="27.333" rx="2.5" fill="#fff" stroke="#1e70b9" stroke-miterlimit="10" stroke-width="1"/>
            <rect id="Rectangle_423" data-name="Rectangle 423" width="27.333" height="27.333" rx="2.5" transform="translate(12.667 12.667)" fill="#fff" stroke="#1e70b9" stroke-miterlimit="10" stroke-width="1"/>
          </g>
          <g id="Group_2056" data-name="Group 2056" transform="translate(4.528 4.528)">
            <line id="Line_90" data-name="Line 90" x2="7.272" y2="7.272" fill="#fff" stroke="#1e70b9" stroke-linecap="round" stroke-miterlimit="10" stroke-width="1"/>
            <path id="Path_1493" data-name="Path 1493" d="M297.109,126.78v3.662h-3.662" transform="translate(-289.838 -123.171)" fill="none" stroke="#1e70b9" stroke-linecap="round" stroke-linejoin="round" stroke-width="1"/>
          </g>
        </g>
      </g>
      <g id="Group_2059" data-name="Group 2059" transform="translate(18.327 23.403)">
        <path id="Path_1494" data-name="Path 1494" d="M306.445,140.456a.592.592,0,0,0-.593.59v3.561c0,.7-.321,1.115-.859,1.115a1.1,1.1,0,0,1-.983-.556.553.553,0,0,0-.429-.206.592.592,0,0,0-.583.583.57.57,0,0,0,.146.387,2.183,2.183,0,0,0,1.831.918,2.027,2.027,0,0,0,1.45-.553,2.335,2.335,0,0,0,.6-1.7v-3.553A.589.589,0,0,0,306.445,140.456Z" transform="translate(-302.999 -140.399)" fill="#1e70b9"/>
        <path id="Path_1495" data-name="Path 1495" d="M309.71,140.491h-1.829a.6.6,0,0,0-.586.592v5.127a.589.589,0,1,0,1.178,0v-1.476h1.13a2.233,2.233,0,0,0,2.519-2.159A2.122,2.122,0,0,0,309.71,140.491Zm1.229,2.125c0,.608-.515,1-1.312,1h-1.153v-2h1.188C310.486,141.616,310.939,141.971,310.939,142.616Z" transform="translate(-302.262 -140.393)" fill="#1e70b9"/>
        <path id="Path_1496" data-name="Path 1496" d="M316.926,143.18h-1.846a.555.555,0,0,0,0,1.109h1.279v1.034a2.478,2.478,0,0,1-1.394.44,1.966,1.966,0,0,1-2.008-2.14,1.989,1.989,0,0,1,1.919-2.092,2.186,2.186,0,0,1,1.433.472.6.6,0,0,0,.363.136.589.589,0,0,0,.585-.592.6.6,0,0,0-.241-.474,3.309,3.309,0,0,0-2.116-.667,3.155,3.155,0,0,0-3.144,3.233v.016a3.063,3.063,0,0,0,3.185,3.217,3.759,3.759,0,0,0,2.23-.742.72.72,0,0,0,.339-.614v-1.747A.6.6,0,0,0,316.926,143.18Z" transform="translate(-301.498 -140.407)" fill="#1e70b9"/>
      </g>
    </g>
  </g>
</svg>
