<svg xmlns="http://www.w3.org/2000/svg" width="37" height="35" viewBox="0 0 37 35">
  <g id="CPM_Calculator" data-name="CPM Calculator" transform="translate(933.162 -653.845)">
    <path id="Path_2208" data-name="Path 2208" d="M19.689,16.345h20.1a3.378,3.378,0,0,1,3.35,3.406v23.84A3.379,3.379,0,0,1,39.793,47h-20.1a3.38,3.38,0,0,1-3.351-3.406V19.751a3.379,3.379,0,0,1,3.351-3.406" transform="translate(-949 638)" fill="#fff"/>
    <path id="Rectangle_626" data-name="Rectangle 626" d="M3.351,0h20.1a3.35,3.35,0,0,1,3.35,3.35V27.3a3.351,3.351,0,0,1-3.351,3.351H3.351A3.351,3.351,0,0,1,0,27.3V3.351A3.351,3.351,0,0,1,3.351,0Z" transform="translate(-932.662 654.345)" fill="none" stroke="#1e70b9" stroke-miterlimit="10" stroke-width="1"/>
    <path id="Path_2209" data-name="Path 2209" d="M24.715,23.047H34.767a1.675,1.675,0,0,1,1.675,1.675V26.4a1.675,1.675,0,0,1-1.675,1.675H24.715A1.675,1.675,0,0,1,23.04,26.4V24.722a1.675,1.675,0,0,1,1.675-1.675" transform="translate(-948.902 638.117)" fill="#fff"/>
    <rect id="Rectangle_627" data-name="Rectangle 627" width="13.402" height="5.026" rx="1.675" transform="translate(-925.862 661.163)" fill="none" stroke="#1e70b9" stroke-miterlimit="10" stroke-width="1"/>
    <line id="Line_566" data-name="Line 566" x2="3.362" transform="translate(-927.674 673.047)" fill="none" stroke="#1e70b9" stroke-miterlimit="10" stroke-width="1"/>
    <line id="Line_567" data-name="Line 567" x2="3.362" transform="translate(-920.822 673.064)" fill="none" stroke="#1e70b9" stroke-miterlimit="10" stroke-width="1"/>
    <line id="Line_568" data-name="Line 568" x2="3.362" transform="translate(-920.822 673.064)" fill="none" stroke="#1e70b9" stroke-miterlimit="10" stroke-width="1"/>
    <line id="Line_569" data-name="Line 569" x2="3.362" transform="translate(-914.052 672.97)" fill="none" stroke="#1e70b9" stroke-miterlimit="10" stroke-width="1"/>
    <line id="Line_570" data-name="Line 570" x2="3.362" transform="translate(-927.674 678.147)" fill="none" stroke="#1e70b9" stroke-miterlimit="10" stroke-width="1"/>
    <line id="Line_571" data-name="Line 571" x2="3.362" transform="translate(-920.822 678.164)" fill="none" stroke="#1e70b9" stroke-miterlimit="10" stroke-width="1"/>
    <line id="Line_572" data-name="Line 572" x2="3.362" transform="translate(-914.052 678.07)" fill="none" stroke="#1e70b9" stroke-miterlimit="10" stroke-width="1"/>
    <path id="Path_2210" data-name="Path 2210" d="M52.011,39.724A10.125,10.125,0,1,1,41.886,29.6,10.125,10.125,0,0,1,52.011,39.724" transform="translate(-948.673 638.496)" fill="#fff"/>
    <circle id="Ellipse_213" data-name="Ellipse 213" cx="10.125" cy="10.125" r="10.125" transform="translate(-916.912 668.095)" fill="none" stroke="#1e70b9" stroke-miterlimit="10" stroke-width="1"/>
    <line id="Line_573" data-name="Line 573" y1="5.73" x2="5.73" transform="translate(-908.669 673.878)" fill="#fff"/>
    <line id="Line_574" data-name="Line 574" y1="5.73" x2="5.73" transform="translate(-908.669 673.878)" fill="none" stroke="#1e70b9" stroke-linecap="round" stroke-miterlimit="10" stroke-width="1"/>
    <path id="Path_2211" data-name="Path 2211" d="M45.8,35.535l-3.386,9.377a.287.287,0,0,1-.521,0l-1.823-3.647-3.647-1.823a.287.287,0,0,1,0-.521L45.8,35.535" transform="translate(-948.751 638.496)" fill="none" stroke="#1e70b9" stroke-linecap="round" stroke-miterlimit="10" stroke-width="1"/>
  </g>
</svg>
