<svg xmlns="http://www.w3.org/2000/svg" width="41" height="41" viewBox="0 0 41 41">
  <g id="Dailymotion_Video_Downloader" data-name="Dailymotion Video Downloader" transform="translate(-202 -630)">
    <g id="Group_2441" data-name="Group 2441" transform="translate(202.5 630.5)">
      <g id="Group_2436" data-name="Group 2436">
        <rect id="Rectangle_557" data-name="Rectangle 557" width="34.783" height="34.783" rx="2.5" fill="#fff" stroke="#1e70b9" stroke-linecap="round" stroke-linejoin="round" stroke-width="1"/>
        <rect id="Rectangle_558" data-name="Rectangle 558" width="15.304" height="15.304" rx="2.5" transform="translate(24.696 24.696)" stroke-width="1" stroke="#1e70b9" stroke-linecap="round" stroke-linejoin="round" fill="#fff"/>
      </g>
      <g id="Group_2439" data-name="Group 2439" transform="translate(29.413 28.646)">
        <g id="Group_2438" data-name="Group 2438" transform="translate(0 4.468)">
          <g id="Group_2437" data-name="Group 2437">
            <path id="Path_1616" data-name="Path 1616" d="M234.106,659.475l-2.935,2.935-2.935-2.935" transform="translate(-228.236 -659.475)" fill="none" stroke="#1e70b9" stroke-linecap="round" stroke-linejoin="round" stroke-width="1"/>
          </g>
        </g>
        <line id="Line_225" data-name="Line 225" y1="7.403" transform="translate(2.935)" fill="none" stroke="#1e70b9" stroke-linecap="round" stroke-linejoin="round" stroke-width="1"/>
      </g>
      <g id="Group_2440" data-name="Group 2440" transform="translate(11.242 9.391)">
        <path id="Path_1617" data-name="Path 1617" d="M224.635,645.365v-.008h0v-6.64l-3.385.7v5.014a3.851,3.851,0,0,0-3.235-1.457,5.345,5.345,0,0,0-3.835,1.586,5.995,5.995,0,0,0,.171,8.806,5.217,5.217,0,0,0,3.6,1.35,4.455,4.455,0,0,0,3.407-1.35v1.286h3.278v-9.3m-5.935,6.3a2.841,2.841,0,1,1,2.678-2.785A2.716,2.716,0,0,1,218.7,651.653Z" transform="translate(-212.337 -638.717)" fill="#fff" stroke="#1e70b9" stroke-linecap="round" stroke-linejoin="round" stroke-width="1"/>
      </g>
    </g>
  </g>
</svg>
