<svg xmlns="http://www.w3.org/2000/svg" xmlns:xlink="http://www.w3.org/1999/xlink" width="29" height="29.5" viewBox="0 0 29 29.5">
  <defs>
    <filter id="Rectangle_429" x="0" y="0" width="29" height="29.5" filterUnits="userSpaceOnUse">
      <feOffset dy="2" input="SourceAlpha"/>
      <feGaussianBlur stdDeviation="0.5" result="blur"/>
      <feFlood flood-opacity="0.161"/>
      <feComposite operator="in" in2="blur"/>
      <feComposite in="SourceGraphic"/>
    </filter>
  </defs>
  <g id="Group_2070" data-name="Group 2070" transform="translate(-766.5 -22)">
    <g transform="matrix(1, 0, 0, 1, 766.5, 22)" filter="url(#Rectangle_429)">
      <rect id="Rectangle_429-2" data-name="Rectangle 429" width="26" height="26" rx="1" transform="translate(1.5)" fill="#fff"/>
    </g>
    <path id="ds-icon" d="M2695.759,337.464a.22.22,0,0,0-.2-.145h-.1l-.3.026c-.2.026-.391.051-.578.085a6.741,6.741,0,0,0-.843.179,9.06,9.06,0,0,0-.961.306,9.344,9.344,0,0,0-1.063.5c-.23.136-.46.272-.681.425a6.319,6.319,0,0,0-.544.391,8.315,8.315,0,0,0-.664.57c-.23.221-.451.451-.655.689a8.528,8.528,0,0,0-.579.766,7.5,7.5,0,0,0-.434.706c-.153.272-.289.553-.417.842a7.325,7.325,0,0,0-.315.851c-.094.281-.162.57-.23.859-.051.247-.094.493-.127.749-.017.162-.034.332-.043.493-.009.128-.009.238-.009.374v.57c0,.128.009.247.017.366.009.153.026.306.043.46a7.78,7.78,0,0,0,.179.97,8.583,8.583,0,0,0,.885,2.255,7.627,7.627,0,0,0,.681,1.047,9.125,9.125,0,0,0,1,1.14c.136.128.272.255.417.374a8.614,8.614,0,0,0,.953.7,9.5,9.5,0,0,0,1.115.613,8.018,8.018,0,0,0,.791.315,11.085,11.085,0,0,0,1.387.366,3.907,3.907,0,0,0,.425.06c.111.017.213.026.324.034s.221.017.34.017a.19.19,0,0,0,.153-.085.2.2,0,0,0,.043-.153V337.8a.054.054,0,0,1,0-.051v-.2C2695.767,337.515,2695.767,337.49,2695.759,337.464Zm-3.055,16.064a7.9,7.9,0,0,1,0-14.328Zm1.787.6c-.17-.034-.332-.085-.5-.119-.06-.017-.119-.034-.187-.051-.1-.008-.127-.051-.127-.153V338.945c0-.111.026-.153.145-.17a2.505,2.505,0,0,0,.493-.136c.085-.026.17-.017.256-.043s.06.051.06.1v15.29C2694.635,354.1,2694.644,354.158,2694.49,354.124Zm10.313-8.407h-5.173v-6.245a7.907,7.907,0,0,1,3.208,3.089.3.3,0,0,0,.272.162h.9a.255.255,0,0,0,.221-.1.271.271,0,0,0-.026-.255c-.025-.051-.06-.111-.085-.162a1.043,1.043,0,0,0-.068-.136,8.735,8.735,0,0,0-1.541-2.068,8.488,8.488,0,0,0-1.412-1.174,8.819,8.819,0,0,0-2.791-1.234c-.247-.06-.51-.111-.757-.162l-.161-.026a2.335,2.335,0,0,0-.341-.043,2.08,2.08,0,0,1-.323-.034.282.282,0,0,0-.256.051.288.288,0,0,0-.085.255c.017.264.009.536,0,.791-.008.153-.008.315-.008.468.008,1.71.008,3.446.008,5.122v2.017c0,.23.009.459.009.681v.051a.3.3,0,0,0,.085.238.235.235,0,0,0,.2.034.919.919,0,0,1,.263-.009h6.867c-.009.077-.017.162-.025.238-.034.247-.069.5-.119.749a8.093,8.093,0,0,1-.4,1.268,7.729,7.729,0,0,1-2.91,3.557c-.238.153-.486.3-.732.434v-3.25a.327.327,0,0,0-.076-.213.287.287,0,0,0-.213-.077h-.009c-1,.008-1.846.008-2.621,0h-.085a.285.285,0,0,0-.238.323V354.9a.579.579,0,0,1-.017.17.26.26,0,0,0,.264.349c.025.009.043.009.068.017l.094-.017c.4-.043.808-.094,1.216-.179a9.052,9.052,0,0,0,7.045-7.547,9.523,9.523,0,0,0,.094-1.634.144.144,0,0,0,0-.085.3.3,0,0,0-.341-.255Zm-6.331.043c0,.1-.025.111-.111.111-.247-.009-.493-.009-.731,0-.085,0-.119-.017-.119-.119v-7.028c0-.094,0-.136.127-.119.255.043.511.136.766.187.06.009.068.068.068.128Zm0,8.041c0,.094-.025.136-.127.153a3.611,3.611,0,0,0-.519.136c-.085.034-.17.026-.247.051s-.068-.06-.068-.1V351.01c0-.1.025-.145.127-.136.247.009.493,0,.731,0,.094,0,.111.026.1.111Z" transform="translate(-1915.085 -311.376)" fill="#ea5050"/>
  </g>
</svg>
