<svg xmlns="http://www.w3.org/2000/svg" width="42" height="42" viewBox="0 0 42 42">
  <g id="Group_3412" data-name="Group 3412" transform="translate(-770.279 -1222.279)">
    <path id="Path_1984" data-name="Path 1984" d="M5.6,0H36.4A5.6,5.6,0,0,1,42,5.6V36.4A5.6,5.6,0,0,1,36.4,42H5.6A5.6,5.6,0,0,1,0,36.4V5.6A5.6,5.6,0,0,1,5.6,0Z" transform="translate(770.279 1264.279) rotate(-90)"/>
    <g id="Group_1061" data-name="Group 1061" transform="translate(779.057 1234.984)">
      <g id="Group_1060" data-name="Group 1060">
        <path id="Path_575" data-name="Path 575" d="M101.716,241.688h7.755a7.815,7.815,0,0,1,5.79,2.474,8.721,8.721,0,0,1,0,12.06,7.815,7.815,0,0,1-5.79,2.474h-3.183l-.027-3.342h2.692a5.159,5.159,0,0,0,3.772-1.485,4.957,4.957,0,0,0,1.506-3.677,5.037,5.037,0,0,0-1.524-3.744,5.172,5.172,0,0,0-3.771-1.5h-3.931l.027,9.029h-3.316Z" transform="translate(-101.716 -241.688)" fill="#fff"/>
        <path id="Path_576" data-name="Path 576" d="M105.031,258.387h-3.316v-3.342h3.306Z" transform="translate(-101.716 -241.38)" fill="#fe0000"/>
        <path id="Path_577" data-name="Path 577" d="M117.175,258.7l.027-3.289h3.316A2.374,2.374,0,0,0,122.925,253a4.448,4.448,0,0,0-1.43-3.4q-1.432-1.337-2.8-2.621a8.49,8.49,0,0,1-1.5-5.294h3.316a7.557,7.557,0,0,0,1.471,4.893l2.728,2.568a5.268,5.268,0,0,1,1.5,3.851,5.659,5.659,0,0,1-5.7,5.7Z" transform="translate(-101.359 -241.688)" fill="#fff"/>
      </g>
    </g>
  </g>
</svg>
