<svg xmlns="http://www.w3.org/2000/svg" width="37" height="35" viewBox="0 0 37 35">
  <g id="Earnings_Per_Share_Calculator" data-name="Earnings Per Share Calculator" transform="translate(333.162 -551.845)">
    <path id="Path_2201" data-name="Path 2201" d="M19.689,16.345h20.1a3.378,3.378,0,0,1,3.35,3.406v23.84A3.379,3.379,0,0,1,39.793,47h-20.1a3.38,3.38,0,0,1-3.351-3.406V19.751a3.379,3.379,0,0,1,3.351-3.406" transform="translate(-349 536)" fill="#fff"/>
    <path id="Rectangle_620" data-name="Rectangle 620" d="M3.351,0h20.1a3.35,3.35,0,0,1,3.35,3.35V27.3a3.351,3.351,0,0,1-3.351,3.351H3.351A3.351,3.351,0,0,1,0,27.3V3.351A3.351,3.351,0,0,1,3.351,0Z" transform="translate(-332.662 552.345)" fill="none" stroke="#1e70b9" stroke-miterlimit="10" stroke-width="1"/>
    <path id="Path_2202" data-name="Path 2202" d="M24.715,23.047H34.767a1.675,1.675,0,0,1,1.675,1.675V26.4a1.675,1.675,0,0,1-1.675,1.675H24.715A1.675,1.675,0,0,1,23.04,26.4V24.722a1.675,1.675,0,0,1,1.675-1.675" transform="translate(-348.902 536.117)" fill="#fff"/>
    <rect id="Rectangle_621" data-name="Rectangle 621" width="13.402" height="5.026" rx="1.675" transform="translate(-325.862 559.163)" fill="none" stroke="#1e70b9" stroke-miterlimit="10" stroke-width="1"/>
    <line id="Line_554" data-name="Line 554" x2="3.362" transform="translate(-327.674 571.047)" fill="none" stroke="#1e70b9" stroke-miterlimit="10" stroke-width="1"/>
    <line id="Line_555" data-name="Line 555" x2="3.362" transform="translate(-320.822 571.064)" fill="none" stroke="#1e70b9" stroke-miterlimit="10" stroke-width="1"/>
    <line id="Line_556" data-name="Line 556" x2="3.362" transform="translate(-320.822 571.064)" fill="none" stroke="#1e70b9" stroke-miterlimit="10" stroke-width="1"/>
    <line id="Line_557" data-name="Line 557" x2="3.362" transform="translate(-314.052 570.97)" fill="none" stroke="#1e70b9" stroke-miterlimit="10" stroke-width="1"/>
    <line id="Line_558" data-name="Line 558" x2="3.362" transform="translate(-327.674 576.147)" fill="none" stroke="#1e70b9" stroke-miterlimit="10" stroke-width="1"/>
    <line id="Line_559" data-name="Line 559" x2="3.362" transform="translate(-320.822 576.164)" fill="none" stroke="#1e70b9" stroke-miterlimit="10" stroke-width="1"/>
    <line id="Line_560" data-name="Line 560" x2="3.362" transform="translate(-314.052 576.07)" fill="none" stroke="#1e70b9" stroke-miterlimit="10" stroke-width="1"/>
    <path id="Path_2203" data-name="Path 2203" d="M52.011,39.724A10.125,10.125,0,1,1,41.886,29.6,10.125,10.125,0,0,1,52.011,39.724" transform="translate(-348.673 536.496)" fill="#fff"/>
    <circle id="Ellipse_212" data-name="Ellipse 212" cx="10.125" cy="10.125" r="10.125" transform="translate(-316.912 566.095)" fill="none" stroke="#1e70b9" stroke-miterlimit="10" stroke-width="1"/>
    <path id="Path_2204" data-name="Path 2204" d="M37.478,39.555h1.445a.361.361,0,0,1,.361.361v2.168a.361.361,0,0,1-.361.361H37.478a.361.361,0,0,1-.361-.361V39.916a.361.361,0,0,1,.361-.361" transform="translate(-348.797 536.376)" fill="#fff"/>
    <rect id="Rectangle_622" data-name="Rectangle 622" width="2.167" height="2.89" rx="0.361" transform="translate(-311.68 575.931)" fill="none" stroke="#1e70b9" stroke-miterlimit="10" stroke-width="1"/>
    <path id="Path_2205" data-name="Path 2205" d="M41.164,38.11h1.445a.361.361,0,0,1,.361.361v3.613a.36.36,0,0,1-.361.361H41.164a.36.36,0,0,1-.361-.361V38.471a.361.361,0,0,1,.361-.361" transform="translate(-348.761 536.37)" fill="#fff"/>
    <rect id="Rectangle_623" data-name="Rectangle 623" width="2.167" height="4.335" rx="0.361" transform="translate(-307.959 574.48)" fill="none" stroke="#1e70b9" stroke-miterlimit="10" stroke-width="1"/>
    <path id="Path_2206" data-name="Path 2206" d="M44.849,36.664h1.445a.361.361,0,0,1,.361.361v5.058a.36.36,0,0,1-.361.361H44.849a.36.36,0,0,1-.361-.361V37.025a.361.361,0,0,1,.361-.361" transform="translate(-348.725 536.364)" fill="#fff"/>
    <rect id="Rectangle_624" data-name="Rectangle 624" width="2.167" height="5.78" rx="0.361" transform="translate(-304.238 573.028)" fill="none" stroke="#1e70b9" stroke-miterlimit="10" stroke-width="1"/>
    <line id="Line_561" data-name="Line 561" x2="9.456" transform="translate(-311.541 580.941)" fill="#fff"/>
    <line id="Line_562" data-name="Line 562" x2="9.456" transform="translate(-311.541 580.941)" fill="none" stroke="#1e70b9" stroke-linecap="round" stroke-miterlimit="10" stroke-width="1"/>
    <line id="Line_563" data-name="Line 563" x1="4.867" y2="2.729" transform="translate(-310.811 570.331)" fill="none" stroke="#1e70b9" stroke-linecap="round" stroke-miterlimit="10" stroke-width="1"/>
    <line id="Line_564" data-name="Line 564" y1="2.171" x2="0.611" transform="translate(-306.543 570.325)" fill="none" stroke="#1e70b9" stroke-linecap="round" stroke-miterlimit="10" stroke-width="1"/>
    <line id="Line_565" data-name="Line 565" x2="2.171" y2="0.611" transform="translate(-308.107 569.693)" fill="none" stroke="#1e70b9" stroke-linecap="round" stroke-miterlimit="10" stroke-width="1"/>
  </g>
</svg>
