<svg xmlns="http://www.w3.org/2000/svg" width="14" height="15.018" viewBox="0 0 14 15.018">
  <g id="Group_3230" data-name="Group 3230" transform="translate(-1558 -158.982)">
    <path id="Path_1997" data-name="Path 1997" d="M0,0H13" transform="translate(1558.5 173.5)" fill="none" stroke="#0a6cc3" stroke-linecap="round" stroke-width="1"/>
    <path id="pencil" d="M11.728,2.7,9.139.109a.37.37,0,0,0-.523,0L.109,8.616A.37.37,0,0,0,0,8.877v2.59a.37.37,0,0,0,.37.37H2.96a.37.37,0,0,0,.262-.108l8.507-8.507a.37.37,0,0,0,0-.523ZM2.806,11.1H.739V9.031l6.1-6.1L8.909,4.994l-6.1,6.1ZM9.432,4.471,7.366,2.4,8.877.893,10.944,2.96Z" transform="translate(1558.634 159.11)" fill="#0a6cc3" stroke="#0a6cc3" stroke-width="0.2"/>
  </g>
</svg>
