<svg xmlns="http://www.w3.org/2000/svg" width="41" height="41" viewBox="0 0 41 41">
  <g id="Facebook_Video_Downloader" data-name="Facebook Video Downloader" transform="translate(-202 -544.667)">
    <g id="Group_2411" data-name="Group 2411" transform="translate(202.5 545.167)">
      <g id="Group_2407" data-name="Group 2407">
        <rect id="Rectangle_549" data-name="Rectangle 549" width="34.783" height="34.783" rx="2.5" fill="#fff" stroke="#1e70b9" stroke-linecap="round" stroke-linejoin="round" stroke-width="1"/>
        <rect id="Rectangle_550" data-name="Rectangle 550" width="15.304" height="15.304" rx="2.5" transform="translate(24.696 24.696)" stroke-width="1" stroke="#1e70b9" stroke-linecap="round" stroke-linejoin="round" fill="#fff"/>
      </g>
      <g id="Group_2410" data-name="Group 2410" transform="translate(29.413 28.646)">
        <g id="Group_2409" data-name="Group 2409" transform="translate(0 4.468)">
          <g id="Group_2408" data-name="Group 2408">
            <path id="Path_1594" data-name="Path 1594" d="M234.106,574.142l-2.935,2.935-2.935-2.935" transform="translate(-228.236 -574.142)" fill="none" stroke="#1e70b9" stroke-linecap="round" stroke-linejoin="round" stroke-width="1"/>
          </g>
        </g>
        <line id="Line_221" data-name="Line 221" y1="7.403" transform="translate(2.935)" fill="none" stroke="#1e70b9" stroke-linecap="round" stroke-linejoin="round" stroke-width="1"/>
      </g>
    </g>
    <g id="Group_2413" data-name="Group 2413" transform="translate(214.378 552.844)">
      <g id="Group_2412" data-name="Group 2412">
        <path id="Path_1595" data-name="Path 1595" d="M219.7,571.313h-3.111a.944.944,0,0,1-.943-.943v-7.017h-1.815a.944.944,0,0,1-.943-.943V559.4a.943.943,0,0,1,.943-.942h1.815v-1.506a5.125,5.125,0,0,1,1.355-3.673,4.884,4.884,0,0,1,3.6-1.4l2.374,0a.944.944,0,0,1,.941.943v2.792a.944.944,0,0,1-.943.943h-1.6c-.487,0-.61.1-.638.128-.043.049-.095.19-.095.577v1.19h2.21a.945.945,0,0,1,.952.943v3.007a.944.944,0,0,1-.943.943h-2.218v7.017a.944.944,0,0,1-.943.943Zm-2.914-1.139h2.718v-7.33a.63.63,0,0,1,.629-.63h2.533V559.6h-2.534a.63.63,0,0,1-.629-.629v-1.7a1.6,1.6,0,0,1,1.872-1.843h1.4v-2.4l-2.175,0a3.6,3.6,0,0,0-3.816,3.931v2.016a.63.63,0,0,1-.63.629h-2.128v2.614h2.128a.63.63,0,0,1,.63.63Zm6.187-17.146Zm0,0" transform="translate(-212.893 -551.884)" fill="#1e70b9"/>
      </g>
    </g>
  </g>
</svg>
