<svg xmlns="http://www.w3.org/2000/svg" width="41" height="41" viewBox="0 0 41 41">
  <g id="Find_Facebook_ID" data-name="Find Facebook ID" transform="translate(-286 -374)">
    <g id="Group_2622" data-name="Group 2622" transform="translate(286.5 374.5)">
      <rect id="Rectangle_589" data-name="Rectangle 589" width="40" height="40" rx="2.5" fill="#fff" stroke="#1e70b9" stroke-miterlimit="10" stroke-width="1"/>
      <g id="Group_2621" data-name="Group 2621" transform="translate(14.487 10.286)">
        <g id="Group_2620" data-name="Group 2620">
          <path id="Path_1709" data-name="Path 1709" d="M305.987,402.929h-3.112a.943.943,0,0,1-.942-.943v-7.017h-1.816a.943.943,0,0,1-.942-.943v-3.007a.943.943,0,0,1,.942-.943h1.816v-1.505a5.125,5.125,0,0,1,1.355-3.673,4.882,4.882,0,0,1,3.6-1.4l2.373,0a.944.944,0,0,1,.941.943v2.792a.943.943,0,0,1-.942.943h-1.6c-.487,0-.611.1-.638.128-.043.049-.1.19-.1.577v1.19h2.211a.943.943,0,0,1,.951.943v3.007a.944.944,0,0,1-.942.943h-2.219v7.017a.944.944,0,0,1-.942.943Zm-2.915-1.139h2.718v-7.33a.631.631,0,0,1,.63-.63h2.533v-2.614h-2.533a.63.63,0,0,1-.63-.63v-1.7a1.6,1.6,0,0,1,1.873-1.843h1.4v-2.4l-2.176,0a3.6,3.6,0,0,0-3.816,3.931v2.015a.63.63,0,0,1-.629.63h-2.129v2.614h2.129a.63.63,0,0,1,.629.63Zm6.187-17.146Zm0,0" transform="translate(-299.176 -383.5)" fill="#1e70b9"/>
        </g>
      </g>
    </g>
  </g>
</svg>
