<svg xmlns="http://www.w3.org/2000/svg" width="26.815" height="34" viewBox="0 0 26.815 34">
  <g id="Flyer_Maker" transform="translate(0.6 1)">
    <g id="Group_3304" transform="translate(-0.6 -1)">
      <path id="Rectangle_805_-_Outline" d="M24.139-1H1.472A2.1,2.1,0,0,0-.6,1.137v29.79A2.087,2.087,0,0,0,1.472,33H24.139a2.087,2.087,0,0,0,2.072-2.072V1.137A2.061,2.061,0,0,0,24.139-1ZM.371,30.928V1.137A1.161,1.161,0,0,1,1.537-.029H24.2A1.161,1.161,0,0,1,25.37,1.137v29.79A1.161,1.161,0,0,1,24.2,32.093H1.537A1.252,1.252,0,0,1,.371,30.928Z" transform="translate(0.6 1)" fill="#1e70b9"/>
      <path id="Path_13503" data-name="Path 13503" d="M17.24,6.1a5.44,5.44,0,1,0,5.44,5.44A5.473,5.473,0,0,0,17.24,6.1Zm0,10.427a4.922,4.922,0,1,1,0-9.844,5.176,5.176,0,0,1,3.5,1.425,4.783,4.783,0,0,1,1.425,3.5A4.962,4.962,0,0,1,17.24,16.527Z" transform="translate(-3.77 -1.502)" fill="#fff"/>
      <path id="Path_1949_-_Outline" d="M16.993,5.4A5.893,5.893,0,1,0,21.2,15.438a5.815,5.815,0,0,0,1.749-4.21A6,6,0,0,0,16.993,5.4Zm0,10.88a4.922,4.922,0,0,1,0-9.844,5.176,5.176,0,0,1,3.5,1.425,4.783,4.783,0,0,1,1.425,3.5A4.962,4.962,0,0,1,16.993,16.28Z" transform="translate(-3.523 -1.255)" fill="#1e70b9"/>
      <path id="Path_13504" data-name="Path 13504" d="M19.421,29.318a.511.511,0,0,1-.518.518H9.318a.518.518,0,1,1,0-1.036H18.9A.511.511,0,0,1,19.421,29.318Z" transform="translate(-2.712 -9.501)" fill="#1e70b9"/>
      <path id="Path_13505" data-name="Path 13505" d="M30.18,29.318a.511.511,0,0,1-.518.518H26.618a.518.518,0,1,1,0-1.036h3.044A.511.511,0,0,1,30.18,29.318Z" transform="translate(-8.809 -9.501)" fill="#1e70b9"/>
      <path id="Path_13506" data-name="Path 13506" d="M26.521,41.218a.511.511,0,0,1-.518.518H16.418a.518.518,0,1,1,0-1.036H26A.511.511,0,0,1,26.521,41.218Z" transform="translate(-5.214 -13.694)" fill="#1e70b9"/>
      <path id="Path_13507" data-name="Path 13507" d="M12.78,41.218a.511.511,0,0,1-.518.518H9.218a.518.518,0,1,1,0-1.036h3.044A.557.557,0,0,1,12.78,41.218Z" transform="translate(-2.677 -13.694)" fill="#1e70b9"/>
      <path id="Path_13508" data-name="Path 13508" d="M24.084,35.118a.511.511,0,0,1-.518.518H9.318a.518.518,0,1,1,0-1.036H23.63A.55.55,0,0,1,24.084,35.118Z" transform="translate(-2.712 -11.545)" fill="#1e70b9"/>
    </g>
  </g>
</svg>
