<svg xmlns="http://www.w3.org/2000/svg" width="41" height="33" viewBox="0 0 41 33">
  <g id="Get_HTTP_Headers" data-name="Get HTTP Headers" transform="translate(-33.724 -377.68)">
    <g id="Group_2364" data-name="Group 2364" transform="translate(34.224 378.18)">
      <g id="Group_2363" data-name="Group 2363" transform="translate(0)">
        <g id="Group_2361" data-name="Group 2361">
          <rect id="Rectangle_538" data-name="Rectangle 538" width="40" height="32" rx="2" fill="#fff" stroke="#1e70b9" stroke-linecap="round" stroke-linejoin="round" stroke-width="1"/>
        </g>
        <g id="Group_2362" data-name="Group 2362" transform="translate(2.587 2.132)">
          <circle id="Ellipse_126" data-name="Ellipse 126" cx="0.813" cy="0.813" r="0.813" fill="#1e70b9"/>
          <circle id="Ellipse_127" data-name="Ellipse 127" cx="0.813" cy="0.813" r="0.813" transform="translate(3.254)" fill="#1e70b9"/>
          <circle id="Ellipse_128" data-name="Ellipse 128" cx="0.813" cy="0.813" r="0.813" transform="translate(6.507)" fill="#1e70b9"/>
        </g>
        <line id="Line_200" data-name="Line 200" x2="39.449" transform="translate(0.276 6.07)" fill="none" stroke="#1e70b9" stroke-linecap="round" stroke-linejoin="round" stroke-width="1"/>
      </g>
    </g>
    <g id="Group_2365" data-name="Group 2365" transform="translate(42.379 394.362)">
      <path id="Path_1581" data-name="Path 1581" d="M45.811,392.189a.578.578,0,0,0-.577.578v1.7H42.9v-1.7a.573.573,0,1,0-1.146,0v4.544a.573.573,0,1,0,1.146,0V395.58h2.338v1.731a.573.573,0,1,0,1.146,0v-4.544A.576.576,0,0,0,45.811,392.189Z" transform="translate(-41.75 -392.153)" fill="#1e70b9"/>
      <path id="Path_1582" data-name="Path 1582" d="M49.973,392.22H46.468a.552.552,0,1,0,0,1.1h1.176v3.981a.577.577,0,0,0,1.155,0v-3.981h1.174a.553.553,0,0,0,.557-.548A.565.565,0,0,0,49.973,392.22Z" transform="translate(-41.102 -392.148)" fill="#1e70b9"/>
      <path id="Path_1583" data-name="Path 1583" d="M54.131,392.22H50.626a.565.565,0,0,0-.557.557.553.553,0,0,0,.557.548H51.8v3.981a.577.577,0,0,0,1.155,0v-3.981h1.176a.552.552,0,1,0,0-1.1Z" transform="translate(-40.455 -392.148)" fill="#1e70b9"/>
      <path id="Path_1584" data-name="Path 1584" d="M56.517,392.22H54.909a.575.575,0,0,0-.57.577v4.509a.573.573,0,1,0,1.146,0v-1.241h.938a2.012,2.012,0,0,0,2.271-1.954A1.919,1.919,0,0,0,56.517,392.22Zm-1.032,1.1h.989c.485,0,1.066.14,1.066.822,0,.5-.43.822-1.1.822h-.959Z" transform="translate(-39.79 -392.148)" fill="#1e70b9"/>
      <path id="Path_1585" data-name="Path 1585" d="M60.959,394.487c-1.142-.245-1.142-.475-1.142-.713,0-.309.322-.526.785-.526a1.841,1.841,0,0,1,1.136.383.539.539,0,0,0,.336.107.563.563,0,0,0,.563-.562.586.586,0,0,0-.244-.467,2.862,2.862,0,0,0-1.776-.551,1.785,1.785,0,0,0-1.948,1.682c0,1.161.925,1.521,1.925,1.738,1.083.229,1.083.456,1.083.691,0,.341-.336.57-.837.57a1.978,1.978,0,0,1-1.389-.514.542.542,0,0,0-.378-.149.567.567,0,0,0-.562.57.544.544,0,0,0,.224.45,3.245,3.245,0,0,0,2.084.735,1.8,1.8,0,0,0,2.013-1.731C62.832,395.043,61.831,394.676,60.959,394.487Z" transform="translate(-39.141 -392.158)" fill="#1e70b9"/>
    </g>
  </g>
</svg>
