<svg xmlns="http://www.w3.org/2000/svg" width="22.004" height="22.004" viewBox="0 0 22.004 22.004">
  <path id="global" d="M11,0A11,11,0,1,0,22,11,11.015,11.015,0,0,0,11,0Zm-.645,5.4A15.042,15.042,0,0,1,7.479,5c.148-.351.309-.688.482-1.007a5.567,5.567,0,0,1,2.4-2.562Zm0,1.29v3.667H6.331a16.2,16.2,0,0,1,.7-4.144A16.324,16.324,0,0,0,10.358,6.691Zm0,4.956v3.667a16.324,16.324,0,0,0-3.323.477,16.2,16.2,0,0,1-.7-4.144Zm0,4.957v3.973a5.567,5.567,0,0,1-2.4-2.562c-.173-.319-.334-.656-.482-1.007A15.04,15.04,0,0,1,10.358,16.6Zm1.289,0a15.042,15.042,0,0,1,2.879.4c-.148.351-.309.688-.482,1.007a5.567,5.567,0,0,1-2.4,2.562Zm0-1.29V11.647h4.027a16.2,16.2,0,0,1-.7,4.144A16.324,16.324,0,0,0,11.647,15.314Zm0-4.956V6.691a16.324,16.324,0,0,0,3.323-.477,16.2,16.2,0,0,1,.7,4.144Zm0-4.957V1.427a5.567,5.567,0,0,1,2.4,2.562c.173.319.334.656.482,1.007A15.042,15.042,0,0,1,11.647,5.4Zm3.53-2.026a9.788,9.788,0,0,0-1.043-1.567,9.725,9.725,0,0,1,3.439,2.048,12.182,12.182,0,0,1-1.8.778A13.062,13.062,0,0,0,15.177,3.374Zm-8.349,0a13.062,13.062,0,0,0-.6,1.259,12.2,12.2,0,0,1-1.8-.778A9.725,9.725,0,0,1,7.871,1.807,9.791,9.791,0,0,0,6.828,3.374ZM5.795,5.845a17.265,17.265,0,0,0-.754,4.512H1.311a9.667,9.667,0,0,1,2.2-5.537A13.261,13.261,0,0,0,5.795,5.845Zm-.754,5.8a17.264,17.264,0,0,0,.754,4.512,13.261,13.261,0,0,0-2.279,1.024,9.667,9.667,0,0,1-2.2-5.537Zm1.191,5.724a13.062,13.062,0,0,0,.6,1.259A9.8,9.8,0,0,0,7.871,20.2a9.722,9.722,0,0,1-3.438-2.048A12.182,12.182,0,0,1,6.231,17.371Zm8.946,1.259a13.062,13.062,0,0,0,.6-1.259,12.2,12.2,0,0,1,1.8.778A9.725,9.725,0,0,1,14.133,20.2,9.791,9.791,0,0,0,15.177,18.63Zm1.033-2.471a17.265,17.265,0,0,0,.754-4.512h3.729a9.667,9.667,0,0,1-2.2,5.537A13.261,13.261,0,0,0,16.21,16.159Zm.754-5.8a17.264,17.264,0,0,0-.754-4.512,13.261,13.261,0,0,0,2.279-1.024,9.667,9.667,0,0,1,2.2,5.537Zm0,0" fill="#ea5050"/>
</svg>
