<svg xmlns="http://www.w3.org/2000/svg" width="41" height="41" viewBox="0 0 41 41">
  <g id="Google_Cache_Checker" data-name="Google Cache Checker" transform="translate(-117.527 -204.667)">
    <g id="Group_2540" data-name="Group 2540" transform="translate(118.027 205.167)">
      <g id="Group_2539" data-name="Group 2539">
        <path id="Path_1670" data-name="Path 1670" d="M135.644,232.93c-9.727,0-17.617-2.822-17.617-6.3l.032,9.264h0c.538,3.307,8.205,5.928,17.584,5.928s17.048-2.62,17.585-5.928h0l.031-9.264c0,3.478-7.884,6.3-17.617,6.3Z" transform="translate(-118.027 -201.822)" fill="#fff" stroke="#1e70b9" stroke-miterlimit="10" stroke-width="1"/>
        <path id="Path_1671" data-name="Path 1671" d="M118.027,226.3v.369a2.719,2.719,0,0,1,.033-.369Z" transform="translate(-118.027 -202.144)" fill="#fff" stroke="#1e70b9" stroke-miterlimit="10" stroke-width="1"/>
        <path id="Path_1672" data-name="Path 1672" d="M149.7,226.3a2.149,2.149,0,0,1,.031.369V226.3Z" transform="translate(-114.495 -202.144)" fill="#fff" stroke="#1e70b9" stroke-miterlimit="10" stroke-width="1"/>
        <path id="Path_1673" data-name="Path 1673" d="M135.644,225c-9.727,0-17.617-2.819-17.617-6.3v9.264h.032c.538,3.308,8.205,5.932,17.584,5.932s17.048-2.624,17.585-5.932h.031V218.7c0,3.482-7.884,6.3-17.617,6.3Z" transform="translate(-118.027 -203.057)" fill="#fff" stroke="#1e70b9" stroke-miterlimit="10" stroke-width="1"/>
        <path id="Path_1674" data-name="Path 1674" d="M118.027,218.375v.368a2.734,2.734,0,0,1,.033-.368Z" transform="translate(-118.027 -203.278)" fill="#fff" stroke="#1e70b9" stroke-miterlimit="10" stroke-width="1"/>
        <path id="Path_1675" data-name="Path 1675" d="M149.7,218.375a2.155,2.155,0,0,1,.031.368v-.368Z" transform="translate(-114.495 -203.278)" fill="#fff" stroke="#1e70b9" stroke-miterlimit="10" stroke-width="1"/>
        <path id="Path_1676" data-name="Path 1676" d="M153.26,211.467c0,3.478-7.884,6.3-17.617,6.3s-17.617-2.822-17.617-6.3,7.89-6.3,17.617-6.3,17.617,2.819,17.617,6.3Z" transform="translate(-118.027 -205.167)" fill="#fff" stroke="#1e70b9" stroke-miterlimit="10" stroke-width="1"/>
        <path id="Path_1677" data-name="Path 1677" d="M135.644,217.081c-9.727,0-17.617-2.822-17.617-6.3v9.264h.032c.538,3.3,8.205,5.928,17.584,5.928s17.048-2.624,17.585-5.928h.031v-9.264c0,3.478-7.884,6.3-17.617,6.3Z" transform="translate(-118.027 -204.292)" fill="#fff" stroke="#1e70b9" stroke-miterlimit="10" stroke-width="1"/>
      </g>
      <circle id="Ellipse_161" data-name="Ellipse 161" cx="9.183" cy="9.183" r="9.183" transform="translate(21.634 20.576)" fill="#fff" stroke="#1e70b9" stroke-miterlimit="10" stroke-width="1"/>
      <path id="Path_1678" data-name="Path 1678" d="M142.421,232.092l2.022,2.022,5.54-5.54" transform="translate(-115.385 -201.744)" fill="none" stroke="#1e70b9" stroke-linecap="round" stroke-linejoin="round" stroke-width="1"/>
    </g>
  </g>
</svg>
