<svg xmlns="http://www.w3.org/2000/svg" width="31" height="41" viewBox="0 0 31 41">
  <g id="Grammar_checker" data-name="Grammar checker" transform="translate(-206.375 -34)">
    <g id="Group_1965" data-name="Group 1965" transform="translate(206.875 34.5)">
      <g id="Group_1963" data-name="Group 1963">
        <path id="Path_1449" data-name="Path 1449" d="M234.018,74.5H209.732a2.857,2.857,0,0,1-2.857-2.857V37.357a2.857,2.857,0,0,1,2.857-2.857h16.793a2.853,2.853,0,0,1,2.019.837l7.494,7.494a2.852,2.852,0,0,1,.837,2.019V71.643A2.857,2.857,0,0,1,234.018,74.5Z" transform="translate(-206.875 -34.5)" fill="#fff" stroke="#1e70b9" stroke-miterlimit="10" stroke-width="1"/>
        <path id="Path_1450" data-name="Path 1450" d="M223.49,37.885v7.133h7.133" transform="translate(-204.487 -34.022)" fill="none" stroke="#1e70b9" stroke-linecap="round" stroke-linejoin="round" stroke-width="1"/>
        <g id="Group_1962" data-name="Group 1962" transform="translate(5.869 30.584)">
          <g id="Group_1961" data-name="Group 1961">
            <g id="Group_1959" data-name="Group 1959" transform="translate(0 4.28)">
              <path id="Path_1451" data-name="Path 1451" d="M212,65c1.825,0,1.825,1.141,3.649,1.141S217.474,65,219.3,65s1.825,1.141,3.65,1.141S224.777,65,226.6,65s1.828,1.141,3.657,1.141" transform="translate(-212 -65)" fill="none" stroke="#1e70b9" stroke-linecap="round" stroke-miterlimit="10" stroke-width="1"/>
            </g>
            <g id="Group_1960" data-name="Group 1960">
              <path id="Path_1452" data-name="Path 1452" d="M212,61.25c1.825,0,1.825,1.141,3.649,1.141s1.825-1.141,3.65-1.141,1.825,1.141,3.65,1.141,1.828-1.141,3.656-1.141,1.828,1.141,3.657,1.141" transform="translate(-212 -61.25)" fill="none" stroke="#1e70b9" stroke-linecap="round" stroke-miterlimit="10" stroke-width="1"/>
            </g>
          </g>
        </g>
      </g>
      <g id="Group_1964" data-name="Group 1964" transform="translate(7.312 16.293)">
        <path id="Path_1453" data-name="Path 1453" d="M218.517,49.285a.778.778,0,0,0-.754-.534h-.051a.791.791,0,0,0-.764.528l-3.607,7.884a.737.737,0,0,0-.076.328.6.6,0,0,0,.6.6.638.638,0,0,0,.613-.427l.889-1.986h4.693l.889,1.959a.68.68,0,0,0,.625.454.626.626,0,0,0,.625-.625.79.79,0,0,0-.079-.314Zm1.019,5.194h-3.648l1.823-4.056Z" transform="translate(-213.264 -48.751)" fill="#1e70b9"/>
        <path id="Path_1454" data-name="Path 1454" d="M226.772,51.565a3.018,3.018,0,0,0-2.222-.766,5.293,5.293,0,0,0-2.2.455.588.588,0,0,0-.355.538.576.576,0,0,0,.574.563.677.677,0,0,0,.237-.05,3.923,3.923,0,0,1,1.642-.357c.827,0,1.812.286,1.812,1.648v.042a7.009,7.009,0,0,0-1.875-.235c-1.819,0-2.949.866-2.949,2.263v.025a2.35,2.35,0,0,0,2.593,2.187,3.014,3.014,0,0,0,2.231-.89V57.2a.594.594,0,0,0,.613.6.605.605,0,0,0,.612-.625V53.583A2.736,2.736,0,0,0,226.772,51.565Zm-.5,3.091v.527a1.838,1.838,0,0,1-2.054,1.636c-.727,0-1.509-.365-1.509-1.192,0-.761.664-1.216,1.776-1.216A6.7,6.7,0,0,1,226.274,54.656Z" transform="translate(-212.109 -48.462)" fill="#1e70b9"/>
      </g>
    </g>
  </g>
</svg>
