<svg xmlns="http://www.w3.org/2000/svg" width="37" height="35" viewBox="0 0 37 35">
  <g id="GST_Calculator" data-name="GST Calculator" transform="translate(735.679 -653.845)">
    <path id="Path_2219" data-name="Path 2219" d="M17.172,16.345h20.1a3.378,3.378,0,0,1,3.35,3.406v23.84A3.379,3.379,0,0,1,37.276,47h-20.1a3.38,3.38,0,0,1-3.351-3.406V19.751a3.379,3.379,0,0,1,3.351-3.406" transform="translate(-749 638)" fill="#fff"/>
    <path id="Rectangle_633" data-name="Rectangle 633" d="M3.351,0h20.1a3.35,3.35,0,0,1,3.35,3.35V27.3a3.351,3.351,0,0,1-3.351,3.351H3.351A3.351,3.351,0,0,1,0,27.3V3.351A3.351,3.351,0,0,1,3.351,0Z" transform="translate(-735.179 654.345)" fill="none" stroke="#1e70b9" stroke-miterlimit="10" stroke-width="1"/>
    <path id="Path_2220" data-name="Path 2220" d="M22.2,23.047H32.25a1.675,1.675,0,0,1,1.675,1.675V26.4a1.675,1.675,0,0,1-1.675,1.675H22.2A1.675,1.675,0,0,1,20.523,26.4V24.722A1.675,1.675,0,0,1,22.2,23.047" transform="translate(-748.902 638.117)" fill="#fff"/>
    <rect id="Rectangle_634" data-name="Rectangle 634" width="13.402" height="5.026" rx="1.675" transform="translate(-728.378 661.163)" fill="none" stroke="#1e70b9" stroke-miterlimit="10" stroke-width="1"/>
    <line id="Line_579" data-name="Line 579" x2="3.362" transform="translate(-730.191 673.047)" fill="none" stroke="#1e70b9" stroke-miterlimit="10" stroke-width="1"/>
    <line id="Line_580" data-name="Line 580" x2="3.362" transform="translate(-723.338 673.064)" fill="none" stroke="#1e70b9" stroke-miterlimit="10" stroke-width="1"/>
    <line id="Line_581" data-name="Line 581" x2="3.362" transform="translate(-723.338 673.064)" fill="none" stroke="#1e70b9" stroke-miterlimit="10" stroke-width="1"/>
    <line id="Line_582" data-name="Line 582" x2="3.362" transform="translate(-716.569 672.97)" fill="none" stroke="#1e70b9" stroke-miterlimit="10" stroke-width="1"/>
    <line id="Line_583" data-name="Line 583" x2="3.362" transform="translate(-730.191 678.147)" fill="none" stroke="#1e70b9" stroke-miterlimit="10" stroke-width="1"/>
    <line id="Line_584" data-name="Line 584" x2="3.362" transform="translate(-723.338 678.164)" fill="none" stroke="#1e70b9" stroke-miterlimit="10" stroke-width="1"/>
    <line id="Line_585" data-name="Line 585" x2="3.362" transform="translate(-716.569 678.07)" fill="none" stroke="#1e70b9" stroke-miterlimit="10" stroke-width="1"/>
    <path id="Path_2221" data-name="Path 2221" d="M49.494,39.724A10.125,10.125,0,1,1,39.369,29.6,10.125,10.125,0,0,1,49.494,39.724" transform="translate(-748.673 638.496)" fill="#fff"/>
    <circle id="Ellipse_215" data-name="Ellipse 215" cx="10.125" cy="10.125" r="10.125" transform="translate(-719.429 668.095)" fill="none" stroke="#1e70b9" stroke-miterlimit="10" stroke-width="1"/>
    <text id="GST" transform="translate(-715.698 680.811)" fill="#1e70b9" font-size="7.017" font-family="Gilroy-ExtraBold, Gilroy ☞" font-weight="800"><tspan x="0" y="0" letter-spacing="-0.024em">GS</tspan><tspan y="0">T</tspan></text>
  </g>
</svg>
