<svg xmlns="http://www.w3.org/2000/svg" width="41" height="33" viewBox="0 0 41 33">
  <g id="Website_Hit_Counter" data-name="Website Hit Counter" transform="translate(-202 -122.833)">
    <g id="Group_2319" data-name="Group 2319" transform="translate(202.5 123.333)">
      <g id="Group_2317" data-name="Group 2317">
        <g id="Group_2316" data-name="Group 2316">
          <g id="Group_2314" data-name="Group 2314">
            <rect id="Rectangle_510" data-name="Rectangle 510" width="40" height="32" rx="2" transform="translate(0 0)" stroke-width="1" stroke="#1e70b9" stroke-linecap="round" stroke-linejoin="round" fill="#fff"/>
          </g>
          <g id="Group_2315" data-name="Group 2315" transform="translate(2.286 2.286)">
            <circle id="Ellipse_120" data-name="Ellipse 120" cx="0.804" cy="0.804" r="0.804" fill="#1e70b9"/>
            <circle id="Ellipse_121" data-name="Ellipse 121" cx="0.804" cy="0.804" r="0.804" transform="translate(3.218)" fill="#1e70b9"/>
            <circle id="Ellipse_122" data-name="Ellipse 122" cx="0.804" cy="0.804" r="0.804" transform="translate(6.435)" fill="#1e70b9"/>
          </g>
          <line id="Line_185" data-name="Line 185" x2="40" transform="translate(0 6.18)" fill="none" stroke="#1e70b9" stroke-linecap="round" stroke-linejoin="round" stroke-width="1"/>
        </g>
      </g>
      <g id="Group_2318" data-name="Group 2318" transform="translate(6.286 12.233)">
        <rect id="Rectangle_511" data-name="Rectangle 511" width="27.428" height="13.714" fill="#fff" stroke="#1e70b9" stroke-linecap="round" stroke-linejoin="round" stroke-width="1"/>
        <line id="Line_186" data-name="Line 186" y2="13.714" transform="translate(9.143)" fill="#fff" stroke="#1e70b9" stroke-linecap="round" stroke-linejoin="round" stroke-width="1"/>
        <line id="Line_187" data-name="Line 187" y2="13.714" transform="translate(18.286)" fill="#fff" stroke="#1e70b9" stroke-linecap="round" stroke-linejoin="round" stroke-width="1"/>
        <path id="Path_1560" data-name="Path 1560" d="M212.314,137.328c-1.473,0-2.583,1.33-2.583,3.1v.016c0,1.785,1.08,3.081,2.568,3.081,1.469,0,2.577-1.338,2.577-3.112S213.8,137.328,212.314,137.328Zm1.434,3.112c0,1.011-.491,2.034-1.434,2.034s-1.456-1.065-1.456-2.065.495-2.034,1.441-2.034,1.449,1.056,1.449,2.049Z" transform="translate(-207.753 -133.567)" fill="#1e70b9"/>
        <path id="Path_1561" data-name="Path 1561" d="M220.333,137.233c-1.473,0-2.584,1.331-2.584,3.1v.017c0,1.785,1.08,3.08,2.568,3.08,1.469,0,2.577-1.337,2.577-3.112S221.818,137.233,220.333,137.233Zm1.434,3.113c0,1.01-.493,2.033-1.434,2.033s-1.457-1.064-1.457-2.065.495-2.034,1.441-2.034,1.45,1.056,1.45,2.049Z" transform="translate(-206.607 -133.581)" fill="#1e70b9"/>
        <path id="Path_1562" data-name="Path 1562" d="M229.84,137.343h-3.111a.574.574,0,0,0-.578.569.568.568,0,0,0,.578.57h2.193l-1.99,3.929a.888.888,0,0,0-.069.3.583.583,0,0,0,.6.577.6.6,0,0,0,.553-.376l2.289-4.6a.869.869,0,0,0,.118-.406A.555.555,0,0,0,229.84,137.343Z" transform="translate(-205.407 -133.565)" fill="#1e70b9"/>
      </g>
    </g>
  </g>
</svg>
