<svg xmlns="http://www.w3.org/2000/svg" width="41" height="41" viewBox="0 0 41 41">
  <g id="Htaccess_Redirect_Generator" data-name="Htaccess Redirect Generator" transform="translate(-286 -290)">
    <g id="Group_2359" data-name="Group 2359" transform="translate(286.5 290.5)">
      <rect id="Rectangle_537" data-name="Rectangle 537" width="40" height="40" rx="2.5" fill="#fff" stroke="#1e70b9" stroke-linecap="round" stroke-linejoin="round" stroke-width="1"/>
      <g id="Group_2358" data-name="Group 2358" transform="translate(7.716 7.114)">
        <path id="Path_1578" data-name="Path 1578" d="M296.414,310.33v-8.886A4.443,4.443,0,0,1,300.857,297h0a4.444,4.444,0,0,1,4.443,4.443v16.885a4.443,4.443,0,0,0,4.443,4.443h0a4.443,4.443,0,0,0,4.443-4.443v-8.886" transform="translate(-293.016 -297)" fill="none" stroke="#1e70b9" stroke-linecap="round" stroke-linejoin="round" stroke-width="1"/>
        <g id="Group_2356" data-name="Group 2356" transform="translate(17.773 12.442)">
          <path id="Path_1579" data-name="Path 1579" d="M308.686,311.019l3.4-3.4,3.4,3.4" transform="translate(-308.686 -307.621)" fill="none" stroke="#1e70b9" stroke-linecap="round" stroke-linejoin="round" stroke-width="1"/>
        </g>
        <g id="Group_2357" data-name="Group 2357" transform="translate(0 9.935)">
          <path id="Path_1580" data-name="Path 1580" d="M300.308,305.481l-3.4,3.4-3.4-3.4" transform="translate(-293.514 -305.481)" fill="none" stroke="#1e70b9" stroke-linecap="round" stroke-linejoin="round" stroke-width="1"/>
        </g>
      </g>
    </g>
  </g>
</svg>
