<svg xmlns="http://www.w3.org/2000/svg" width="19.307" height="14.48" viewBox="0 0 19.307 14.48">
  <g id="envelope" transform="translate(0 -64)">
    <g id="Group_2193" data-name="Group 2193" transform="translate(0 64)">
      <g id="Group_2192" data-name="Group 2192">
        <path id="Path_1538" data-name="Path 1538" d="M7.056,65.175c2.65,2.244,7.3,6.192,8.666,7.423a.807.807,0,0,0,1.168,0c1.368-1.232,6.017-5.18,8.667-7.425a.4.4,0,0,0,.057-.555A1.6,1.6,0,0,0,24.351,64H8.262A1.6,1.6,0,0,0,7,64.62.4.4,0,0,0,7.056,65.175Z" transform="translate(-6.653 -64)" fill="#1f2327"/>
        <path id="Path_1539" data-name="Path 1539" d="M19.073,126.449a.4.4,0,0,0-.429.058c-2.939,2.491-6.689,5.684-7.869,6.747a1.629,1.629,0,0,1-2.245,0c-1.258-1.133-5.469-4.713-7.868-6.747a.4.4,0,0,0-.662.307v10.115a1.61,1.61,0,0,0,1.609,1.609H17.7a1.61,1.61,0,0,0,1.609-1.609V126.814A.4.4,0,0,0,19.073,126.449Z" transform="translate(0 -124.058)" fill="#1f2327"/>
      </g>
    </g>
  </g>
</svg>
