<svg xmlns="http://www.w3.org/2000/svg" width="29" height="41" viewBox="0 0 29 41">
  <g id="Index_Pages_Checker" data-name="Index Pages Checker" transform="translate(-207.189 -204.667)">
    <g id="Group_2787" data-name="Group 2787" transform="translate(207.689 205.167)">
      <g id="Group_2766" data-name="Group 2766">
        <g id="Group_2765" data-name="Group 2765">
          <path id="Path_1746" data-name="Path 1746" d="M229.62,238.069H210a2.33,2.33,0,0,1-2.309-2.35v-28.2a2.33,2.33,0,0,1,2.309-2.35h13.569a2.289,2.289,0,0,1,1.633.688l6.054,6.163a2.37,2.37,0,0,1,.676,1.662v22.038A2.33,2.33,0,0,1,229.62,238.069Z" transform="translate(-207.689 -205.167)" fill="#fff" stroke="#1e70b9" stroke-miterlimit="10" stroke-width="1"/>
        </g>
      </g>
      <g id="Group_2786" data-name="Group 2786" transform="translate(3.76 7.097)">
        <g id="Group_2768" data-name="Group 2768">
          <g id="Group_2767" data-name="Group 2767">
            <path id="Path_1747" data-name="Path 1747" d="M232.876,244.581H213.254a2.33,2.33,0,0,1-2.309-2.35v-28.2a2.33,2.33,0,0,1,2.309-2.35h13.569a2.289,2.289,0,0,1,1.631.688l6.055,6.164a2.368,2.368,0,0,1,.676,1.662v22.038A2.33,2.33,0,0,1,232.876,244.581Z" transform="translate(-210.945 -211.678)" fill="#fff" stroke="#1e70b9" stroke-miterlimit="10" stroke-width="1"/>
            <path id="Path_1748" data-name="Path 1748" d="M224.468,214.434v5.875h5.875" transform="translate(-209.287 -211.251)" fill="none" stroke="#1e70b9" stroke-linecap="round" stroke-linejoin="round" stroke-width="1"/>
          </g>
        </g>
        <g id="Group_2785" data-name="Group 2785" transform="translate(3.542 16.921)">
          <g id="Group_2776" data-name="Group 2776">
            <rect id="Rectangle_623" data-name="Rectangle 623" width="4.7" height="4.7" rx="1" fill="#fff" stroke="#1e70b9" stroke-linecap="round" stroke-linejoin="round" stroke-width="1"/>
            <g id="Group_2775" data-name="Group 2775" transform="translate(6.712 1.29)">
              <g id="Group_2771" data-name="Group 2771">
                <g id="Group_2770" data-name="Group 2770">
                  <g id="Group_2769" data-name="Group 2769">
                    <line id="Line_339" data-name="Line 339" x2="10.444" fill="none" stroke="#1e70b9" stroke-linecap="round" stroke-miterlimit="10" stroke-width="1"/>
                  </g>
                </g>
              </g>
              <g id="Group_2774" data-name="Group 2774" transform="translate(0 2.121)">
                <g id="Group_2773" data-name="Group 2773">
                  <g id="Group_2772" data-name="Group 2772">
                    <line id="Line_340" data-name="Line 340" x2="7.165" fill="none" stroke="#1e70b9" stroke-linecap="round" stroke-miterlimit="10" stroke-width="1"/>
                  </g>
                </g>
              </g>
            </g>
          </g>
          <g id="Group_2784" data-name="Group 2784" transform="translate(0 7.521)">
            <rect id="Rectangle_624" data-name="Rectangle 624" width="4.7" height="4.7" rx="1" fill="#fff" stroke="#1e70b9" stroke-linecap="round" stroke-linejoin="round" stroke-width="1"/>
            <g id="Group_2783" data-name="Group 2783" transform="translate(6.712 1.29)">
              <g id="Group_2779" data-name="Group 2779">
                <g id="Group_2778" data-name="Group 2778">
                  <g id="Group_2777" data-name="Group 2777">
                    <line id="Line_341" data-name="Line 341" x2="10.444" fill="none" stroke="#1e70b9" stroke-linecap="round" stroke-miterlimit="10" stroke-width="1"/>
                  </g>
                </g>
              </g>
              <g id="Group_2782" data-name="Group 2782" transform="translate(0 2.121)">
                <g id="Group_2781" data-name="Group 2781">
                  <g id="Group_2780" data-name="Group 2780">
                    <line id="Line_342" data-name="Line 342" x2="7.165" fill="none" stroke="#1e70b9" stroke-linecap="round" stroke-miterlimit="10" stroke-width="1"/>
                  </g>
                </g>
              </g>
            </g>
          </g>
        </g>
      </g>
    </g>
  </g>
</svg>
