<svg xmlns="http://www.w3.org/2000/svg" width="41" height="41" viewBox="0 0 41 41">
  <g id="Instagram_Video_Downloader" data-name="Instagram Video Downloader" transform="translate(-118 -630)">
    <g id="Group_2433" data-name="Group 2433" transform="translate(118.5 630.5)">
      <g id="Group_2429" data-name="Group 2429">
        <rect id="Rectangle_555" data-name="Rectangle 555" width="34.783" height="34.783" rx="2.5" fill="#fff" stroke="#1e70b9" stroke-linecap="round" stroke-linejoin="round" stroke-width="1"/>
        <rect id="Rectangle_556" data-name="Rectangle 556" width="15.304" height="15.304" rx="2.5" transform="translate(24.696 24.696)" stroke-width="1" stroke="#1e70b9" stroke-linecap="round" stroke-linejoin="round" fill="#fff"/>
      </g>
      <g id="Group_2432" data-name="Group 2432" transform="translate(29.413 28.646)">
        <g id="Group_2431" data-name="Group 2431" transform="translate(0 4.468)">
          <g id="Group_2430" data-name="Group 2430">
            <path id="Path_1612" data-name="Path 1612" d="M150.106,659.475l-2.935,2.935-2.935-2.935" transform="translate(-144.236 -659.475)" fill="none" stroke="#1e70b9" stroke-linecap="round" stroke-linejoin="round" stroke-width="1"/>
          </g>
        </g>
        <line id="Line_224" data-name="Line 224" y1="7.403" transform="translate(2.935)" fill="none" stroke="#1e70b9" stroke-linecap="round" stroke-linejoin="round" stroke-width="1"/>
      </g>
    </g>
    <g id="Group_2434" data-name="Group 2434" transform="translate(128.549 640.549)">
      <path id="Path_1613" data-name="Path 1613" d="M134.183,642.456a3.7,3.7,0,1,0,2.643,1.085A3.611,3.611,0,0,0,134.183,642.456ZM136,648a2.565,2.565,0,1,1,.755-1.818A2.484,2.484,0,0,1,136,648Z" transform="translate(-126.841 -638.841)" fill="#1e70b9"/>
      <path id="Path_1614" data-name="Path 1614" d="M137.3,641.555a.8.8,0,0,0-.573.227.719.719,0,0,0-.237.55.816.816,0,0,0,.809.809.726.726,0,0,0,.552-.238.808.808,0,0,0,.224-.571.763.763,0,0,0-.776-.777Z" transform="translate(-125.979 -638.97)" fill="#1e70b9"/>
      <path id="Path_1615" data-name="Path 1615" d="M140.76,640.51a4.521,4.521,0,0,0-3.078-1.186c-.589-.021-1.615-.031-3.048-.031-1.462,0-2.459.01-3.049.032a4.4,4.4,0,0,0-3.057,1.2,4.455,4.455,0,0,0-1.17,3.029c-.043.62-.065,1.655-.065,3.08s.022,2.45.065,3.043a5.116,5.116,0,0,0,.115,1.149,4.612,4.612,0,0,0,.374,1.009,3.119,3.119,0,0,0,.678.9,4.494,4.494,0,0,0,3.063,1.173c.6.043,1.622.065,3.047.065s2.45-.022,3.045-.065a4.409,4.409,0,0,0,3.081-1.153,4.516,4.516,0,0,0,1.185-3.078c.021-.6.032-1.623.032-3.047s-.011-2.446-.032-3.048A4.52,4.52,0,0,0,140.76,640.51Zm.063,7.882c0,.237-.01.547-.034.951a9.939,9.939,0,0,1-.1,1,3.758,3.758,0,0,1-.17.7,2.619,2.619,0,0,1-1.473,1.473,3.628,3.628,0,0,1-.7.171,9.13,9.13,0,0,1-1,.1c-.406.024-.715.034-.952.034h-3.531c-.225,0-.529-.01-.935-.034-.175-.009-.313-.031-.471-.047l-.122-.011c-.134-.015-.289-.022-.41-.041a3.617,3.617,0,0,1-.695-.169,2.611,2.611,0,0,1-1.474-1.473,5.765,5.765,0,0,1-.138-.615c-.047-.259-.08-.5-.1-.721-.024-.235-.04-.521-.05-.85s-.017-.6-.017-.815v-3.184c0-.225.011-.53.034-.935a9.519,9.519,0,0,1,.1-1,3.652,3.652,0,0,1,.169-.7,2.49,2.49,0,0,1,1.475-1.475,3.643,3.643,0,0,1,.7-.17c.129-.021.295-.029.439-.043l.061-.007c.168-.016.318-.04.5-.049.406-.024.715-.035.951-.035h3.533c.224,0,.529.011.935.035a9.774,9.774,0,0,1,1,.1,3.672,3.672,0,0,1,.7.17,2.488,2.488,0,0,1,1.475,1.474,3.767,3.767,0,0,1,.17.7,10,10,0,0,1,.1,1c.024.406.034.715.034.951Z" transform="translate(-127.293 -639.293)" fill="#1e70b9"/>
    </g>
  </g>
</svg>
