<svg xmlns="http://www.w3.org/2000/svg" width="33.92" height="34" viewBox="0 0 33.92 34">
  <g id="Invitation_Maker" data-name="Invitation Maker" transform="translate(-0.05 0.1)">
    <g id="Invitation_Maker-2" data-name="Invitation_Maker" transform="translate(0.05 -0.1)">
      <g id="Group_3316">
        <path id="Path_13509" data-name="Path 13509" d="M33.2,17.019V35.234a4.109,4.109,0,0,1-4.149,4.019H3.449A4.109,4.109,0,0,1-.7,35.234V16.824h0A.487.487,0,0,1-.246,16.5a.238.238,0,0,1,.194.065.487.487,0,0,1,.324.454h0V35.364a3.133,3.133,0,0,0,3.176,2.917H29.054a3.181,3.181,0,0,0,3.176-2.917V17.019h0a.487.487,0,0,1,.324-.454c.065,0,.13-.065.194-.065a.487.487,0,0,1,.454.324h0Q33.2,16.921,33.2,17.019Z" transform="translate(0.7 -5.253)" fill="#1e70b9"/>
        <path id="Path_13510" data-name="Path 13510" d="M11.163,28.2a.5.5,0,0,1-.13.324l-.065.065L.272,39.225l-.13.13a.592.592,0,0,1-.324.194H-.246a.5.5,0,0,1-.324-.13A.337.337,0,0,1-.7,39.16V39.1a.5.5,0,0,1,.13-.324l.324-.389.519-.454,9.853-9.918.194-.194c.065-.065.13-.13.194-.13a.43.43,0,0,1,.454.13.491.491,0,0,1,.13.259C11.163,28.14,11.163,28.14,11.163,28.2Z" transform="translate(0.7 -9.179)" fill="#1e70b9"/>
        <path id="Path_13511" data-name="Path 13511" d="M45.1,38.826l-.713.713-.13-.194L33.5,28.713v-.065L34.148,28l.194.13,9.918,9.918.454.454Z" transform="translate(-11.33 -9.298)" fill="#707070"/>
        <path id="Path_13512" data-name="Path 13512" d="M45.163,39.079v.065a.491.491,0,0,1-.13.259.56.56,0,0,1-.389.194h-.065c-.13,0-.194-.065-.324-.13l-.13-.13-10.7-10.7v-.065a.476.476,0,0,1-.13-.389.337.337,0,0,1,.13-.259.5.5,0,0,1,.324-.13h.13c.065,0,.13.065.194.13l.194.194,9.918,9.853.519.454.324.324A1.1,1.1,0,0,1,45.163,39.079Z" transform="translate(-11.26 -9.228)" fill="#1e70b9"/>
        <path id="Path_1957" d="M19.979,1.581l-3.5-2.334a.394.394,0,0,0-.519,0l-3.5,2.334-.713.519-.713.519h1.685l1.491-.972,2.01-1.3,2.01,1.3.713.519.713.519h1.75Zm12.965,8.557L26.98,6.248l-.519-.324L25.943,5.6V6.767l.519.324.519.324,4.8,3.176-.519.324L26.98,13.768l-.519.324-.259.13h0l-.194.13-9.853,6.482L5.782,13.962l-.13-.065h0L5.329,13.7l-.519-.389-3.695-2.4L.6,10.592,4.81,7.8l.519-.324.519-.324V5.989l-.519.324-.519.324L-.506,10.2a.139.139,0,0,0-.13.13,1.1,1.1,0,0,0-.065.454h0c0,.065.065.13.13.194l.065.065.259.13.519.324,9.853,6.482.843.519,4.991,3.306a.39.39,0,0,0,.259.065c.13,0,.194,0,.259-.065L21.47,18.5l.843-.519,9.918-6.547.519-.324.259-.194.065-.065.065-.065.065-.065h0A.564.564,0,0,0,32.944,10.138Z" transform="translate(0.7 0.85)" fill="#1e70b9"/>
        <path id="Path_13513" data-name="Path 13513" d="M30.005,4.294V15.768h0a.556.556,0,0,1-.454.389h-.065c-.194,0-.324-.194-.389-.324V4.294a.306.306,0,0,0-.324-.324H9.2a.325.325,0,0,0-.389.324v11.02a.411.411,0,0,1-.324.389h-.13a.443.443,0,0,1-.454-.454V4.294A1.3,1.3,0,0,1,9.2,3H28.709A1.26,1.26,0,0,1,30.005,4.294Z" transform="translate(-2.325 -0.502)" fill="#1e70b9"/>
        <path id="Path_13514" data-name="Path 13514" d="M26.382,25.219a.511.511,0,0,1-.519.519H20.419a.519.519,0,1,1,0-1.037h5.445C26.188,24.765,26.382,24.959,26.382,25.219Z" transform="translate(-6.546 -8.137)" fill="#1e70b9"/>
        <path id="Path_13515" data-name="Path 13515" d="M27.917,21.319c0,.259-.13.454-.389.454H16.054a.423.423,0,0,1-.454-.454.511.511,0,0,1,.519-.519H27.463A.557.557,0,0,1,27.917,21.319Z" transform="translate(-5.034 -6.766)" fill="#1e70b9"/>
      </g>
    </g>
    <path id="Path_13516" data-name="Path 13516" d="M26.992,12.259c-.065.065-.13.194-.259.259a.509.509,0,0,1-.713,0,.5.5,0,0,1-.13-.324h0a.5.5,0,0,1,.13-.324c.065-.065.065-.13.13-.13a1.344,1.344,0,0,0-.259-1.88h0c-.065-.065-.13-.065-.194-.13a.921.921,0,0,0-.389-.13,1.4,1.4,0,0,0-1.1.324.9.9,0,0,0-.194.259.574.574,0,0,1-.713.13c-.065,0-.065-.065-.065-.13l-.13-.13a2.744,2.744,0,0,0-.454-.324A1.389,1.389,0,0,0,21.157,12h0l.324.324,2.463,2.4h0a.226.226,0,0,1,.065.13.464.464,0,0,1-.713.583l-.583-.778-2.2-2.139a2.466,2.466,0,0,1-.648-2.334l.194-.389.389-.583h0a2.381,2.381,0,0,1,3.176-.194,2.43,2.43,0,0,1,2.917-.065A2.376,2.376,0,0,1,26.992,12.259Z" transform="translate(-6.943 -3.024)" fill="#1e70b9"/>
  </g>
</svg>
