<svg xmlns="http://www.w3.org/2000/svg" width="33" height="41" viewBox="0 0 33 41">
  <g id="IP_Location" data-name="IP Location" transform="translate(-121.589 -34)">
    <g id="Group_2679" data-name="Group 2679" transform="translate(122.089 34.5)">
      <g id="Group_2678" data-name="Group 2678">
        <path id="Path_1724" data-name="Path 1724" d="M154.089,57.551a16,16,0,1,1-16-15.872,15.937,15.937,0,0,1,16,15.872Zm0,0" transform="translate(-122.089 -33.425)" fill="#fff" stroke="#1e70b9" stroke-linecap="round" stroke-linejoin="round" stroke-width="1"/>
        <path id="Path_1725" data-name="Path 1725" d="M129.271,52.263a.478.478,0,0,1,.776-.259,4.814,4.814,0,0,0,2.586,1.187,2.812,2.812,0,0,0,1.894-.282c.909-.582.724-1.543,1.277-2.3,1.425-1.937,6.969-1.446,8.026.788.529,1.118-.443,1.868.158,3.618.535,1.563,1.5,1.535,1.73,2.754.413,2.224-2.436,4.33-2.754,4.563-.149.11-2.544,1.85-3.54,1.1-.635-.477-.1-1.515-.786-2.125-.729-.645-1.686.212-3.3,0-2.044-.264-4.107-2.019-4.17-3.618-.032-.793.447-1.066.215-1.757-.323-.959-1.414-.934-1.947-1.863a2.438,2.438,0,0,1-.16-1.812Zm0,0" transform="translate(-121.021 -32.427)" fill="#fff" stroke="#1e70b9" stroke-linecap="round" stroke-linejoin="round" stroke-width="1"/>
        <path id="Path_1726" data-name="Path 1726" d="M144.653,42.16c-.315,5.172-5.107,9.789-6.948,11.381a1.049,1.049,0,0,1-1.4-.025c-1.881-1.736-6.972-6.852-6.972-11.355a7.66,7.66,0,0,1,7.66-7.66c4.23,0,7.916,3.438,7.66,7.66Zm0,0" transform="translate(-120.999 -34.5)" fill="#fff" stroke="#1e70b9" stroke-linecap="round" stroke-linejoin="round" stroke-width="1"/>
      </g>
      <circle id="Ellipse_198" data-name="Ellipse 198" cx="2.603" cy="2.603" r="2.603" transform="translate(13.397 5.26)" stroke-width="1" stroke="#1e70b9" stroke-linecap="round" stroke-linejoin="round" fill="#fff"/>
    </g>
  </g>
</svg>
