<svg xmlns="http://www.w3.org/2000/svg" width="41" height="41" viewBox="0 0 41 41">
  <g id="JPG_To_PDF" data-name="JPG To PDF" transform="translate(-34 -204.667)">
    <g id="Group_2881" data-name="Group 2881" transform="translate(34.5 205.167)">
      <rect id="Rectangle_662" data-name="Rectangle 662" width="26.667" height="26.667" rx="2.5" fill="#fff" stroke="#1e70b9" stroke-miterlimit="10" stroke-width="1"/>
      <path id="Path_1770" data-name="Path 1770" d="M41,225.492a1.575,1.575,0,0,1-1.066-.462,1.817,1.817,0,0,1-.5-1.705,1.4,1.4,0,0,1,.6-.889,16.77,16.77,0,0,1,3.624-2.025A39.082,39.082,0,0,0,45.8,215.97a10.152,10.152,0,0,1-1.137-3.305,3.157,3.157,0,0,1,.106-1.422c.355-1.137,1.137-1.173,1.457-1.137.071,0,1.314.178,1.528,1.954a9.612,9.612,0,0,1-.817,3.873,12.33,12.33,0,0,0,2.771,3.27,16.392,16.392,0,0,1,4.015.462,1.518,1.518,0,0,1,.818.5,1.317,1.317,0,0,1,.248,1.386h0a1.47,1.47,0,0,1-.283.5,1.372,1.372,0,0,1-1.742.391,18.823,18.823,0,0,1-3.411-2.238,14.957,14.957,0,0,0-4.9,1.03c-.6,1.1-1.35,2.31-2.2,3.661a1.507,1.507,0,0,1-.675.568h0C41.323,225.457,41.146,225.492,41,225.492Zm1.742-3.589a13.4,13.4,0,0,0-2.1,1.314c-.106.107-.213.214-.213.32a.841.841,0,0,0,.285.782.5.5,0,0,0,.426.107h0a.293.293,0,0,0,.177-.178C41.82,223.432,42.319,222.65,42.745,221.9Zm8.279-1.705a19.956,19.956,0,0,0,2.133,1.279.34.34,0,0,0,.426-.106,1,1,0,0,0,.142-.249c.072-.177.072-.249-.035-.355a.685.685,0,0,0-.319-.177A13.41,13.41,0,0,0,51.024,220.2ZM46.4,217.035c-.355.817-.782,1.742-1.35,2.808a16.16,16.16,0,0,1,3.127-.64A17.805,17.805,0,0,1,46.4,217.035Zm-.355-5.969c-.142,0-.248.142-.354.462a2.111,2.111,0,0,0-.072.959,8.936,8.936,0,0,0,.6,2.062,7.1,7.1,0,0,0,.462-2.416c-.106-.96-.6-1.066-.64-1.066Z" transform="translate(-33.802 -204.462)" fill="#1e70b9"/>
      <rect id="Rectangle_663" data-name="Rectangle 663" width="26.667" height="26.667" rx="2.5" transform="translate(13.333 13.333)" fill="#fff" stroke="#1e70b9" stroke-miterlimit="10" stroke-width="1"/>
      <g id="Group_2880" data-name="Group 2880" transform="translate(23.119 23.119)">
        <line id="Line_359" data-name="Line 359" x1="7.094" y1="7.094" fill="#fff" stroke="#1e70b9" stroke-linecap="round" stroke-miterlimit="10" stroke-width="1"/>
        <path id="Path_1771" data-name="Path 1771" d="M54.73,228.969V225.4H58.3" transform="translate(-54.73 -225.396)" fill="none" stroke="#1e70b9" stroke-linecap="round" stroke-linejoin="round" stroke-width="1"/>
      </g>
    </g>
  </g>
</svg>
