<svg xmlns="http://www.w3.org/2000/svg" width="37" height="37" viewBox="0 0 37 37">
  <g id="Jpg_to_Word" data-name="Jpg to Word" transform="translate(-202 -204.667)">
    <g id="Group_62" data-name="Group 62" transform="translate(202.5 205.167)">
      <g id="Group_61" data-name="Group 61">
        <g id="Group_59" data-name="Group 59">
          <path id="Path_2071" data-name="Path 2071" d="M2.5,0H20.833a2.5,2.5,0,0,1,2.5,2.5V20.833a2.5,2.5,0,0,1-2.5,2.5H2.5a2.5,2.5,0,0,1-2.5-2.5V2.5A2.5,2.5,0,0,1,2.5,0Z" fill="#fff" stroke="#1e70b9" stroke-width="1"/>
          <g id="Group_1282" data-name="Group 1282" transform="translate(5.509 5.509)">
            <g id="Group_63" data-name="Group 63" transform="translate(0)">
              <rect id="Rectangle_21" data-name="Rectangle 21" width="12.789" height="12.789" rx="2" fill="#fff" stroke="#1e70b9" stroke-miterlimit="10" stroke-width="1"/>
            </g>
            <path id="Path_33" data-name="Path 33" d="M219.439,231.619l3.24-3.3,3.919,3.3,2.426-1.886,3.2,1.92" transform="translate(-219.439 -222.105)" fill="none" stroke="#1e70b9" stroke-linecap="round" stroke-linejoin="round" stroke-width="1"/>
            <circle id="Ellipse_2" data-name="Ellipse 2" cx="1.079" cy="1.079" r="1.079" transform="translate(8.179 2.549)" fill="none" stroke="#1e70b9" stroke-linecap="round" stroke-linejoin="round" stroke-width="1"/>
          </g>
          <rect id="Rectangle_20" data-name="Rectangle 20" width="23.333" height="23.333" rx="2.5" transform="translate(12.667 12.667)" fill="#fff" stroke="#1e70b9" stroke-miterlimit="10" stroke-width="1"/>
        </g>
      </g>
      <g id="Group_1280" data-name="Group 1280" transform="translate(26.041 2.127)">
        <path id="Path_2069" data-name="Path 2069" d="M0,3.84,1.92,1.92,0,0" transform="matrix(0.259, 0.966, -0.966, 0.259, 8.196, 4.139)" fill="none" stroke="#1e70b9" stroke-linecap="round" stroke-linejoin="round" stroke-width="1"/>
        <path id="Path_2070" data-name="Path 2070" d="M0,5.279A5.279,5.279,0,0,1,5.279,0h1.44" transform="matrix(0.259, 0.966, -0.966, 0.259, 5.099, 0)" fill="none" stroke="#1e70b9" stroke-linecap="round" stroke-linejoin="round" stroke-width="1"/>
      </g>
    </g>
    <g id="tabler-icon-letter-w" transform="translate(208.5 211.167)">
      <path id="Path_2074" data-name="Path 2074" d="M0,0H24V24H0Z" fill="none"/>
    </g>
    <path id="Path_2075" data-name="Path 2075" d="M4,4l3.5,9L11,5.125,14.5,13,18,4" transform="translate(216 220.767)" fill="none" stroke="#1e70b9" stroke-linecap="round" stroke-linejoin="round" stroke-width="1"/>
  </g>
</svg>
