<svg xmlns="http://www.w3.org/2000/svg" width="41" height="41" viewBox="0 0 41 41">
  <g id="jpg_to_png" data-name="jpg to png" transform="translate(-202 -204.667)">
    <g id="Group_2086" data-name="Group 2086" transform="translate(202.5 205.167)">
      <g id="Group_2085" data-name="Group 2085">
        <g id="Group_2084" data-name="Group 2084">
          <g id="Group_2082" data-name="Group 2082">
            <rect id="Rectangle_441" data-name="Rectangle 441" width="26.593" height="26.593" rx="2.5" fill="#fff" stroke="#1e70b9" stroke-miterlimit="10" stroke-width="1"/>
            <rect id="Rectangle_442" data-name="Rectangle 442" width="26.593" height="26.593" rx="2.5" transform="translate(13.407 13.407)" fill="#fff" stroke="#1e70b9" stroke-miterlimit="10" stroke-width="1"/>
          </g>
          <g id="Group_2083" data-name="Group 2083" transform="translate(4.406 4.406)">
            <line id="Line_92" data-name="Line 92" x2="7.075" y2="7.075" fill="#fff" stroke="#1e70b9" stroke-linecap="round" stroke-miterlimit="10" stroke-width="1"/>
            <path id="Path_1502" data-name="Path 1502" d="M213.01,212.114v3.563h-3.563" transform="translate(-205.935 -208.602)" fill="none" stroke="#1e70b9" stroke-linecap="round" stroke-linejoin="round" stroke-width="1"/>
          </g>
        </g>
      </g>
    </g>
    <g id="Group_2087" data-name="Group 2087" transform="translate(222.043 229.141)">
      <path id="Path_1503" data-name="Path 1503" d="M221.607,226.2h-1.478a.558.558,0,0,0-.555.561v4.143a.558.558,0,1,0,1.116,0V229.8h.832a1.881,1.881,0,0,0,2.118-1.827A1.792,1.792,0,0,0,221.607,226.2Zm.911,1.8c0,.533-.506.724-.978.724h-.85v-1.45h.878C222,227.28,222.518,227.406,222.518,228.006Z" transform="translate(-219.574 -226.125)" fill="#1e70b9"/>
      <path id="Path_1504" data-name="Path 1504" d="M227.425,226.176a.555.555,0,0,0-.555.554v2.641l-2.287-2.917a.614.614,0,0,0-.5-.266h-.073a.562.562,0,0,0-.555.555v4.176a.551.551,0,1,0,1.1,0v-2.733l2.357,3.012a.653.653,0,0,0,.523.262.533.533,0,0,0,.535-.541v-4.19A.552.552,0,0,0,227.425,226.176Z" transform="translate(-219.032 -226.129)" fill="#1e70b9"/>
      <path id="Path_1505" data-name="Path 1505" d="M232.129,228.376h-1.492a.531.531,0,0,0,0,1.062h.951v.709a1.909,1.909,0,0,1-1.043.317,1.632,1.632,0,0,1-.073-3.253,1.676,1.676,0,0,1,1.109.365.548.548,0,0,0,.588.064.56.56,0,0,0,.083-.949,2.757,2.757,0,0,0-1.761-.555,2.632,2.632,0,0,0-2.622,2.7v.014a2.581,2.581,0,0,0,2.657,2.682,3.111,3.111,0,0,0,1.849-.613.671.671,0,0,0,.309-.564v-1.411A.558.558,0,0,0,232.129,228.376Z" transform="translate(-218.415 -226.135)" fill="#1e70b9"/>
    </g>
  </g>
</svg>
