<svg xmlns="http://www.w3.org/2000/svg" width="31" height="41" viewBox="0 0 31 41">
  <g id="JSON_Beautifier" data-name="JSON Beautifier" transform="translate(-122.375 -119.333)">
    <g id="Group_2960" data-name="Group 2960" transform="translate(122.875 119.833)">
      <g id="Group_2958" data-name="Group 2958">
        <g id="Group_2957" data-name="Group 2957">
          <path id="Path_1799" data-name="Path 1799" d="M150.018,159.833H125.732a2.857,2.857,0,0,1-2.857-2.857V122.69a2.857,2.857,0,0,1,2.857-2.857h16.793a2.854,2.854,0,0,1,2.019.838l7.494,7.493a2.857,2.857,0,0,1,.837,2.021v26.792A2.857,2.857,0,0,1,150.018,159.833Z" transform="translate(-122.875 -119.833)" fill="#fff" stroke="#1e70b9" stroke-miterlimit="10" stroke-width="1"/>
          <path id="Path_1800" data-name="Path 1800" d="M139.49,123.219v7.143h7.143" transform="translate(-120.501 -119.349)" fill="none" stroke="#1e70b9" stroke-linecap="round" stroke-linejoin="round" stroke-width="1"/>
          <g id="Group_2956" data-name="Group 2956" transform="translate(5.56 31.143)">
            <line id="Line_385" data-name="Line 385" x2="18.88" transform="translate(0 4.286)" fill="none" stroke="#1e70b9" stroke-linecap="round" stroke-miterlimit="10" stroke-width="1"/>
            <line id="Line_386" data-name="Line 386" x2="11.737" transform="translate(7.143)" fill="none" stroke="#1e70b9" stroke-linecap="round" stroke-miterlimit="10" stroke-width="1"/>
            <line id="Line_387" data-name="Line 387" x2="3.165" fill="none" stroke="#1e70b9" stroke-linecap="round" stroke-miterlimit="10" stroke-width="1"/>
          </g>
        </g>
      </g>
      <g id="Group_2959" data-name="Group 2959" transform="translate(7.394 13.674)">
        <path id="Path_1801" data-name="Path 1801" d="M134.185,141.478l-1.276-3.564-3.564-1.276,3.564-1.276,1.276-3.564,1.276,3.564,3.564,1.276-3.564,1.276Z" transform="translate(-129.345 -131.798)" fill="#fff" stroke="#1e70b9" stroke-linejoin="round" stroke-width="1"/>
        <path id="Path_1802" data-name="Path 1802" d="M140.062,142.948l-.912-2.546-2.546-.912,2.546-.912.912-2.546.912,2.546,2.546.912-2.546.912Z" transform="translate(-128.308 -131.193)" fill="#fff" stroke="#1e70b9" stroke-linejoin="round" stroke-width="1"/>
      </g>
    </g>
  </g>
</svg>
