<svg xmlns="http://www.w3.org/2000/svg" width="31" height="41" viewBox="0 0 31 41">
  <g id="JSON_Validator" data-name="JSON Validator" transform="translate(-206.375 -34)">
    <g id="Group_2938" data-name="Group 2938" transform="translate(206.875 34.5)">
      <g id="Group_2937" data-name="Group 2937">
        <g id="Group_2936" data-name="Group 2936">
          <path id="Path_1790" data-name="Path 1790" d="M234.018,74.5H209.732a2.857,2.857,0,0,1-2.857-2.857V37.357a2.857,2.857,0,0,1,2.857-2.857h16.793a2.853,2.853,0,0,1,2.019.837l7.494,7.494a2.852,2.852,0,0,1,.837,2.019V71.643A2.857,2.857,0,0,1,234.018,74.5Z" transform="translate(-206.875 -34.5)" fill="#fff" stroke="#1e70b9" stroke-miterlimit="10" stroke-width="1"/>
          <path id="Path_1791" data-name="Path 1791" d="M223.49,37.885v7.143h7.143" transform="translate(-204.501 -34.016)" fill="none" stroke="#1e70b9" stroke-linecap="round" stroke-linejoin="round" stroke-width="1"/>
          <g id="Group_2935" data-name="Group 2935" transform="translate(5.56 31.143)">
            <line id="Line_375" data-name="Line 375" x2="18.88" transform="translate(0 4.286)" fill="none" stroke="#1e70b9" stroke-linecap="round" stroke-miterlimit="10" stroke-width="1"/>
            <line id="Line_376" data-name="Line 376" x2="11.737" transform="translate(7.143)" fill="none" stroke="#1e70b9" stroke-linecap="round" stroke-miterlimit="10" stroke-width="1"/>
            <line id="Line_377" data-name="Line 377" x2="3.165" fill="none" stroke="#1e70b9" stroke-linecap="round" stroke-miterlimit="10" stroke-width="1"/>
          </g>
        </g>
      </g>
      <path id="Path_1792" data-name="Path 1792" d="M215.747,55.041l2.6,2.6,7.122-7.122" transform="translate(-205.608 -32.212)" fill="none" stroke="#1e70b9" stroke-linecap="round" stroke-linejoin="round" stroke-width="1"/>
    </g>
  </g>
</svg>
