<svg xmlns="http://www.w3.org/2000/svg" width="31" height="41" viewBox="0 0 31 41">
  <g id="Keyword_Overview_Tool" data-name="Keyword Overview Tool" transform="translate(-206.375 -204.667)">
    <g id="Group_2163" data-name="Group 2163" transform="translate(206.875 205.167)">
      <path id="Path_1509" data-name="Path 1509" d="M234.018,245.167H209.732a2.857,2.857,0,0,1-2.857-2.857V208.024a2.857,2.857,0,0,1,2.857-2.857h16.793a2.852,2.852,0,0,1,2.019.837l7.494,7.493a2.857,2.857,0,0,1,.837,2.021V242.31A2.857,2.857,0,0,1,234.018,245.167Z" transform="translate(-206.875 -205.167)" fill="#fff" stroke="#1e70b9" stroke-miterlimit="10" stroke-width="1"/>
      <path id="Path_1510" data-name="Path 1510" d="M223.49,208.552v7.321h7.321" transform="translate(-204.777 -204.587)" fill="none" stroke="#1e70b9" stroke-linecap="round" stroke-linejoin="round" stroke-width="1"/>
      <g id="Group_2162" data-name="Group 2162" transform="translate(5.324 30.921)">
        <line id="Line_140" data-name="Line 140" x2="19.352" transform="translate(0 4.393)" fill="none" stroke="#1e70b9" stroke-linecap="round" stroke-miterlimit="10" stroke-width="1"/>
        <line id="Line_141" data-name="Line 141" x2="12.03" transform="translate(7.321)" fill="none" stroke="#1e70b9" stroke-linecap="round" stroke-miterlimit="10" stroke-width="1"/>
        <line id="Line_142" data-name="Line 142" x2="3.245" fill="none" stroke="#1e70b9" stroke-linecap="round" stroke-miterlimit="10" stroke-width="1"/>
      </g>
    </g>
    <g id="Group_2164" data-name="Group 2164" transform="translate(217.508 218.96)">
      <circle id="Ellipse_92" data-name="Ellipse 92" cx="4.367" cy="4.367" r="4.367" fill="#fff" stroke="#1e70b9" stroke-miterlimit="10" stroke-width="1"/>
      <line id="Line_143" data-name="Line 143" y2="5.167" transform="translate(4.367 8.733)" fill="#fff" stroke="#1e70b9" stroke-linecap="round" stroke-miterlimit="10" stroke-width="1"/>
    </g>
  </g>
</svg>
