<svg xmlns="http://www.w3.org/2000/svg" width="18" height="13" viewBox="0 0 18 13">
  <g id="korea" transform="translate(-8492 1260)">
    <rect id="Rectangle_2666" data-name="Rectangle 2666" width="18" height="13" rx="0.3" transform="translate(8492 -1260)" fill="#f5f5f5"/>
    <g id="south-korea_1_" data-name="south-korea (1)" transform="translate(8491.963 -1347.544)">
      <path id="Path_7063" data-name="Path 7063" d="M179.772,168.244a3.109,3.109,0,0,0-4.309.863,1.553,1.553,0,1,0,2.584,1.723,1.553,1.553,0,1,1,2.584,1.723,3.108,3.108,0,0,0-.86-4.309" transform="translate(-169.033 -76.65)" fill="#ff4b55"/>
      <path id="Path_7064" data-name="Path 7064" d="M168.323,207.038a1.553,1.553,0,1,0,2.584,1.723,1.553,1.553,0,1,1,2.584,1.723,3.106,3.106,0,1,1-5.168-3.446" transform="translate(-161.892 -114.581)" fill="#41479b"/>
      <g id="Group_2347" data-name="Group 2347" transform="translate(3.037 89.544)">
        <path id="Path_7065" data-name="Path 7065" d="M338.174,147.289l.565.849a.155.155,0,0,1-.043.215l-.143.1a.155.155,0,0,1-.216-.043l-.565-.848a.155.155,0,0,1,.043-.215l.144-.1A.155.155,0,0,1,338.174,147.289Z" transform="translate(-328.89 -146.414)" fill="#464655"/>
        <path id="Path_7066" data-name="Path 7066" d="M362.929,184.456l.566.848a.155.155,0,0,1-.044.216l-.144.1a.155.155,0,0,1-.215-.043l-.566-.847a.155.155,0,0,1,.043-.216l.143-.1A.155.155,0,0,1,362.929,184.456Z" transform="translate(-352.774 -182.272)" fill="#464655"/>
        <path id="Path_7067" data-name="Path 7067" d="M355.315,135.834l1.438,2.157a.155.155,0,0,1-.043.215l-.144.1a.155.155,0,0,1-.216-.043l-1.438-2.157a.155.155,0,0,1,.043-.216l.145-.1A.156.156,0,0,1,355.315,135.834Z" transform="translate(-345.427 -135.362)" fill="#464655"/>
        <path id="Path_7068" data-name="Path 7068" d="M372.453,124.39l.566.85a.155.155,0,0,1-.044.216l-.144.1a.155.155,0,0,1-.215-.043l-.566-.849a.155.155,0,0,1,.043-.216l.144-.1A.155.155,0,0,1,372.453,124.39Z" transform="translate(-361.962 -124.321)" fill="#464655"/>
        <path id="Path_7069" data-name="Path 7069" d="M397.233,161.632l.565.849a.155.155,0,0,1-.043.215l-.143.1a.155.155,0,0,1-.216-.043l-.565-.849a.155.155,0,0,1,.043-.215l.143-.1A.155.155,0,0,1,397.233,161.632Z" transform="translate(-385.87 -160.251)" fill="#464655"/>
        <path id="Path_7070" data-name="Path 7070" d="M120.974,292.086l1.437,2.155a.155.155,0,0,1-.043.215l-.144.1a.155.155,0,0,1-.216-.043l-1.437-2.155a.155.155,0,0,1,.043-.215l.144-.1A.155.155,0,0,1,120.974,292.086Z" transform="translate(-119.338 -286.112)" fill="#464655"/>
        <path id="Path_7071" data-name="Path 7071" d="M103.839,303.534l.564.846a.155.155,0,0,1-.043.215l-.143.1a.155.155,0,0,1-.216-.043l-.565-.846a.155.155,0,0,1,.043-.216l.144-.1A.155.155,0,0,1,103.839,303.534Z" transform="translate(-102.806 -297.157)" fill="#464655"/>
        <path id="Path_7072" data-name="Path 7072" d="M128.6,340.705l.565.849a.155.155,0,0,1-.043.215l-.144.1a.155.155,0,0,1-.216-.043l-.565-.848a.155.155,0,0,1,.043-.215l.144-.1A.155.155,0,0,1,128.6,340.705Z" transform="translate(-126.698 -333.02)" fill="#464655"/>
        <path id="Path_7073" data-name="Path 7073" d="M86.684,314.979l1.436,2.155a.155.155,0,0,1-.043.215l-.144.1a.155.155,0,0,1-.216-.043l-1.437-2.155a.155.155,0,0,1,.043-.216l.144-.1A.155.155,0,0,1,86.684,314.979Z" transform="translate(-86.255 -308.199)" fill="#464655"/>
        <path id="Path_7074" data-name="Path 7074" d="M120.579,149.443l1.437-2.157a.155.155,0,0,1,.216-.043l.144.1a.155.155,0,0,1,.043.215l-1.438,2.156a.155.155,0,0,1-.215.043l-.143-.095A.155.155,0,0,1,120.579,149.443Z" transform="translate(-119.345 -146.411)" fill="#464655"/>
        <path id="Path_7075" data-name="Path 7075" d="M103.432,138l1.437-2.157a.155.155,0,0,1,.216-.043l.144.1a.155.155,0,0,1,.043.215l-1.437,2.157a.155.155,0,0,1-.216.043l-.144-.1A.155.155,0,0,1,103.432,138Z" transform="translate(-102.802 -135.369)" fill="#464655"/>
        <path id="Path_7076" data-name="Path 7076" d="M86.277,126.554l1.438-2.159a.155.155,0,0,1,.216-.043l.144.1a.155.155,0,0,1,.043.215l-1.437,2.16a.155.155,0,0,1-.216.043l-.144-.1A.155.155,0,0,1,86.277,126.554Z" transform="translate(-86.251 -124.326)" fill="#464655"/>
        <path id="Path_7077" data-name="Path 7077" d="M337.775,330.105l.565-.846a.155.155,0,0,1,.216-.043l.143.1a.155.155,0,0,1,.043.215l-.564.846a.155.155,0,0,1-.216.043l-.144-.1A.155.155,0,0,1,337.775,330.105Z" transform="translate(-328.894 -321.976)" fill="#464655"/>
        <path id="Path_7078" data-name="Path 7078" d="M362.53,292.938l.566-.85a.155.155,0,0,1,.216-.043l.144.1a.155.155,0,0,1,.043.216l-.567.849a.155.155,0,0,1-.215.043l-.143-.095A.155.155,0,0,1,362.53,292.938Z" transform="translate(-352.777 -286.114)" fill="#464655"/>
        <path id="Path_7079" data-name="Path 7079" d="M354.911,341.551l.565-.849a.155.155,0,0,1,.216-.043l.145.1a.155.155,0,0,1,.043.215l-.565.849a.155.155,0,0,1-.216.043l-.145-.1A.156.156,0,0,1,354.911,341.551Z" transform="translate(-345.426 -333.017)" fill="#464655"/>
        <path id="Path_7080" data-name="Path 7080" d="M379.684,304.375l.566-.846a.156.156,0,0,1,.215-.043l.144.1a.155.155,0,0,1,.043.216l-.566.847a.155.155,0,0,1-.215.043l-.144-.1A.155.155,0,0,1,379.684,304.375Z" transform="translate(-369.327 -297.152)" fill="#464655"/>
        <path id="Path_7081" data-name="Path 7081" d="M372.052,352.979l.566-.847a.155.155,0,0,1,.215-.043l.144.1a.155.155,0,0,1,.044.216l-.566.848a.155.155,0,0,1-.216.043l-.144-.1A.155.155,0,0,1,372.052,352.979Z" transform="translate(-361.964 -344.045)" fill="#464655"/>
        <path id="Path_7082" data-name="Path 7082" d="M396.839,315.833l.565-.848a.155.155,0,0,1,.216-.043l.143.1a.155.155,0,0,1,.043.215l-.565.847a.155.155,0,0,1-.215.043l-.143-.095A.155.155,0,0,1,396.839,315.833Z" transform="translate(-385.879 -308.205)" fill="#464655"/>
      </g>
    </g>
  </g>
</svg>
