<svg xmlns="http://www.w3.org/2000/svg" width="41" height="27" viewBox="0 0 41 27">
  <g id="Link_Price_Calculator" data-name="Link Price Calculator" transform="translate(-34 -125.833)">
    <g id="Group_2224" data-name="Group 2224" transform="translate(34.5 126.333)">
      <g id="Group_2220" data-name="Group 2220">
        <path id="Path_1530" data-name="Path 1530" d="M74.5,131.06v16.545a4.65,4.65,0,0,0-4.571,4.727H39.071a4.65,4.65,0,0,0-4.571-4.727V131.06a4.65,4.65,0,0,0,4.571-4.727H69.929A4.65,4.65,0,0,0,74.5,131.06Z" transform="translate(-34.5 -126.333)" fill="#fff" stroke="#1e70b9" stroke-miterlimit="10" stroke-width="1"/>
        <path id="Path_1531" data-name="Path 1531" d="M68.332,132.808v12.171a3.4,3.4,0,0,0-3.322,3.477H42.591a3.4,3.4,0,0,0-3.322-3.477V132.808a3.4,3.4,0,0,0,3.322-3.477H65.01A3.4,3.4,0,0,0,68.332,132.808Z" transform="translate(-33.8 -125.893)" fill="#fff" stroke="#1e70b9" stroke-linejoin="round" stroke-width="1"/>
        <path id="Path_1532" data-name="Path 1532" d="M39.087,148.92h-1.72a2.868,2.868,0,0,1-2.867-2.867v-1.72A4.586,4.586,0,0,1,39.087,148.92Z" transform="translate(-34.5 -122.92)" fill="#fff" stroke="#1e70b9" stroke-miterlimit="10" stroke-width="1"/>
        <path id="Path_1533" data-name="Path 1533" d="M37.367,126.333h1.72A4.586,4.586,0,0,1,34.5,130.92V129.2A2.868,2.868,0,0,1,37.367,126.333Z" transform="translate(-34.5 -126.333)" fill="#fff" stroke="#1e70b9" stroke-miterlimit="10" stroke-width="1"/>
        <path id="Path_1534" data-name="Path 1534" d="M70.087,129.2v1.72a4.586,4.586,0,0,1-4.587-4.587h1.72A2.868,2.868,0,0,1,70.087,129.2Z" transform="translate(-30.087 -126.333)" fill="#fff" stroke="#1e70b9" stroke-miterlimit="10" stroke-width="1"/>
        <path id="Path_1535" data-name="Path 1535" d="M70.087,144.333v1.72a2.868,2.868,0,0,1-2.867,2.867H65.5A4.586,4.586,0,0,1,70.087,144.333Z" transform="translate(-30.087 -122.92)" fill="#fff" stroke="#1e70b9" stroke-miterlimit="10" stroke-width="1"/>
        <path id="Path_1536" data-name="Path 1536" d="M39.087,126.333A4.586,4.586,0,0,1,34.5,130.92V129.2a2.868,2.868,0,0,1,2.867-2.867Z" transform="translate(-34.5 -126.333)" fill="#fff" stroke="#1e70b9" stroke-miterlimit="10" stroke-width="1"/>
        <path id="Path_1537" data-name="Path 1537" d="M70.087,129.2v1.72a4.586,4.586,0,0,1-4.587-4.587h1.72A2.868,2.868,0,0,1,70.087,129.2Z" transform="translate(-30.087 -126.333)" fill="#fff" stroke="#1e70b9" stroke-miterlimit="10" stroke-width="1"/>
        <path id="Path_1538" data-name="Path 1538" d="M70.087,144.333v1.72a2.868,2.868,0,0,1-2.867,2.867H65.5A4.586,4.586,0,0,1,70.087,144.333Z" transform="translate(-30.087 -122.92)" fill="#fff" stroke="#1e70b9" stroke-miterlimit="10" stroke-width="1"/>
        <path id="Path_1539" data-name="Path 1539" d="M39.087,148.92h-1.72a2.868,2.868,0,0,1-2.867-2.867v-1.72A4.586,4.586,0,0,1,39.087,148.92Z" transform="translate(-34.5 -122.92)" fill="#fff" stroke="#1e70b9" stroke-miterlimit="10" stroke-width="1"/>
      </g>
      <g id="Group_2223" data-name="Group 2223" transform="translate(11.335 10.43)">
        <g id="Group_2222" data-name="Group 2222">
          <g id="Group_2221" data-name="Group 2221">
            <rect id="Rectangle_469" data-name="Rectangle 469" width="7.641" height="5.14" rx="2.241" transform="translate(9.689)" stroke-width="1" stroke="#1e70b9" stroke-linecap="round" stroke-linejoin="round" fill="#fff"/>
            <rect id="Rectangle_470" data-name="Rectangle 470" width="7.641" height="5.14" rx="2.241" fill="#fff" stroke="#1e70b9" stroke-linecap="round" stroke-linejoin="round" stroke-width="1"/>
          </g>
          <line id="Line_159" data-name="Line 159" x2="4.969" transform="translate(6.083 2.668)" fill="none" stroke="#1e70b9" stroke-linecap="round" stroke-linejoin="round" stroke-width="1"/>
        </g>
      </g>
    </g>
  </g>
</svg>
