<svg xmlns="http://www.w3.org/2000/svg" width="16" height="16" viewBox="0 0 16 16">
  <g id="link" transform="translate(-1.045)">
    <path id="Path_1466" data-name="Path 1466" d="M11.572,144.693a4.326,4.326,0,0,1,.79,1.119,4.081,4.081,0,0,1-.79,4.675l-3.523,3.556a4.1,4.1,0,0,1-5.794-5.794l2.5-2.5a4.667,4.667,0,0,0,.1,3L3.8,149.8a1.949,1.949,0,0,0,0,2.7,1.888,1.888,0,0,0,2.7,0l3.523-3.523a1.909,1.909,0,0,0-1.35-3.259l1.778-1.778A3.956,3.956,0,0,1,11.572,144.693Z" transform="translate(0 -139.253)" fill="#222"/>
    <path id="Path_1467" data-name="Path 1467" d="M131.173,10.56a4.326,4.326,0,0,1-.79-1.119,4.081,4.081,0,0,1,.79-4.675L134.7,1.21A4.1,4.1,0,0,1,140.49,7l-2.5,2.5a4.667,4.667,0,0,0-.1-3l1.054-1.054a1.949,1.949,0,0,0,0-2.7,1.888,1.888,0,0,0-2.7,0l-3.49,3.556a1.91,1.91,0,0,0,1.35,3.259l-1.778,1.778A4.488,4.488,0,0,1,131.173,10.56Z" transform="translate(-124.655)" fill="#222"/>
  </g>
</svg>
