<svg xmlns="http://www.w3.org/2000/svg" width="37" height="35" viewBox="0 0 37 35">
  <g id="Loan_To_Value_Calculator" data-name="Loan To Value Calculator" transform="translate(833.162 -653.845)">
    <path id="Path_2213" data-name="Path 2213" d="M19.689,16.345h20.1a3.378,3.378,0,0,1,3.35,3.406v23.84A3.379,3.379,0,0,1,39.793,47h-20.1a3.38,3.38,0,0,1-3.351-3.406V19.751a3.379,3.379,0,0,1,3.351-3.406" transform="translate(-849 638)" fill="#fff"/>
    <path id="Rectangle_629" data-name="Rectangle 629" d="M3.351,0h20.1a3.35,3.35,0,0,1,3.35,3.35V27.3a3.351,3.351,0,0,1-3.351,3.351H3.351A3.351,3.351,0,0,1,0,27.3V3.351A3.351,3.351,0,0,1,3.351,0Z" transform="translate(-832.662 654.345)" fill="none" stroke="#1e70b9" stroke-miterlimit="10" stroke-width="1"/>
    <path id="Path_2214" data-name="Path 2214" d="M24.715,23.047H34.767a1.675,1.675,0,0,1,1.675,1.675V26.4a1.675,1.675,0,0,1-1.675,1.675H24.715A1.675,1.675,0,0,1,23.04,26.4V24.722a1.675,1.675,0,0,1,1.675-1.675" transform="translate(-848.902 638.117)" fill="#fff"/>
    <rect id="Rectangle_630" data-name="Rectangle 630" width="13.402" height="5.026" rx="1.675" transform="translate(-825.862 661.163)" fill="none" stroke="#1e70b9" stroke-miterlimit="10" stroke-width="1"/>
    <text id="LTV" transform="translate(-829.574 674.141)" fill="#1e70b9" font-size="6.544" font-family="Gilroy-ExtraBold, Gilroy ☞" font-weight="800"><tspan x="0" y="0" letter-spacing="-0.07em">L</tspan><tspan y="0">TV</tspan></text>
    <line id="Line_575" data-name="Line 575" x2="3.362" transform="translate(-814.052 672.97)" fill="none" stroke="#1e70b9" stroke-miterlimit="10" stroke-width="1"/>
    <line id="Line_576" data-name="Line 576" x2="3.362" transform="translate(-827.674 678.147)" fill="none" stroke="#1e70b9" stroke-miterlimit="10" stroke-width="1"/>
    <line id="Line_577" data-name="Line 577" x2="3.362" transform="translate(-820.822 678.164)" fill="none" stroke="#1e70b9" stroke-miterlimit="10" stroke-width="1"/>
    <line id="Line_578" data-name="Line 578" x2="3.362" transform="translate(-814.052 678.07)" fill="none" stroke="#1e70b9" stroke-miterlimit="10" stroke-width="1"/>
    <path id="Path_2215" data-name="Path 2215" d="M52.011,39.724A10.125,10.125,0,1,1,41.886,29.6,10.125,10.125,0,0,1,52.011,39.724" transform="translate(-848.673 638.496)" fill="#fff"/>
    <circle id="Ellipse_214" data-name="Ellipse 214" cx="10.125" cy="10.125" r="10.125" transform="translate(-816.912 668.095)" fill="none" stroke="#1e70b9" stroke-miterlimit="10" stroke-width="1"/>
    <path id="Path_2216" data-name="Path 2216" d="M44.535,37.111a1.808,1.808,0,0,0-1.624-.9h-1.8a1.8,1.8,0,1,0,0,3.607h1.8a1.8,1.8,0,0,1,0,3.607h-1.8a1.8,1.8,0,0,1-1.624-.9" transform="translate(-848.752 638.375)" fill="none" stroke="#1e70b9" stroke-linecap="round" stroke-miterlimit="10" stroke-width="1"/>
    <path id="Path_2217" data-name="Path 2217" d="M42.01,34.406v1.8m0,7.214v1.8" transform="translate(-848.765 638.496)" fill="none" stroke="#1e70b9" stroke-linecap="round" stroke-miterlimit="10" stroke-width="1"/>
  </g>
</svg>
