<svg xmlns="http://www.w3.org/2000/svg" width="41" height="41" viewBox="0 0 41 41">
  <g id="Lock_PDF" data-name="Lock PDF" transform="translate(-286 -34)">
    <g id="Group_2850" data-name="Group 2850" transform="translate(286.5 34.5)">
      <g id="Group_2847" data-name="Group 2847">
        <g id="Group_2846" data-name="Group 2846">
          <g id="Group_2844" data-name="Group 2844">
            <rect id="Rectangle_647" data-name="Rectangle 647" width="26.667" height="26.667" rx="2.5" fill="#fff" stroke="#1e70b9" stroke-miterlimit="10" stroke-width="1"/>
            <rect id="Rectangle_648" data-name="Rectangle 648" width="26.667" height="26.667" rx="2.5" transform="translate(13.333 13.333)" fill="#fff" stroke="#1e70b9" stroke-miterlimit="10" stroke-width="1"/>
          </g>
          <g id="Group_2845" data-name="Group 2845" transform="translate(4.418 4.418)">
            <line id="Line_350" data-name="Line 350" x2="7.094" y2="7.094" fill="#fff" stroke="#1e70b9" stroke-linecap="round" stroke-miterlimit="10" stroke-width="1"/>
            <path id="Path_1762" data-name="Path 1762" d="M297.02,41.447V45.02h-3.573" transform="translate(-289.926 -37.926)" fill="none" stroke="#1e70b9" stroke-linecap="round" stroke-linejoin="round" stroke-width="1"/>
          </g>
        </g>
      </g>
      <g id="Group_2849" data-name="Group 2849" transform="translate(22.274 20.952)">
        <g id="Group_2848" data-name="Group 2848">
          <path id="Rectangle_649" data-name="Rectangle 649" d="M2.225,0h.636A2.225,2.225,0,0,1,5.086,2.225V4.354a0,0,0,0,1,0,0H0a0,0,0,0,1,0,0V2.225A2.225,2.225,0,0,1,2.225,0Z" transform="translate(1.85)" fill="#fff" stroke="#1e70b9" stroke-miterlimit="10" stroke-width="1"/>
          <rect id="Rectangle_650" data-name="Rectangle 650" width="8.785" height="7.074" rx="1.2" transform="translate(0 4.354)" fill="#fff" stroke="#1e70b9" stroke-miterlimit="10" stroke-width="1"/>
        </g>
      </g>
    </g>
  </g>
</svg>
