<svg xmlns="http://www.w3.org/2000/svg" width="41" height="41" viewBox="0 0 41 41">
  <g id="Logo_Maker" data-name="Logo Maker" transform="translate(-118.784 -34)">
    <g id="Group_2027" data-name="Group 2027" transform="translate(119.284 34.5)">
      <g id="Group_2026" data-name="Group 2026" transform="translate(8.761 2.01)">
        <line id="Line_76" data-name="Line 76" x1="4.182" transform="translate(9.148 37.99)" fill="none" stroke="#1e70b9" stroke-miterlimit="10" stroke-width="1"/>
        <path id="Path_1481" data-name="Path 1481" d="M132.424,68.844a11.658,11.658,0,0,0-6.018-10.019l11.239-22.609,11.239,22.609a14.661,14.661,0,0,0-6.018,10.019" transform="translate(-126.406 -36.216)" fill="#fff" stroke="#1e70b9" stroke-miterlimit="10" stroke-width="1"/>
        <rect id="Rectangle_402" data-name="Rectangle 402" width="16.084" height="5.361" transform="translate(3.197 32.629)" fill="#fff" stroke="#1e70b9" stroke-miterlimit="10" stroke-width="1"/>
        <line id="Line_77" data-name="Line 77" y2="23.049" transform="translate(11.239 0)" fill="#fff" stroke="#1e70b9" stroke-linecap="round" stroke-miterlimit="10" stroke-width="1"/>
        <circle id="Ellipse_69" data-name="Ellipse 69" cx="2.074" cy="2.074" r="2.074" transform="translate(9.165 20.373)" fill="#fff" stroke="#1e70b9" stroke-miterlimit="10" stroke-width="1"/>
      </g>
      <line id="Line_78" data-name="Line 78" x2="35.979" transform="translate(2.01 2.01)" fill="#fff" stroke="#1e70b9" stroke-linecap="round" stroke-miterlimit="10" stroke-width="1"/>
      <rect id="Rectangle_403" data-name="Rectangle 403" width="4.021" height="4.021" rx="0.5" transform="translate(35.979)" fill="#fff" stroke="#1e70b9" stroke-miterlimit="10" stroke-width="1"/>
      <rect id="Rectangle_404" data-name="Rectangle 404" width="4.021" height="4.021" rx="0.5" fill="#fff" stroke="#1e70b9" stroke-miterlimit="10" stroke-width="1"/>
      <path id="Path_1482" data-name="Path 1482" d="M120.815,54a18.211,18.211,0,0,1,36.412,0" transform="translate(-119.021 -34.206)" fill="none" stroke="#1e70b9" stroke-miterlimit="10" stroke-width="1"/>
      <rect id="Rectangle_405" data-name="Rectangle 405" width="4.021" height="4.021" rx="0.5" transform="translate(35.979 15.817)" fill="#fff" stroke="#1e70b9" stroke-miterlimit="10" stroke-width="1"/>
      <rect id="Rectangle_406" data-name="Rectangle 406" width="4.021" height="4.021" rx="0.5" transform="translate(0 15.817)" fill="#fff" stroke="#1e70b9" stroke-miterlimit="10" stroke-width="1"/>
      <rect id="Rectangle_407" data-name="Rectangle 407" width="4.021" height="4.021" rx="0.5" transform="translate(17.99)" fill="#fff" stroke="#1e70b9" stroke-miterlimit="10" stroke-width="1"/>
    </g>
  </g>
</svg>
