<svg xmlns="http://www.w3.org/2000/svg" width="23" height="19" viewBox="0 0 23 19">
  <g id="l-website-management-tools" transform="translate(-34 -122.833)">
    <g id="Group_1486" data-name="Group 1486" transform="translate(34.5 123.333)">
      <rect id="Rectangle_353" data-name="Rectangle 353" width="22" height="18" rx="2" fill="#fff" stroke="#1e70b9" stroke-linecap="round" stroke-linejoin="round" stroke-width="1"/>
    </g>
    <g id="Group_1487" data-name="Group 1487" transform="translate(35.758 124.591)">
      <circle id="Ellipse_61" data-name="Ellipse 61" cx="0.443" cy="0.443" r="0.443" transform="translate(0)" fill="#1e70b9"/>
      <circle id="Ellipse_62" data-name="Ellipse 62" cx="0.443" cy="0.443" r="0.443" transform="translate(1.771)" fill="#1e70b9"/>
      <circle id="Ellipse_63" data-name="Ellipse 63" cx="0.443" cy="0.443" r="0.443" transform="translate(3.541)" fill="#1e70b9"/>
    </g>
    <line id="Line_31" data-name="Line 31" x2="22" transform="translate(34.5 126.735)" fill="none" stroke="#1e70b9" stroke-linecap="round" stroke-linejoin="round" stroke-width="1"/>
    <g id="Group_1490" data-name="Group 1490" transform="translate(40.619 129.64)">
      <g id="Group_1488" data-name="Group 1488" transform="translate(1.107)">
        <path id="Path_1358" data-name="Path 1358" d="M53.159,135.676h-.282a3.224,3.224,0,0,0-.316-.763l.2-.2a.39.39,0,0,0,0-.55l-.637-.636a.4.4,0,0,0-.55,0l-.2.2a3.185,3.185,0,0,0-.763-.315v-.282a.389.389,0,0,0-.388-.389h-.9a.389.389,0,0,0-.388.389v.282a3.2,3.2,0,0,0-.763.315l-.2-.2a.4.4,0,0,0-.55,0l-.636.636a.389.389,0,0,0-.113.275.385.385,0,0,0,.113.274l.2.2a3.2,3.2,0,0,0-.315.763h-.282a.389.389,0,0,0-.389.388v.9a.389.389,0,0,0,.389.388h.282a3.185,3.185,0,0,0,.315.763l-.2.2a.391.391,0,0,0,0,.55l.636.636a.4.4,0,0,0,.55,0l.2-.2a3.234,3.234,0,0,0,.763.316v.282a.389.389,0,0,0,.388.388h.9a.389.389,0,0,0,.388-.388v-.282a3.212,3.212,0,0,0,.763-.316l.2.2a.4.4,0,0,0,.55,0l.637-.637a.39.39,0,0,0,0-.55l-.2-.2a3.213,3.213,0,0,0,.316-.763h.282a.389.389,0,0,0,.388-.388v-.9a.389.389,0,0,0-.388-.388Zm-1.708.839a1.677,1.677,0,1,1-1.677-1.678,1.679,1.679,0,0,1,1.677,1.678Z" transform="translate(-46 -132.741)" fill="#fff" stroke="#1e70b9" stroke-linecap="round" stroke-linejoin="round" stroke-width="1"/>
      </g>
      <g id="Group_1489" data-name="Group 1489" transform="translate(0 9.178)">
        <line id="Line_32" data-name="Line 32" x2="6.459" transform="translate(3.302)" fill="none" stroke="#1e70b9" stroke-linecap="round" stroke-miterlimit="10" stroke-width="1"/>
        <line id="Line_33" data-name="Line 33" x2="1.742" fill="none" stroke="#1e70b9" stroke-linecap="round" stroke-miterlimit="10" stroke-width="1"/>
      </g>
    </g>
  </g>
</svg>
