<svg xmlns="http://www.w3.org/2000/svg" width="35.68" height="35" viewBox="0 0 35.68 35">
  <g id="Meme_Generator" data-name="Meme Generator" transform="translate(-0.279 -0.236)">
    <g id="Meme_Generator-2" data-name="Meme_Generator" transform="translate(0.779 0.736)">
      <g id="Group_3314" transform="translate(0)">
        <path id="Path_13527" data-name="Path 13527" d="M18.44.5A17.168,17.168,0,0,0,1.1,17.5a17.168,17.168,0,0,0,17.34,17,17.168,17.168,0,0,0,17.34-17A17.168,17.168,0,0,0,18.44.5Zm-.068,26.588a7.749,7.749,0,0,1-7.752-7.752H26.192A7.851,7.851,0,0,1,18.372,27.088Z" transform="translate(-1.1 -0.5)" fill="none" stroke="#1e70b9" stroke-linecap="round" stroke-linejoin="round" stroke-width="1"/>
        <path id="Path_13528" data-name="Path 13528" d="M30.6,28.1a7.752,7.752,0,0,1-15.5,0Z" transform="translate(-5.58 -9.332)" fill="none" stroke="#1e70b9" stroke-linecap="round" stroke-linejoin="round" stroke-width="1"/>
      </g>
    </g>
    <g id="Group_3572" transform="translate(12.642 11.932)">
      <line id="Line_451" x2="0.068" fill="none" stroke="#1e70b9" stroke-linecap="round" stroke-linejoin="round" stroke-width="2"/>
      <line id="Line_452" transform="translate(11.56)" fill="none" stroke="#1e70b9" stroke-linecap="round" stroke-linejoin="round" stroke-width="2"/>
    </g>
  </g>
</svg>
