<svg xmlns="http://www.w3.org/2000/svg" width="41" height="33" viewBox="0 0 41 33">
  <g id="Meta_Tag_Generator" data-name="Meta Tag Generator" transform="translate(-118 -37.5)">
    <g id="Group_2798" data-name="Group 2798" transform="translate(118.5 38)">
      <g id="Group_2797" data-name="Group 2797">
        <g id="Group_2796" data-name="Group 2796">
          <g id="Group_2795" data-name="Group 2795">
            <g id="Group_2793" data-name="Group 2793">
              <rect id="Rectangle_626" data-name="Rectangle 626" width="40" height="32" rx="2" fill="#fff" stroke="#1e70b9" stroke-linecap="round" stroke-linejoin="round" stroke-width="1"/>
            </g>
            <g id="Group_2794" data-name="Group 2794" transform="translate(2.317 2.317)">
              <circle id="Ellipse_235" data-name="Ellipse 235" cx="0.815" cy="0.815" r="0.815" fill="#1e70b9"/>
              <circle id="Ellipse_236" data-name="Ellipse 236" cx="0.815" cy="0.815" r="0.815" transform="translate(3.262)" fill="#1e70b9"/>
              <circle id="Ellipse_237" data-name="Ellipse 237" cx="0.815" cy="0.815" r="0.815" transform="translate(6.524)" fill="#1e70b9"/>
            </g>
            <line id="Line_343" data-name="Line 343" x2="39.551" transform="translate(0 6.265)" fill="none" stroke="#1e70b9" stroke-linecap="round" stroke-linejoin="round" stroke-width="1"/>
          </g>
        </g>
      </g>
    </g>
    <g id="Group_2799" data-name="Group 2799" transform="translate(126.46 50.469)">
      <path id="Path_1750" data-name="Path 1750" d="M149.039,54.656l-5.527-5.492a1.385,1.385,0,0,0-.976-.4H126.811a1.077,1.077,0,0,0-1.018,1.087v11.3a1.385,1.385,0,0,0,1.385,1.386h15.36a1.388,1.388,0,0,0,.978-.4l5.527-5.507A1.385,1.385,0,0,0,149.039,54.656Z" transform="translate(-125.791 -48.762)" fill="#fff" stroke="#1e70b9" stroke-linecap="round" stroke-linejoin="round" stroke-width="1"/>
      <circle id="Ellipse_238" data-name="Ellipse 238" cx="1.514" cy="1.514" r="1.514" transform="translate(15.34 5.37)" stroke-width="1" stroke="#1e70b9" stroke-linecap="round" stroke-linejoin="round" fill="#fff"/>
    </g>
  </g>
</svg>
