<svg xmlns="http://www.w3.org/2000/svg" width="41" height="41" viewBox="0 0 41 41">
  <g id="Meta_Tags_Analyzer" data-name="Meta Tags Analyzer" transform="translate(-34 -34)">
    <g id="Group_2790" data-name="Group 2790" transform="translate(34.5 34.5)">
      <g id="Group_2789" data-name="Group 2789">
        <rect id="Rectangle_625" data-name="Rectangle 625" width="40" height="40" rx="2.5" fill="#fff" stroke="#1e70b9" stroke-miterlimit="10" stroke-width="1"/>
      </g>
    </g>
    <g id="Group_2791" data-name="Group 2791" transform="translate(43.871 43.93)">
      <path id="Path_1749" data-name="Path 1749" d="M62.587,42.751l-7.685.024a1.365,1.365,0,0,0-.961.4L42.972,54.143a1.061,1.061,0,0,0,.048,1.469l7.879,7.88a1.365,1.365,0,0,0,1.931,0L63.543,52.778a1.368,1.368,0,0,0,.4-.963l.014-7.7A1.365,1.365,0,0,0,62.587,42.751Z" transform="translate(-42.699 -42.751)" fill="#fff" stroke="#1e70b9" stroke-linecap="round" stroke-linejoin="round" stroke-width="1"/>
      <circle id="Ellipse_234" data-name="Ellipse 234" cx="1.493" cy="1.493" r="1.493" transform="translate(14.625 3.656)" stroke-width="1" stroke="#1e70b9" stroke-linecap="round" stroke-linejoin="round" fill="#fff"/>
    </g>
  </g>
</svg>
