<svg xmlns="http://www.w3.org/2000/svg" width="23" height="23" viewBox="0 0 23 23">
  <g id="l-meta-tags-tools" transform="translate(-34 -204.763)">
    <g id="Group_1457" data-name="Group 1457" transform="translate(34.5 205.263)">
      <path id="Path_1338" data-name="Path 1338" d="M55.082,205.263l-7.953.025a1.407,1.407,0,0,0-1,.416L34.782,217.118a1.108,1.108,0,0,0,.05,1.528l8.153,8.2a1.409,1.409,0,0,0,2,0L56.071,215.7a1.427,1.427,0,0,0,.414-1l.015-8.009A1.418,1.418,0,0,0,55.082,205.263Z" transform="translate(-34.5 -205.263)" fill="#fff" stroke="#1e70b9" stroke-linecap="round" stroke-linejoin="round" stroke-width="1"/>
      <circle id="Ellipse_50" data-name="Ellipse 50" cx="1.417" cy="1.417" r="1.417" transform="translate(16.283 2.893)" fill="#fff" stroke="#1e70b9" stroke-linecap="round" stroke-linejoin="round" stroke-width="1"/>
    </g>
    <g id="Group_1458" data-name="Group 1458" transform="translate(41.288 212.775)">
      <path id="Path_1339" data-name="Path 1339" d="M45.7,222.681l-.389,4.276,4.276-.389" transform="translate(-45.314 -219.182)" fill="none" stroke="#1e70b9" stroke-linecap="round" stroke-linejoin="round" stroke-width="1"/>
      <path id="Path_1340" data-name="Path 1340" d="M54.753,221.4l.389-4.276-4.276.389" transform="translate(-47.367 -217.129)" fill="none" stroke="#1e70b9" stroke-linecap="round" stroke-linejoin="round" stroke-width="1"/>
      <line id="Line_12" data-name="Line 12" x2="3.463" y2="6.408" transform="translate(2.156 0.683)" fill="none" stroke="#1e70b9" stroke-linecap="round" stroke-linejoin="round" stroke-width="1"/>
    </g>
  </g>
</svg>
