<svg xmlns="http://www.w3.org/2000/svg" width="31" height="41" viewBox="0 0 31 41">
  <g id="Minify_CSS" data-name="Minify CSS" transform="translate(-290.375 -630)">
    <g id="Group_2447" data-name="Group 2447" transform="translate(290.875 630.5)">
      <g id="Group_2445" data-name="Group 2445">
        <g id="Group_2444" data-name="Group 2444">
          <path id="Path_1618" data-name="Path 1618" d="M318.018,670.5H293.732a2.857,2.857,0,0,1-2.857-2.857V633.357a2.857,2.857,0,0,1,2.857-2.857h16.793a2.852,2.852,0,0,1,2.019.837l7.494,7.494a2.853,2.853,0,0,1,.837,2.019v26.793A2.857,2.857,0,0,1,318.018,670.5Z" transform="translate(-290.875 -630.5)" fill="#fff" stroke="#1e70b9" stroke-miterlimit="10" stroke-width="1"/>
          <path id="Path_1619" data-name="Path 1619" d="M307.49,633.885v7.143h7.143" transform="translate(-288.501 -630.016)" fill="none" stroke="#1e70b9" stroke-linecap="round" stroke-linejoin="round" stroke-width="1"/>
          <g id="Group_2443" data-name="Group 2443" transform="translate(5.56 31.143)">
            <line id="Line_226" data-name="Line 226" x2="18.88" transform="translate(0 4.286)" fill="none" stroke="#1e70b9" stroke-linecap="round" stroke-miterlimit="10" stroke-width="1"/>
            <line id="Line_227" data-name="Line 227" x2="11.737" transform="translate(7.143)" fill="none" stroke="#1e70b9" stroke-linecap="round" stroke-miterlimit="10" stroke-width="1"/>
            <line id="Line_228" data-name="Line 228" x2="3.165" fill="none" stroke="#1e70b9" stroke-linecap="round" stroke-miterlimit="10" stroke-width="1"/>
          </g>
        </g>
      </g>
      <g id="Group_2446" data-name="Group 2446" transform="translate(6.275 18.459)">
        <path id="Path_1620" data-name="Path 1620" d="M301.884,651.689a.52.52,0,0,0-.362.152,2.421,2.421,0,0,1-1.753.719,2.329,2.329,0,0,1-2.258-2.44,2.284,2.284,0,0,1,2.258-2.406,2.448,2.448,0,0,1,1.715.694.634.634,0,0,0,.345.114.566.566,0,0,0,.562-.554.588.588,0,0,0-.216-.443,3.477,3.477,0,0,0-2.4-.872,3.412,3.412,0,0,0-3.413,3.485v.018a3.351,3.351,0,0,0,3.385,3.466,3.41,3.41,0,0,0,2.488-.982.538.538,0,0,0,.189-.406A.558.558,0,0,0,301.884,651.689Z" transform="translate(-296.366 -646.652)" fill="#1e70b9"/>
        <path id="Path_1621" data-name="Path 1621" d="M305.04,649.6c-1.333-.286-1.567-.569-1.567-1.057s.474-.826,1.153-.826a2.453,2.453,0,0,1,1.525.514.522.522,0,0,0,.326.1.546.546,0,0,0,.545-.544.576.576,0,0,0-.237-.454,3.457,3.457,0,0,0-2.142-.664,2.067,2.067,0,0,0-2.286,1.952c0,1.271.914,1.73,2.289,2.027,1.271.27,1.494.547,1.494,1.031,0,.527-.489.88-1.215.88a2.681,2.681,0,0,1-1.863-.693.512.512,0,0,0-.361-.142.543.543,0,0,0-.544.553.521.521,0,0,0,.215.432,3.921,3.921,0,0,0,2.525.893,2.116,2.116,0,0,0,2.369-2.014C307.267,650.53,306.6,649.933,305.04,649.6Z" transform="translate(-295.539 -646.65)" fill="#1e70b9"/>
        <path id="Path_1622" data-name="Path 1622" d="M310.046,649.6c-1.333-.286-1.567-.569-1.567-1.057s.474-.826,1.153-.826a2.451,2.451,0,0,1,1.525.517.537.537,0,0,0,.326.1.545.545,0,0,0,.544-.544.573.573,0,0,0-.237-.454,3.452,3.452,0,0,0-2.141-.664,2.068,2.068,0,0,0-2.287,1.952c0,1.271.915,1.73,2.29,2.027,1.271.27,1.494.547,1.494,1.031,0,.527-.489.88-1.216.88a2.677,2.677,0,0,1-1.863-.695.52.52,0,0,0-.36-.139.543.543,0,0,0-.544.553.521.521,0,0,0,.215.432,3.921,3.921,0,0,0,2.525.893,2.116,2.116,0,0,0,2.369-2.014C312.273,650.53,311.606,649.933,310.046,649.6Z" transform="translate(-294.823 -646.65)" fill="#1e70b9"/>
      </g>
    </g>
  </g>
</svg>
