<svg xmlns="http://www.w3.org/2000/svg" width="19.3" height="25.3" viewBox="0 0 19.3 25.3">
  <g id="Grammar_Checker" data-name="Grammar Checker" transform="translate(-206.225 -33.85)">
    <g id="Group_15" data-name="Group 15" transform="translate(206.875 34.5)">
      <path id="Path_6" data-name="Path 6" d="M223.161,58.5H208.589a1.714,1.714,0,0,1-1.714-1.714V36.214a1.714,1.714,0,0,1,1.714-1.714h10.076a1.712,1.712,0,0,1,1.212.5l4.5,4.5a1.711,1.711,0,0,1,.5,1.212V56.786A1.714,1.714,0,0,1,223.161,58.5Z" transform="translate(-206.875 -34.5)" fill="none" stroke="#1e70b9" stroke-miterlimit="10" stroke-width="1.3"/>
      <path id="Path_7" data-name="Path 7" d="M223.49,37.885v4.286h4.286" transform="translate(-212.097 -35.564)" fill="none" stroke="#1e70b9" stroke-linecap="round" stroke-linejoin="round" stroke-width="1.3"/>
      <g id="Group_14" data-name="Group 14" transform="translate(3.514 18.343)">
        <g id="Group_13" data-name="Group 13">
          <g id="Group_11" data-name="Group 11" transform="translate(0 2.571)">
            <path id="Path_8" data-name="Path 8" d="M212,65c1.1,0,1.1.686,2.192.686s1.1-.686,2.193-.686,1.1.686,2.193.686,1.1-.686,2.2-.686,1.1.686,2.2.686" transform="translate(-212 -65)" fill="none" stroke="#1e70b9" stroke-linecap="round" stroke-miterlimit="10" stroke-width="1.3"/>
          </g>
          <g id="Group_12" data-name="Group 12">
            <path id="Path_9" data-name="Path 9" d="M212,61.25c1.1,0,1.1.686,2.192.686s1.1-.686,2.193-.686,1.1.686,2.193.686,1.1-.686,2.2-.686,1.1.686,2.2.686" transform="translate(-212 -61.25)" fill="none" stroke="#1e70b9" stroke-linecap="round" stroke-miterlimit="10" stroke-width="1.3"/>
          </g>
        </g>
      </g>
    </g>
    <g id="Group_16" data-name="Group 16" transform="translate(211.256 44.272)">
      <path id="Path_10" data-name="Path 10" d="M216.42,49.072a.467.467,0,0,0-.453-.321h-.031a.475.475,0,0,0-.459.317l-2.167,4.737a.443.443,0,0,0-.046.2.361.361,0,0,0,.36.361.383.383,0,0,0,.368-.256l.534-1.193h2.82l.534,1.177a.408.408,0,0,0,.376.273.376.376,0,0,0,.376-.376.475.475,0,0,0-.047-.189Zm.612,3.121H214.84l1.1-2.437Z" transform="translate(-213.264 -48.751)" fill="#1e70b9" stroke="#1e70b9" stroke-width="0.3"/>
      <path id="Path_11" data-name="Path 11" d="M224.642,51.259a1.813,1.813,0,0,0-1.335-.46,3.18,3.18,0,0,0-1.322.274.354.354,0,0,0-.213.323.346.346,0,0,0,.345.338.407.407,0,0,0,.143-.03,2.357,2.357,0,0,1,.987-.215c.5,0,1.089.172,1.089.99V52.5a4.211,4.211,0,0,0-1.127-.141c-1.093,0-1.772.52-1.772,1.36v.015a1.412,1.412,0,0,0,1.558,1.314,1.811,1.811,0,0,0,1.341-.535v.129a.357.357,0,0,0,.368.361.364.364,0,0,0,.368-.376V52.471A1.644,1.644,0,0,0,224.642,51.259Zm-.3,1.857v.317a1.1,1.1,0,0,1-1.234.983c-.437,0-.907-.219-.907-.716,0-.457.4-.73,1.067-.73A4.024,4.024,0,0,1,224.343,53.116Z" transform="translate(-215.832 -49.395)" fill="#1e70b9" stroke="#1e70b9" stroke-width="0.3"/>
    </g>
  </g>
</svg>
