<svg xmlns="http://www.w3.org/2000/svg" width="19.3" height="25.3" viewBox="0 0 19.3 25.3">
  <g id="Plagiarism_Checker" data-name="Plagiarism Checker" transform="translate(-38.225 -33.85)">
    <g id="Group_2" data-name="Group 2" transform="translate(38.875 34.5)">
      <path id="Path_1" data-name="Path 1" d="M55.161,58.5H40.589a1.714,1.714,0,0,1-1.714-1.714V36.214A1.714,1.714,0,0,1,40.589,34.5H50.665a1.712,1.712,0,0,1,1.212.5l4.5,4.5a1.712,1.712,0,0,1,.5,1.212V56.786A1.714,1.714,0,0,1,55.161,58.5Z" transform="translate(-38.875 -34.5)" fill="none" stroke="#1e70b9" stroke-miterlimit="10" stroke-width="1.3"/>
      <path id="Path_2" data-name="Path 2" d="M55.49,37.885v4.364h4.364" transform="translate(-44.218 -35.521)" fill="none" stroke="#1e70b9" stroke-linecap="round" stroke-linejoin="round" stroke-width="1.3"/>
      <g id="Group_1" data-name="Group 1" transform="translate(3.233 18.589)">
        <line id="Line_1" data-name="Line 1" x2="11.535" transform="translate(0 2.618)" fill="none" stroke="#1e70b9" stroke-linecap="round" stroke-miterlimit="10" stroke-width="1.3"/>
        <line id="Line_2" data-name="Line 2" x2="7.171" transform="translate(4.364)" fill="none" stroke="#1e70b9" stroke-linecap="round" stroke-miterlimit="10" stroke-width="1.3"/>
        <line id="Line_3" data-name="Line 3" x2="1.934" fill="none" stroke="#1e70b9" stroke-linecap="round" stroke-miterlimit="10" stroke-width="1.3"/>
      </g>
    </g>
    <g id="Group_3" data-name="Group 3" transform="translate(44.313 43.948)">
      <circle id="Ellipse_1" data-name="Ellipse 1" cx="2.603" cy="2.603" r="2.603" transform="translate(0)" fill="none" stroke="#1e70b9" stroke-miterlimit="10" stroke-width="1.3"/>
      <line id="Line_4" data-name="Line 4" x2="2.178" y2="2.178" transform="translate(4.443 4.443)" fill="#fff" stroke="#1e70b9" stroke-linecap="round" stroke-miterlimit="10" stroke-width="1.3"/>
    </g>
  </g>
</svg>
