<svg xmlns="http://www.w3.org/2000/svg" width="18" height="18" viewBox="0 0 18 18">
  <path id="global" d="M9,0a9,9,0,1,0,9,9A9.01,9.01,0,0,0,9,0ZM8.473,4.418a12.3,12.3,0,0,1-2.355-.331c.121-.287.253-.563.394-.824a4.554,4.554,0,0,1,1.961-2.1Zm0,1.056v3H5.179a13.253,13.253,0,0,1,.576-3.39A13.353,13.353,0,0,0,8.473,5.473Zm0,4.054v3a13.353,13.353,0,0,0-2.718.391,13.253,13.253,0,0,1-.576-3.39Zm0,4.055v3.25a4.554,4.554,0,0,1-1.961-2.1c-.142-.261-.273-.537-.394-.824A12.3,12.3,0,0,1,8.473,13.582Zm1.055,0a12.3,12.3,0,0,1,2.355.331c-.121.287-.253.563-.394.824a4.554,4.554,0,0,1-1.961,2.1Zm0-1.056v-3h3.294a13.253,13.253,0,0,1-.576,3.39A13.353,13.353,0,0,0,9.527,12.527Zm0-4.054v-3a13.353,13.353,0,0,0,2.718-.391,13.253,13.253,0,0,1,.576,3.39Zm0-4.055V1.168a4.554,4.554,0,0,1,1.961,2.1c.142.261.273.537.394.824A12.3,12.3,0,0,1,9.527,4.418ZM12.415,2.76a8.007,8.007,0,0,0-.853-1.282,7.955,7.955,0,0,1,2.813,1.675A9.965,9.965,0,0,1,12.9,3.79,10.685,10.685,0,0,0,12.415,2.76Zm-6.83,0A10.685,10.685,0,0,0,5.1,3.79a9.98,9.98,0,0,1-1.471-.637A7.955,7.955,0,0,1,6.439,1.478,8.01,8.01,0,0,0,5.585,2.76ZM4.74,4.781a14.123,14.123,0,0,0-.617,3.691H1.073a7.908,7.908,0,0,1,1.8-4.529A10.848,10.848,0,0,0,4.74,4.781ZM4.123,9.527a14.122,14.122,0,0,0,.617,3.691,10.848,10.848,0,0,0-1.864.838,7.908,7.908,0,0,1-1.8-4.529ZM5.1,14.21a10.685,10.685,0,0,0,.488,1.03,8.016,8.016,0,0,0,.853,1.282,7.953,7.953,0,0,1-2.813-1.675A9.966,9.966,0,0,1,5.1,14.21Zm7.318,1.03a10.685,10.685,0,0,0,.488-1.03,9.98,9.98,0,0,1,1.471.637,7.955,7.955,0,0,1-2.813,1.675A8.01,8.01,0,0,0,12.415,15.24Zm.845-2.021a14.123,14.123,0,0,0,.617-3.691h3.05a7.908,7.908,0,0,1-1.8,4.529A10.848,10.848,0,0,0,13.26,13.219Zm.617-4.746a14.122,14.122,0,0,0-.617-3.691,10.848,10.848,0,0,0,1.864-.838,7.908,7.908,0,0,1,1.8,4.529Zm0,0" fill="#1e70b9"/>
</svg>
