<svg xmlns="http://www.w3.org/2000/svg" width="31" height="41" viewBox="0 0 31 41">
  <g id="Mozrank_Checker" data-name="Mozrank Checker" transform="translate(-290.375 -204.667)">
    <g id="Group_2551" data-name="Group 2551" transform="translate(290.875 205.167)">
      <g id="Group_2550" data-name="Group 2550">
        <path id="Path_1680" data-name="Path 1680" d="M318.018,245.167H293.732a2.857,2.857,0,0,1-2.857-2.857V208.024a2.857,2.857,0,0,1,2.857-2.857h16.793a2.852,2.852,0,0,1,2.019.837l7.494,7.493a2.857,2.857,0,0,1,.837,2.021V242.31A2.857,2.857,0,0,1,318.018,245.167Z" transform="translate(-290.875 -205.167)" fill="#fff" stroke="#1e70b9" stroke-miterlimit="10" stroke-width="1"/>
        <path id="Path_1681" data-name="Path 1681" d="M307.49,208.552v7.16h7.16" transform="translate(-288.528 -204.674)" fill="none" stroke="#1e70b9" stroke-linecap="round" stroke-linejoin="round" stroke-width="1"/>
        <g id="Group_2549" data-name="Group 2549" transform="translate(5.538 31.121)">
          <line id="Line_267" data-name="Line 267" x2="18.925" transform="translate(0 4.296)" fill="none" stroke="#1e70b9" stroke-linecap="round" stroke-miterlimit="10" stroke-width="1"/>
          <line id="Line_268" data-name="Line 268" x2="11.765" transform="translate(7.16)" fill="none" stroke="#1e70b9" stroke-linecap="round" stroke-miterlimit="10" stroke-width="1"/>
          <line id="Line_269" data-name="Line 269" x2="3.173" fill="none" stroke="#1e70b9" stroke-linecap="round" stroke-miterlimit="10" stroke-width="1"/>
        </g>
      </g>
    </g>
    <g id="Group_2552" data-name="Group 2552" transform="translate(297.474 224.823)">
      <path id="Path_1682" data-name="Path 1682" d="M301.515,222.43a.591.591,0,0,0-.51.282l-1.6,2.4-1.6-2.4a.639.639,0,0,0-.574-.28.58.58,0,0,0-.573.573v4.619a.569.569,0,1,0,1.138,0v-2.9l1.113,1.637a.574.574,0,0,0,.485.27.564.564,0,0,0,.479-.273L301,224.717v2.9a.587.587,0,0,0,.58.58.577.577,0,0,0,.573-.58V223A.6.6,0,0,0,301.515,222.43Z" transform="translate(-296.667 -222.365)" fill="#1e70b9"/>
      <path id="Path_1683" data-name="Path 1683" d="M304.94,222.373a2.9,2.9,0,0,0-2.912,2.941v.014a2.848,2.848,0,0,0,2.9,2.927,2.9,2.9,0,0,0,2.912-2.956A2.847,2.847,0,0,0,304.94,222.373Zm-.016,1.108a1.749,1.749,0,0,1,1.738,1.833v.014a1.734,1.734,0,0,1-1.722,1.819A1.752,1.752,0,0,1,303.2,225.3,1.734,1.734,0,0,1,304.924,223.481Z" transform="translate(-295.887 -222.373)" fill="#1e70b9"/>
      <path id="Path_1684" data-name="Path 1684" d="M311.381,227.062h-2.5l2.851-3.625a.687.687,0,0,0,.166-.452.55.55,0,0,0-.55-.536h-3.5a.547.547,0,1,0,0,1.094h2.387l-2.85,3.623a.661.661,0,0,0-.168.439v.014a.555.555,0,0,0,.559.536h3.607a.546.546,0,1,0,0-1.093Z" transform="translate(-295.131 -222.362)" fill="#1e70b9"/>
    </g>
  </g>
</svg>
