<svg xmlns="http://www.w3.org/2000/svg" width="41" height="33" viewBox="0 0 41 33">
  <g id="What_is_My_IP" data-name="What is My IP" transform="translate(-34 -37.5)">
    <g id="Group_2676" data-name="Group 2676" transform="translate(34.5 38)">
      <g id="Group_2673" data-name="Group 2673">
        <g id="Group_2672" data-name="Group 2672">
          <g id="Group_2670" data-name="Group 2670">
            <rect id="Rectangle_604" data-name="Rectangle 604" width="40" height="32" rx="2" fill="#fff" stroke="#1e70b9" stroke-linecap="round" stroke-linejoin="round" stroke-width="1"/>
          </g>
          <g id="Group_2671" data-name="Group 2671" transform="translate(2.286 2.286)">
            <circle id="Ellipse_195" data-name="Ellipse 195" cx="0.804" cy="0.804" r="0.804" fill="#1e70b9"/>
            <circle id="Ellipse_196" data-name="Ellipse 196" cx="0.804" cy="0.804" r="0.804" transform="translate(3.218)" fill="#1e70b9"/>
            <circle id="Ellipse_197" data-name="Ellipse 197" cx="0.804" cy="0.804" r="0.804" transform="translate(6.435)" fill="#1e70b9"/>
          </g>
          <line id="Line_308" data-name="Line 308" x2="40" transform="translate(0 6.18)" fill="none" stroke="#1e70b9" stroke-linecap="round" stroke-linejoin="round" stroke-width="1"/>
        </g>
      </g>
      <g id="Group_2675" data-name="Group 2675" transform="translate(13.154 9.727)">
        <path id="Path_1721" data-name="Path 1721" d="M53.237,65.072a.521.521,0,0,1-.763,0c-1.44-1.533-6.464-7.2-6.464-11.715a6.846,6.846,0,0,1,13.691,0c0,4.512-5.024,10.183-6.464,11.715Zm0,0" transform="translate(-46.01 -46.511)" fill="#fff" stroke="#1e70b9" stroke-linecap="round" stroke-linejoin="round" stroke-width="1"/>
        <g id="Group_2674" data-name="Group 2674" transform="translate(4.435 4.866)">
          <path id="Path_1722" data-name="Path 1722" d="M50.475,50.769a.587.587,0,0,0-.584.589v3.81a.586.586,0,1,0,1.173,0v-3.81A.589.589,0,0,0,50.475,50.769Z" transform="translate(-49.891 -50.769)" fill="#1e70b9"/>
          <path id="Path_1723" data-name="Path 1723" d="M53.328,50.8h-1.35a.587.587,0,0,0-.583.589v3.781a.586.586,0,1,0,1.171,0v-.937h.682a1.789,1.789,0,0,0,2.01-1.743A1.724,1.724,0,0,0,53.328,50.8ZM53.266,53.1h-.7V51.93h.725c.525,0,.79.2.79.585C54.081,52.946,53.66,53.1,53.266,53.1Z" transform="translate(-49.676 -50.765)" fill="#1e70b9"/>
        </g>
      </g>
    </g>
  </g>
</svg>
