<svg id="PHP_Formatter" data-name="PHP Formatter" xmlns="http://www.w3.org/2000/svg" xmlns:xlink="http://www.w3.org/1999/xlink" width="28" height="34" viewBox="0 0 28 34">
  <defs>
    <clipPath id="clip-path">
      <rect id="Rectangle_569" data-name="Rectangle 569" width="28" height="34" fill="none"/>
    </clipPath>
  </defs>
  <g id="Group_1332" data-name="Group 1332" clip-path="url(#clip-path)">
    <path id="Path_2090" data-name="Path 2090" d="M25.121,33.556H2.914A2.388,2.388,0,0,1,.5,31.194V2.861A2.388,2.388,0,0,1,2.914.5H25.121a2.388,2.388,0,0,1,2.414,2.361V31.194a2.388,2.388,0,0,1-2.414,2.361" transform="translate(-0.017 -0.028)" fill="#fff"/>
    <rect id="Rectangle_568" data-name="Rectangle 568" width="27.034" height="33.056" rx="2.5" transform="translate(0.483 0.472)" fill="none" stroke="#1e70b9" stroke-linecap="round" stroke-linejoin="round" stroke-width="1"/>
    <path id="Path_2091" data-name="Path 2091" d="M5.721,30.056V23.323H8.087a1.894,1.894,0,1,1,0,3.787H5.721" transform="translate(-0.197 -1.296)" fill="none" stroke="#1e70b9" stroke-linecap="round" stroke-linejoin="round" stroke-width="1"/>
    <path id="Path_2092" data-name="Path 2092" d="M18.823,30.056V23.323h2.366a1.894,1.894,0,1,1,0,3.787H18.823" transform="translate(-0.649 -1.296)" fill="none" stroke="#1e70b9" stroke-linecap="round" stroke-linejoin="round" stroke-width="1"/>
    <line id="Line_446" data-name="Line 446" y2="6.733" transform="translate(16.151 22.028)" fill="none" stroke="#1e70b9" stroke-linecap="round" stroke-linejoin="round" stroke-width="1"/>
    <line id="Line_447" data-name="Line 447" x2="4.302" transform="translate(11.849 25.394)" fill="none" stroke="#1e70b9" stroke-linecap="round" stroke-linejoin="round" stroke-width="1"/>
    <line id="Line_448" data-name="Line 448" y2="6.733" transform="translate(11.849 22.028)" fill="none" stroke="#1e70b9" stroke-linecap="round" stroke-linejoin="round" stroke-width="1"/>
    <line id="Line_449" data-name="Line 449" x2="11.848" transform="translate(6.768 14.402)" fill="none" stroke="#1e70b9" stroke-linecap="round" stroke-miterlimit="10" stroke-width="1"/>
    <line id="Line_450" data-name="Line 450" x2="11.848" transform="translate(9.646 6.813)" fill="none" stroke="#1e70b9" stroke-linecap="round" stroke-miterlimit="10" stroke-width="1"/>
    <line id="Line_451" data-name="Line 451" x2="8.974" transform="translate(9.642 11.77)" fill="none" stroke="#1e70b9" stroke-linecap="round" stroke-miterlimit="10" stroke-width="1"/>
    <line id="Line_452" data-name="Line 452" x2="8.974" transform="translate(9.582 9.138)" fill="none" stroke="#1e70b9" stroke-linecap="round" stroke-miterlimit="10" stroke-width="1"/>
    <path id="Path_2093" data-name="Path 2093" d="M21.387,14.857a.87.87,0,0,0,.88-.86V12.276l.44-.43-.44-.431V9.694a.87.87,0,0,0-.88-.86" transform="translate(-0.737 -0.491)" fill="none" stroke="#1e70b9" stroke-linecap="round" stroke-linejoin="round" stroke-width="1"/>
    <path id="Path_2094" data-name="Path 2094" d="M7.566,13.236a.87.87,0,0,1-.88-.86V10.655l-.44-.43.44-.431V8.073a.87.87,0,0,1,.88-.86" transform="translate(-0.215 -0.401)" fill="none" stroke="#1e70b9" stroke-linecap="round" stroke-linejoin="round" stroke-width="1"/>
  </g>
</svg>
