<svg xmlns="http://www.w3.org/2000/svg" width="31" height="41" viewBox="0 0 31 41">
  <g id="Page_Authority_Checker" data-name="Page Authority Checker" transform="translate(-38.375 -290)">
    <g id="Group_2558" data-name="Group 2558" transform="translate(38.875 290.5)">
      <g id="Group_2556" data-name="Group 2556">
        <g id="Group_2555" data-name="Group 2555">
          <path id="Path_1685" data-name="Path 1685" d="M66.018,330.5H41.732a2.857,2.857,0,0,1-2.857-2.857V293.357a2.857,2.857,0,0,1,2.857-2.857H58.525a2.853,2.853,0,0,1,2.019.837l7.494,7.494a2.852,2.852,0,0,1,.837,2.019v26.793A2.857,2.857,0,0,1,66.018,330.5Z" transform="translate(-38.875 -290.5)" fill="#fff" stroke="#1e70b9" stroke-miterlimit="10" stroke-width="1"/>
          <path id="Path_1686" data-name="Path 1686" d="M55.49,293.885v7.143h7.143" transform="translate(-36.501 -290.016)" fill="none" stroke="#1e70b9" stroke-linecap="round" stroke-linejoin="round" stroke-width="1"/>
          <g id="Group_2554" data-name="Group 2554" transform="translate(5.56 31.143)">
            <line id="Line_270" data-name="Line 270" x2="18.88" transform="translate(0 4.286)" fill="none" stroke="#1e70b9" stroke-linecap="round" stroke-miterlimit="10" stroke-width="1"/>
            <line id="Line_271" data-name="Line 271" x2="11.737" transform="translate(7.143)" fill="none" stroke="#1e70b9" stroke-linecap="round" stroke-miterlimit="10" stroke-width="1"/>
            <line id="Line_272" data-name="Line 272" x2="3.165" fill="none" stroke="#1e70b9" stroke-linecap="round" stroke-miterlimit="10" stroke-width="1"/>
          </g>
        </g>
      </g>
      <g id="Group_2557" data-name="Group 2557" transform="translate(8.866 17.6)">
        <path id="Path_1687" data-name="Path 1687" d="M49.342,305.968H47.2a.575.575,0,0,0-.563.573v6.011a.569.569,0,1,0,1.137,0V310.7h1.447c1.694,0,2.832-.968,2.832-2.41C52.049,306.88,50.986,305.968,49.342,305.968Zm-.1,3.664H47.77v-2.585h1.513c1.045,0,1.619.458,1.619,1.293C50.9,309.125,50.252,309.632,49.246,309.632Z" transform="translate(-46.633 -305.89)" fill="#1e70b9"/>
        <path id="Path_1688" data-name="Path 1688" d="M55.44,306.355a.666.666,0,0,0-.646-.455h-.039a.682.682,0,0,0-.653.448l-2.73,5.969a.64.64,0,0,0-.066.283.535.535,0,0,0,.535.534.565.565,0,0,0,.538-.37l.651-1.456h3.451l0,.007.647,1.427a.593.593,0,0,0,.549.392.554.554,0,0,0,.553-.553.673.673,0,0,0-.064-.27ZM53.5,310.238l.007-.015,1.25-2.781.01.024,1.247,2.771Z" transform="translate(-45.965 -305.9)" fill="#1e70b9"/>
      </g>
    </g>
  </g>
</svg>
