<svg xmlns="http://www.w3.org/2000/svg" width="41" height="26.52" viewBox="0 0 41 26.52">
  <g id="Paid_Keyword_Finder" data-name="Paid Keyword Finder" transform="translate(-34 -296.5)">
    <path id="Path_1513" data-name="Path 1513" d="M74.5,301.64v16.24a4.6,4.6,0,0,0-4.571,4.64H39.071a4.6,4.6,0,0,0-4.571-4.64V301.64A4.6,4.6,0,0,0,39.071,297H69.929A4.6,4.6,0,0,0,74.5,301.64Z" fill="#fff" stroke="#1e70b9" stroke-miterlimit="10" stroke-width="1"/>
    <path id="Path_1514" data-name="Path 1514" d="M68.2,303.373v11.816a3.341,3.341,0,0,0-3.307,3.376H42.576a3.341,3.341,0,0,0-3.307-3.376V303.373A3.341,3.341,0,0,0,42.576,300H64.9A3.341,3.341,0,0,0,68.2,303.373Z" transform="translate(0.763 0.48)" fill="#fff" stroke="#1e70b9" stroke-linejoin="round" stroke-width="1"/>
    <path id="Path_1515" data-name="Path 1515" d="M39.14,319.64H37.4a2.9,2.9,0,0,1-2.9-2.9V315A4.639,4.639,0,0,1,39.14,319.64Z" transform="translate(0 2.88)" fill="#fff" stroke="#1e70b9" stroke-miterlimit="10" stroke-width="1"/>
    <path id="Path_1516" data-name="Path 1516" d="M37.4,297h1.74a4.639,4.639,0,0,1-4.64,4.64V299.9A2.9,2.9,0,0,1,37.4,297Z" fill="#fff" stroke="#1e70b9" stroke-miterlimit="10" stroke-width="1"/>
    <path id="Path_1517" data-name="Path 1517" d="M70.14,299.9v1.74A4.639,4.639,0,0,1,65.5,297h1.74A2.9,2.9,0,0,1,70.14,299.9Z" transform="translate(4.36)" fill="#fff" stroke="#1e70b9" stroke-miterlimit="10" stroke-width="1"/>
    <path id="Path_1518" data-name="Path 1518" d="M70.14,315v1.74a2.9,2.9,0,0,1-2.9,2.9H65.5A4.639,4.639,0,0,1,70.14,315Z" transform="translate(4.36 2.88)" fill="#fff" stroke="#1e70b9" stroke-miterlimit="10" stroke-width="1"/>
    <path id="Path_1519" data-name="Path 1519" d="M39.14,297a4.639,4.639,0,0,1-4.64,4.64V299.9a2.9,2.9,0,0,1,2.9-2.9Z" fill="#fff" stroke="#1e70b9" stroke-miterlimit="10" stroke-width="1"/>
    <path id="Path_1520" data-name="Path 1520" d="M70.14,299.9v1.74A4.639,4.639,0,0,1,65.5,297h1.74A2.9,2.9,0,0,1,70.14,299.9Z" transform="translate(4.36)" fill="#fff" stroke="#1e70b9" stroke-miterlimit="10" stroke-width="1"/>
    <path id="Path_1521" data-name="Path 1521" d="M70.14,315v1.74a2.9,2.9,0,0,1-2.9,2.9H65.5A4.639,4.639,0,0,1,70.14,315Z" transform="translate(4.36 2.88)" fill="#fff" stroke="#1e70b9" stroke-miterlimit="10" stroke-width="1"/>
    <path id="Path_1522" data-name="Path 1522" d="M39.14,319.64H37.4a2.9,2.9,0,0,1-2.9-2.9V315A4.639,4.639,0,0,1,39.14,319.64Z" transform="translate(0 2.88)" fill="#fff" stroke="#1e70b9" stroke-miterlimit="10" stroke-width="1"/>
    <g id="Group_2173" data-name="Group 2173" transform="translate(46.608 307.064)">
      <g id="Group_2172" data-name="Group 2172">
        <g id="Group_2171" data-name="Group 2171">
          <circle id="Ellipse_96" data-name="Ellipse 96" cx="2.696" cy="2.696" r="2.696" fill="#fff" stroke="#1e70b9" stroke-miterlimit="10" stroke-width="1"/>
          <line id="Line_145" data-name="Line 145" x2="10.393" transform="translate(5.391 2.696)" fill="none" stroke="#1e70b9" stroke-linecap="round" stroke-miterlimit="10" stroke-width="1"/>
          <line id="Line_146" data-name="Line 146" y2="1.532" transform="translate(12.647 2.696)" fill="none" stroke="#1e70b9" stroke-linecap="round" stroke-miterlimit="10" stroke-width="1"/>
          <line id="Line_147" data-name="Line 147" y2="2.071" transform="translate(14.247 2.696)" fill="none" stroke="#1e70b9" stroke-linecap="round" stroke-miterlimit="10" stroke-width="1"/>
        </g>
      </g>
    </g>
  </g>
</svg>
