<svg xmlns="http://www.w3.org/2000/svg" width="31" height="41" viewBox="0 0 31 41">
  <g id="Paraphrasing_" data-name="Paraphrasing " transform="translate(-122.375 -119.333)">
    <g id="Group_1980" data-name="Group 1980" transform="translate(122.875 119.833)">
      <g id="Group_1978" data-name="Group 1978">
        <g id="Group_1977" data-name="Group 1977">
          <path id="Path_1463" data-name="Path 1463" d="M150.018,159.833H125.732a2.857,2.857,0,0,1-2.857-2.857V122.69a2.857,2.857,0,0,1,2.857-2.857h16.793a2.854,2.854,0,0,1,2.019.838l7.494,7.493a2.857,2.857,0,0,1,.837,2.021v26.792A2.857,2.857,0,0,1,150.018,159.833Z" transform="translate(-122.875 -119.833)" fill="#fff" stroke="#1e70b9" stroke-miterlimit="10" stroke-width="1"/>
          <path id="Path_1464" data-name="Path 1464" d="M139.49,123.219v7.143h7.143" transform="translate(-120.501 -119.349)" fill="none" stroke="#1e70b9" stroke-linecap="round" stroke-linejoin="round" stroke-width="1"/>
          <g id="Group_1976" data-name="Group 1976" transform="translate(5.56 31.143)">
            <line id="Line_57" data-name="Line 57" x2="18.88" transform="translate(0 4.286)" fill="none" stroke="#1e70b9" stroke-linecap="round" stroke-miterlimit="10" stroke-width="1"/>
            <line id="Line_58" data-name="Line 58" x2="11.737" transform="translate(7.143)" fill="none" stroke="#1e70b9" stroke-linecap="round" stroke-miterlimit="10" stroke-width="1"/>
            <line id="Line_59" data-name="Line 59" x2="3.165" fill="none" stroke="#1e70b9" stroke-linecap="round" stroke-miterlimit="10" stroke-width="1"/>
          </g>
        </g>
      </g>
      <g id="Group_1979" data-name="Group 1979" transform="translate(9.286 15.82)">
        <line id="Line_60" data-name="Line 60" x1="1.877" y2="10.646" transform="translate(2.558)" fill="#fff" stroke="#1e70b9" stroke-linecap="round" stroke-miterlimit="10" stroke-width="1"/>
        <line id="Line_61" data-name="Line 61" x1="1.877" y2="10.646" transform="translate(6.994)" fill="#fff" stroke="#1e70b9" stroke-linecap="round" stroke-miterlimit="10" stroke-width="1"/>
        <line id="Line_62" data-name="Line 62" x1="10.646" transform="translate(0.782 3.105)" fill="#fff" stroke="#1e70b9" stroke-linecap="round" stroke-miterlimit="10" stroke-width="1"/>
        <line id="Line_63" data-name="Line 63" x1="10.646" transform="translate(0 7.541)" fill="#fff" stroke="#1e70b9" stroke-linecap="round" stroke-miterlimit="10" stroke-width="1"/>
      </g>
    </g>
  </g>
</svg>
