<svg xmlns="http://www.w3.org/2000/svg" width="31" height="41" viewBox="0 0 31 41">
  <g id="Password_Generator" data-name="Password Generator" transform="translate(-206.048 -34)">
    <g id="Group_2818" data-name="Group 2818" transform="translate(206.548 34.5)">
      <g id="Group_2816" data-name="Group 2816">
        <g id="Group_2815" data-name="Group 2815">
          <path id="Rectangle_638" data-name="Rectangle 638" d="M7.788,0H9.265a7.788,7.788,0,0,1,7.788,7.788v7.006a.445.445,0,0,1-.445.445H.445A.445.445,0,0,1,0,14.794V7.788A7.788,7.788,0,0,1,7.788,0Z" transform="translate(6.473)" fill="#fff" stroke="#1e70b9" stroke-miterlimit="10" stroke-width="1"/>
          <rect id="Rectangle_639" data-name="Rectangle 639" width="30" height="24.761" rx="2.5" transform="translate(0 15.239)" fill="#fff" stroke="#1e70b9" stroke-miterlimit="10" stroke-width="1"/>
        </g>
      </g>
      <g id="Group_2817" data-name="Group 2817" transform="translate(5.87 25.18)">
        <path id="Path_1751" data-name="Path 1751" d="M216.145,59.332l-.77-.358.766-.355a.628.628,0,0,0,.417-.591.636.636,0,0,0-.629-.641.74.74,0,0,0-.438.161l-.656.461.062-.777a.618.618,0,0,0-1.073-.5.641.641,0,0,0-.153.5l.062.778-.653-.458a.729.729,0,0,0-.458-.162h0a.653.653,0,0,0-.607.641.663.663,0,0,0,.413.589l.77.358-.741.345a.628.628,0,0,0,.186,1.229.739.739,0,0,0,.438-.161l.656-.461-.062.778a.633.633,0,0,0,.147.5.618.618,0,0,0,1.079-.482l-.062-.794.654.461a.707.707,0,0,0,.439.161.644.644,0,0,0,.629-.642A.6.6,0,0,0,216.145,59.332Z" transform="translate(-212.011 -56.532)" fill="#1e70b9"/>
        <path id="Path_1752" data-name="Path 1752" d="M222.145,59.332l-.77-.358.766-.355a.628.628,0,0,0,.417-.591.636.636,0,0,0-.629-.641.74.74,0,0,0-.438.161l-.656.461.062-.777a.618.618,0,0,0-1.073-.5.641.641,0,0,0-.153.5l.062.778-.653-.458a.729.729,0,0,0-.458-.162h0a.653.653,0,0,0-.607.641.663.663,0,0,0,.413.589l.77.358-.741.345a.628.628,0,0,0,.186,1.229.739.739,0,0,0,.438-.161l.656-.461-.062.778a.633.633,0,0,0,.147.5.618.618,0,0,0,1.079-.482l-.062-.794.654.461a.707.707,0,0,0,.439.161.644.644,0,0,0,.629-.642A.6.6,0,0,0,222.145,59.332Z" transform="translate(-211.154 -56.532)" fill="#1e70b9"/>
        <path id="Path_1753" data-name="Path 1753" d="M228.145,59.332l-.77-.358.766-.355a.628.628,0,0,0,.417-.591.636.636,0,0,0-.629-.641.74.74,0,0,0-.438.161l-.656.461.062-.777a.618.618,0,0,0-1.073-.5.641.641,0,0,0-.153.5l.062.778-.653-.458a.729.729,0,0,0-.458-.162h0a.653.653,0,0,0-.607.641.663.663,0,0,0,.413.589l.77.358-.741.345a.628.628,0,0,0,.186,1.229.739.739,0,0,0,.438-.161l.656-.461-.062.778a.633.633,0,0,0,.147.5.618.618,0,0,0,1.079-.482l-.062-.794.654.461a.707.707,0,0,0,.439.161.644.644,0,0,0,.629-.642A.6.6,0,0,0,228.145,59.332Z" transform="translate(-210.297 -56.532)" fill="#1e70b9"/>
      </g>
    </g>
  </g>
</svg>
