<svg xmlns="http://www.w3.org/2000/svg" width="19" height="23" viewBox="0 0 19 23">
  <g id="l-password-management-tools" transform="translate(-121.449 -204.667)">
    <g id="Group_1460" data-name="Group 1460" transform="translate(121.949 205.167)">
      <path id="Rectangle_339" data-name="Rectangle 339" d="M5.571,0h0a5.571,5.571,0,0,1,5.571,5.571V9.179a0,0,0,0,1,0,0H0a0,0,0,0,1,0,0V5.571A5.571,5.571,0,0,1,5.571,0Z" transform="translate(3.429)" fill="#fff" stroke="#1e70b9" stroke-linecap="round" stroke-linejoin="round" stroke-width="1"/>
      <rect id="Rectangle_340" data-name="Rectangle 340" width="18" height="13.321" rx="2" transform="translate(0 8.679)" fill="#fff" stroke="#1e70b9" stroke-linecap="round" stroke-linejoin="round" stroke-width="1"/>
    </g>
    <rect id="Rectangle_341" data-name="Rectangle 341" width="13.17" height="4.632" rx="2" transform="translate(124.364 218.312)" fill="#fff" stroke="#1e70b9" stroke-linecap="round" stroke-linejoin="round" stroke-width="1"/>
    <g id="Group_1461" data-name="Group 1461" transform="translate(126.412 219.69)">
      <path id="Path_1341" data-name="Path 1341" d="M130.566,229.4l-.292-.125.291-.129a.256.256,0,0,0-.085-.5.277.277,0,0,0-.181.069l-.245.179.032-.286a.249.249,0,0,0-.433-.206.263.263,0,0,0-.059.21l.032.283-.243-.177a.267.267,0,0,0-.177-.071.256.256,0,0,0-.092.5l.293.13-.294.127a.275.275,0,0,0-.17.239.264.264,0,0,0,.258.263.311.311,0,0,0,.181-.069l.245-.18-.032.287a.255.255,0,0,0,.057.206.253.253,0,0,0,.376,0,.263.263,0,0,0,.058-.208l-.031-.284.248.183a.316.316,0,0,0,.173.066.264.264,0,0,0,.263-.258A.267.267,0,0,0,130.566,229.4Z" transform="translate(-128.942 -228.321)" fill="#1e70b9"/>
      <path id="Path_1342" data-name="Path 1342" d="M134.34,229.4l-.292-.125.291-.129a.256.256,0,0,0-.085-.5.277.277,0,0,0-.182.069l-.245.179.033-.286a.254.254,0,0,0-.057-.206.258.258,0,0,0-.376,0,.265.265,0,0,0-.059.21l.031.283-.243-.177a.269.269,0,0,0-.177-.071.256.256,0,0,0-.092.5l.292.13-.293.127a.275.275,0,0,0-.171.239.264.264,0,0,0,.258.263.313.313,0,0,0,.181-.069l.245-.18-.031.287a.257.257,0,0,0,.057.206.245.245,0,0,0,.189.084.241.241,0,0,0,.187-.084.261.261,0,0,0,.059-.208l-.032-.284.248.183a.314.314,0,0,0,.173.066.264.264,0,0,0,.262-.258A.267.267,0,0,0,134.34,229.4Z" transform="translate(-130.29 -228.321)" fill="#1e70b9"/>
      <path id="Path_1343" data-name="Path 1343" d="M138.115,229.4l-.292-.125.291-.129a.256.256,0,0,0-.085-.5.277.277,0,0,0-.181.069l-.245.179.032-.286a.249.249,0,0,0-.433-.206.263.263,0,0,0-.059.21l.032.283-.243-.177a.27.27,0,0,0-.178-.071.256.256,0,0,0-.092.5l.293.13-.294.127a.275.275,0,0,0-.17.239.264.264,0,0,0,.258.263.315.315,0,0,0,.181-.069l.245-.18-.032.287a.255.255,0,0,0,.057.206.253.253,0,0,0,.376,0,.263.263,0,0,0,.059-.208l-.032-.284.248.183a.316.316,0,0,0,.173.066.264.264,0,0,0,.263-.258A.267.267,0,0,0,138.115,229.4Z" transform="translate(-131.638 -228.321)" fill="#1e70b9"/>
      <path id="Path_1344" data-name="Path 1344" d="M141.889,229.4l-.292-.125.291-.129a.256.256,0,0,0-.085-.5.274.274,0,0,0-.181.069l-.245.179.032-.286a.254.254,0,0,0-.057-.206.258.258,0,0,0-.376,0,.265.265,0,0,0-.059.21l.032.283-.243-.177a.269.269,0,0,0-.177-.071.256.256,0,0,0-.092.5l.292.13-.293.127a.275.275,0,0,0-.171.239.264.264,0,0,0,.258.263.313.313,0,0,0,.181-.069l.245-.18-.032.287a.257.257,0,0,0,.057.206.245.245,0,0,0,.189.084.241.241,0,0,0,.187-.084.261.261,0,0,0,.059-.208l-.032-.284.247.183a.314.314,0,0,0,.173.066.264.264,0,0,0,.262-.258A.267.267,0,0,0,141.889,229.4Z" transform="translate(-132.986 -228.321)" fill="#1e70b9"/>
    </g>
  </g>
</svg>
