<svg xmlns="http://www.w3.org/2000/svg" width="41" height="41" viewBox="0 0 41 41">
  <g id="Password_Strength_Checker" data-name="Password Strength Checker" transform="translate(-118 -34)">
    <g id="Group_2813" data-name="Group 2813" transform="translate(118.5 34.5)">
      <rect id="Rectangle_630" data-name="Rectangle 630" width="40" height="40" rx="2.5" fill="#fff" stroke="#1e70b9" stroke-linecap="round" stroke-linejoin="round" stroke-width="1"/>
      <g id="Group_2812" data-name="Group 2812" transform="translate(4.569 7.997)">
        <g id="Group_2811" data-name="Group 2811" transform="translate(9.275)">
          <g id="Group_2810" data-name="Group 2810">
            <path id="Rectangle_631" data-name="Rectangle 631" d="M3.115,0H4A3.115,3.115,0,0,1,7.118,3.115V5.648a.445.445,0,0,1-.445.445H.445A.445.445,0,0,1,0,5.648V3.115A3.115,3.115,0,0,1,3.115,0Z" transform="translate(2.588)" fill="#fff" stroke="#1e70b9" stroke-miterlimit="10" stroke-width="1"/>
            <rect id="Rectangle_632" data-name="Rectangle 632" width="12.294" height="9.9" rx="2" transform="translate(0 6.093)" fill="#fff" stroke="#1e70b9" stroke-miterlimit="10" stroke-width="1"/>
          </g>
        </g>
        <rect id="Rectangle_633" data-name="Rectangle 633" width="6.169" height="3.427" transform="translate(0 20.562)" fill="#fff" stroke="#1e70b9" stroke-miterlimit="10" stroke-width="1"/>
        <rect id="Rectangle_634" data-name="Rectangle 634" width="6.169" height="3.427" transform="translate(6.169 20.562)" fill="#fff" stroke="#1e70b9" stroke-miterlimit="10" stroke-width="1"/>
        <rect id="Rectangle_635" data-name="Rectangle 635" width="6.169" height="3.427" transform="translate(12.337 20.562)" fill="#fff" stroke="#1e70b9" stroke-miterlimit="10" stroke-width="1"/>
        <rect id="Rectangle_636" data-name="Rectangle 636" width="6.169" height="3.427" transform="translate(18.506 20.562)" fill="#fff" stroke="#1e70b9" stroke-miterlimit="10" stroke-width="1"/>
        <rect id="Rectangle_637" data-name="Rectangle 637" width="6.169" height="3.427" transform="translate(24.675 20.562)" fill="#fff" stroke="#1e70b9" stroke-miterlimit="10" stroke-width="1"/>
      </g>
    </g>
  </g>
</svg>
