<svg xmlns="http://www.w3.org/2000/svg" width="41" height="33" viewBox="0 0 41 33">
  <g id="Password_Encryption_Utility" data-name="Password Encryption Utility" transform="translate(-34 -37.5)">
    <g id="Group_2808" data-name="Group 2808" transform="translate(34.5 38)">
      <g id="Group_2805" data-name="Group 2805">
        <g id="Group_2804" data-name="Group 2804">
          <g id="Group_2803" data-name="Group 2803">
            <g id="Group_2801" data-name="Group 2801">
              <rect id="Rectangle_627" data-name="Rectangle 627" width="40" height="32" rx="2" fill="#fff" stroke="#1e70b9" stroke-linecap="round" stroke-linejoin="round" stroke-width="1"/>
            </g>
            <g id="Group_2802" data-name="Group 2802" transform="translate(2.285 2.285)">
              <circle id="Ellipse_239" data-name="Ellipse 239" cx="0.804" cy="0.804" r="0.804" fill="#1e70b9"/>
              <circle id="Ellipse_240" data-name="Ellipse 240" cx="0.804" cy="0.804" r="0.804" transform="translate(3.217)" fill="#1e70b9"/>
              <circle id="Ellipse_241" data-name="Ellipse 241" cx="0.804" cy="0.804" r="0.804" transform="translate(6.434)" fill="#1e70b9"/>
            </g>
            <line id="Line_344" data-name="Line 344" x2="39.991" transform="translate(0 6.179)" fill="none" stroke="#1e70b9" stroke-linecap="round" stroke-linejoin="round" stroke-width="1"/>
          </g>
        </g>
      </g>
      <g id="Group_2807" data-name="Group 2807" transform="translate(13.847 11.082)">
        <g id="Group_2806" data-name="Group 2806">
          <path id="Rectangle_628" data-name="Rectangle 628" d="M3.115,0H4A3.115,3.115,0,0,1,7.119,3.115V5.649a.445.445,0,0,1-.445.445H.445A.445.445,0,0,1,0,5.649V3.115A3.115,3.115,0,0,1,3.115,0Z" transform="translate(2.589)" fill="#fff" stroke="#1e70b9" stroke-miterlimit="10" stroke-width="1"/>
          <rect id="Rectangle_629" data-name="Rectangle 629" width="12.297" height="9.902" rx="2" transform="translate(0 6.094)" fill="#fff" stroke="#1e70b9" stroke-miterlimit="10" stroke-width="1"/>
        </g>
      </g>
    </g>
  </g>
</svg>
