<svg xmlns="http://www.w3.org/2000/svg" width="37" height="35" viewBox="0 0 37 35">
  <g id="Paypal_Fee_Calculator" data-name="Paypal Fee Calculator" transform="translate(535.9 -551.845)">
    <path id="Path_2188" data-name="Path 2188" d="M16.951,16.345h20.1a3.378,3.378,0,0,1,3.35,3.406v23.84A3.379,3.379,0,0,1,37.055,47h-20.1A3.38,3.38,0,0,1,13.6,43.591V19.751a3.379,3.379,0,0,1,3.351-3.406" transform="translate(-549 536)" fill="#fff"/>
    <path id="Rectangle_614" data-name="Rectangle 614" d="M3.351,0h20.1a3.35,3.35,0,0,1,3.35,3.35V27.3a3.351,3.351,0,0,1-3.351,3.351H3.351A3.351,3.351,0,0,1,0,27.3V3.351A3.351,3.351,0,0,1,3.351,0Z" transform="translate(-535.4 552.345)" fill="none" stroke="#1e70b9" stroke-miterlimit="10" stroke-width="1"/>
    <path id="Path_2189" data-name="Path 2189" d="M21.977,23.047H32.029A1.675,1.675,0,0,1,33.7,24.722V26.4a1.675,1.675,0,0,1-1.675,1.675H21.977A1.675,1.675,0,0,1,20.3,26.4V24.722a1.675,1.675,0,0,1,1.675-1.675" transform="translate(-548.902 536.117)" fill="#fff"/>
    <rect id="Rectangle_615" data-name="Rectangle 615" width="13.402" height="5.026" rx="1.675" transform="translate(-528.6 559.163)" fill="none" stroke="#1e70b9" stroke-miterlimit="10" stroke-width="1"/>
    <line id="Line_539" data-name="Line 539" x2="3.362" transform="translate(-530.412 571.047)" fill="none" stroke="#1e70b9" stroke-miterlimit="10" stroke-width="1"/>
    <line id="Line_540" data-name="Line 540" x2="3.362" transform="translate(-523.559 571.064)" fill="none" stroke="#1e70b9" stroke-miterlimit="10" stroke-width="1"/>
    <line id="Line_541" data-name="Line 541" x2="3.362" transform="translate(-523.559 571.064)" fill="none" stroke="#1e70b9" stroke-miterlimit="10" stroke-width="1"/>
    <line id="Line_542" data-name="Line 542" x2="3.362" transform="translate(-516.79 570.97)" fill="none" stroke="#1e70b9" stroke-miterlimit="10" stroke-width="1"/>
    <line id="Line_543" data-name="Line 543" x2="3.362" transform="translate(-530.412 576.147)" fill="none" stroke="#1e70b9" stroke-miterlimit="10" stroke-width="1"/>
    <line id="Line_544" data-name="Line 544" x2="3.362" transform="translate(-523.559 576.164)" fill="none" stroke="#1e70b9" stroke-miterlimit="10" stroke-width="1"/>
    <line id="Line_545" data-name="Line 545" x2="3.362" transform="translate(-516.79 576.07)" fill="none" stroke="#1e70b9" stroke-miterlimit="10" stroke-width="1"/>
    <path id="Path_2190" data-name="Path 2190" d="M49.273,39.724A10.125,10.125,0,1,1,39.148,29.6,10.125,10.125,0,0,1,49.273,39.724" transform="translate(-548.673 536.496)" fill="#fff"/>
    <circle id="Ellipse_210" data-name="Ellipse 210" cx="10.125" cy="10.125" r="10.125" transform="translate(-519.65 566.095)" fill="none" stroke="#1e70b9" stroke-miterlimit="10" stroke-width="1"/>
    <path id="Path_2191" data-name="Path 2191" d="M38.264,40.336h1.458a3.136,3.136,0,0,0,2.916-2.916,2.725,2.725,0,0,0-2.916-2.915H36.514a.627.627,0,0,0-.583.583l-1.166,8.164a.627.627,0,0,0,.583.583h1.633l.7-2.916c.058-.35.233-.583.583-.583m4.374-3.382a3.107,3.107,0,0,1,1.457,2.8,2.876,2.876,0,0,1-2.915,2.624H39.663l-.35,2.1a.583.583,0,0,1-.583.467H37.156a.293.293,0,0,1-.3-.286.462.462,0,0,1,.006-.064l.117-.817" transform="translate(-548.673 536.496)" fill="#fff"/>
    <path id="Path_2192" data-name="Path 2192" d="M38.264,40.336h1.458a3.136,3.136,0,0,0,2.916-2.916,2.725,2.725,0,0,0-2.916-2.915H36.514a.627.627,0,0,0-.583.583l-1.166,8.164a.627.627,0,0,0,.583.583h1.633l.7-2.916C37.739,40.569,37.914,40.336,38.264,40.336Zm4.374-3.382a3.107,3.107,0,0,1,1.457,2.8,2.876,2.876,0,0,1-2.915,2.624H39.663l-.35,2.1a.583.583,0,0,1-.583.467H37.156a.293.293,0,0,1-.3-.286.462.462,0,0,1,.006-.064l.117-.817" transform="translate(-548.673 536.496)" fill="none" stroke="#1e70b9" stroke-miterlimit="10" stroke-width="1"/>
  </g>
</svg>
