<svg xmlns="http://www.w3.org/2000/svg" width="19" height="25" viewBox="0 0 19 25">
  <g id="l-online-pdf-tools" transform="translate(-206.375 -204.667)">
    <g id="Group_1463" data-name="Group 1463" transform="translate(206.875 205.167)">
      <path id="Path_1345" data-name="Path 1345" d="M223.161,229.167H208.589a1.714,1.714,0,0,1-1.714-1.714V206.881a1.714,1.714,0,0,1,1.714-1.714h10.076a1.711,1.711,0,0,1,1.212.5l4.5,4.5a1.714,1.714,0,0,1,.5,1.212v16.076A1.714,1.714,0,0,1,223.161,229.167Z" transform="translate(-206.875 -205.167)" fill="#fff" stroke="#1e70b9" stroke-miterlimit="10" stroke-width="1"/>
      <path id="Path_1346" data-name="Path 1346" d="M223.49,208.552v4.292h4.292" transform="translate(-212.106 -206.228)" fill="none" stroke="#1e70b9" stroke-linecap="round" stroke-linejoin="round" stroke-width="1"/>
    </g>
    <g id="Group_1464" data-name="Group 1464" transform="translate(209.598 218.337)">
      <path id="Path_1347" data-name="Path 1347" d="M214.281,224.972h-1.352a.418.418,0,0,0-.422.421v3.678a.418.418,0,0,0,.837,0v-1.038h.849c1.092,0,1.8-.6,1.8-1.54v-.013A1.517,1.517,0,0,0,214.281,224.972Zm-.064,2.3h-.874v-1.534h.874c.588,0,.925.277.925.761v.012C215.142,226.967,214.771,227.272,214.218,227.272Z" transform="translate(-212.507 -224.972)" fill="#1e70b9"/>
      <path id="Path_1348" data-name="Path 1348" d="M219.23,224.972h-1.258a.417.417,0,0,0-.421.421v3.641a.417.417,0,0,0,.421.421h1.258a2.238,2.238,0,0,0,2.38-2.242V227.2A2.232,2.232,0,0,0,219.23,224.972Zm1.506,2.254a1.406,1.406,0,0,1-1.506,1.463h-.843v-2.95h.843a1.427,1.427,0,0,1,1.506,1.475Z" transform="translate(-213.326 -224.972)" fill="#1e70b9"/>
      <path id="Path_1349" data-name="Path 1349" d="M226.455,225.738a.383.383,0,0,0,0-.766h-2.579a.417.417,0,0,0-.421.421v3.678a.418.418,0,0,0,.836,0v-1.417h1.88a.384.384,0,0,0,0-.768h-1.88v-1.148Z" transform="translate(-214.284 -224.972)" fill="#1e70b9"/>
    </g>
  </g>
</svg>
