<svg xmlns="http://www.w3.org/2000/svg" width="68" height="56" viewBox="0 0 68 56">
  <g id="Group_1124" data-name="Group 1124" transform="translate(-1462 -1056.999)">
    <g id="Group_1122" data-name="Group 1122" transform="translate(1013 647.999)">
      <path id="Path_152" data-name="Path 152" d="M8.615,0H47.385A8.615,8.615,0,0,1,56,8.615V47.385A8.615,8.615,0,0,1,47.385,56H8.615A8.615,8.615,0,0,1,0,47.385V8.615A8.615,8.615,0,0,1,8.615,0Z" transform="translate(449 409)" fill="#eef1f5"/>
      <g id="Group_1" data-name="Group 1" transform="translate(463.843 420.09)">
        <path id="Path_52" data-name="Path 52" d="M322.667,125.857l-.055,29.494,3.108.273v2.78h22.952V136.76l-2.889-3.38v-7.523Z" transform="translate(-322.152 -125.213)" fill="#fff" stroke="#1e70b9" stroke-width="0.5"/>
        <path id="Path_1" data-name="Path 1" d="M348.031,145H333a.6.6,0,1,0,0,1.2h15.031a.6.6,0,0,0,0-1.2Zm0,0" transform="translate(-325.699 -130.941)" fill="#1e70b9" stroke="#1e70b9" stroke-width="0.5"/>
        <path id="Path_2" data-name="Path 2" d="M333,139.8h6.013a.6.6,0,1,0,0-1.2H333a.6.6,0,1,0,0,1.2Zm0,0" transform="translate(-325.234 -129.04)" fill="#1e70b9" stroke="#1e70b9" stroke-width="0.5"/>
        <path id="Path_3" data-name="Path 3" d="M348.031,151.4H333a.6.6,0,1,0,0,1.2h15.031a.6.6,0,0,0,0-1.2Zm0,0" transform="translate(-325.699 -132.841)" fill="#1e70b9" stroke="#1e70b9" stroke-width="0.5"/>
        <path id="Path_4" data-name="Path 4" d="M348.031,157.8H333a.6.6,0,1,0,0,1.2h15.031a.6.6,0,1,0,0-1.2Zm0,0" transform="translate(-325.699 -134.743)" fill="#1e70b9" stroke="#1e70b9" stroke-width="0.5"/>
        <path id="Path_5" data-name="Path 5" d="M348.031,164.2H333a.6.6,0,1,0,0,1.2h15.031a.6.6,0,0,0,0-1.2Zm0,0" transform="translate(-325.699 -136.993)" fill="#1e70b9" stroke="#1e70b9" stroke-width="0.5"/>
        <path id="Path_6" data-name="Path 6" d="M346.238,133.221V125H322v31h2.818v2.818h24.238V136.04Zm-5.073-3.479,5.968,5.967h-5.968Zm-18.036,25.132V126.129h21.984V132.1l-4.278-4.277H324.819v27.055Zm2.819,2.818V128.947H340.04v7.891h7.891v20.854Zm0,0" transform="translate(-322 -125)" fill="#1e70b9" stroke="#1e70b9" stroke-width="0.5"/>
      </g>
    </g>
    <g id="Group_1123" data-name="Group 1123" transform="translate(-2 3)">
      <g id="Rectangle_86" data-name="Rectangle 86" transform="translate(1510 1066)" fill="#df4937" stroke="#fff" stroke-width="2">
        <rect width="20" height="20" rx="10" stroke="none"/>
        <rect x="-1" y="-1" width="22" height="22" rx="11" fill="none"/>
      </g>
      <g id="wordpress-logo" transform="translate(1511.999 1068)" style="isolation: isolate">
        <g id="Group_187" data-name="Group 187" transform="translate(0.001)">
          <path id="Path_23" data-name="Path 23" d="M39.586,51.833l-1.892,5.5a6.307,6.307,0,0,0,3.876-.1.56.56,0,0,1-.045-.087Z" transform="translate(-31.474 -43.28)" fill="#fff"/>
          <path id="Path_24" data-name="Path 24" d="M10.272,35.5a6.307,6.307,0,0,0,3.555,5.676l-3.008-8.242A6.284,6.284,0,0,0,10.272,35.5Z" transform="translate(-8.577 -27.5)" fill="#fff"/>
          <path id="Path_25" data-name="Path 25" d="M26.087,16.26a3.324,3.324,0,0,0-.52-1.739,2.951,2.951,0,0,1-.619-1.479,1.092,1.092,0,0,1,1.059-1.119c.028,0,.054,0,.082,0a6.305,6.305,0,0,0-9.528,1.187c.148,0,.287.008.406.008.66,0,1.681-.08,1.681-.08a.26.26,0,0,1,.04.519s-.342.04-.722.06l2.3,6.831,1.38-4.139-.983-2.692c-.34-.02-.661-.06-.661-.06a.26.26,0,0,1,.04-.519s1.042.08,1.661.08c.66,0,1.681-.08,1.681-.08a.26.26,0,0,1,.04.519s-.342.04-.722.06L24.978,20.4l.629-2.1A7.624,7.624,0,0,0,26.087,16.26Z" transform="translate(-13.828 -8.577)" fill="#fff"/>
          <path id="Path_26" data-name="Path 26" d="M70.066,30.153a4.846,4.846,0,0,1,.043.649,5.947,5.947,0,0,1-.479,2.259L67.7,38.63a6.306,6.306,0,0,0,2.363-8.477Z" transform="translate(-56.531 -25.177)" fill="#fff"/>
          <path id="Path_27" data-name="Path 27" d="M8,0a8,8,0,1,0,8,8A8,8,0,0,0,8,0ZM8,15.016A7.014,7.014,0,1,1,15.017,8,7.022,7.022,0,0,1,8,15.016Z" transform="translate(-0.001)" fill="#fff"/>
        </g>
      </g>
    </g>
  </g>
</svg>
