<svg xmlns="http://www.w3.org/2000/svg" width="41" height="41" viewBox="0 0 41 41">
  <g id="png_to_jpg" data-name="png to jpg" transform="translate(-118 -204.667)">
    <g id="Group_2080" data-name="Group 2080" transform="translate(118.5 205.167)">
      <g id="Group_2078" data-name="Group 2078">
        <g id="Group_2077" data-name="Group 2077">
          <g id="Group_2075" data-name="Group 2075">
            <rect id="Rectangle_439" data-name="Rectangle 439" width="26.815" height="26.815" rx="2.5" fill="#fff" stroke="#1e70b9" stroke-miterlimit="10" stroke-width="1"/>
            <rect id="Rectangle_440" data-name="Rectangle 440" width="26.815" height="26.815" rx="2.5" transform="translate(13.185 13.185)" fill="#fff" stroke="#1e70b9" stroke-miterlimit="10" stroke-width="1"/>
          </g>
          <g id="Group_2076" data-name="Group 2076" transform="translate(4.443 4.443)">
            <line id="Line_91" data-name="Line 91" x2="7.134" y2="7.134" fill="#fff" stroke="#1e70b9" stroke-linecap="round" stroke-miterlimit="10" stroke-width="1"/>
            <path id="Path_1498" data-name="Path 1498" d="M129.04,212.114v3.593h-3.593" transform="translate(-121.906 -208.573)" fill="none" stroke="#1e70b9" stroke-linecap="round" stroke-linejoin="round" stroke-width="1"/>
          </g>
        </g>
      </g>
      <g id="Group_2079" data-name="Group 2079" transform="translate(18.739 23.488)">
        <path id="Path_1499" data-name="Path 1499" d="M138.38,225.789a.581.581,0,0,0-.581.58v3.494c0,.684-.315,1.093-.842,1.093a1.083,1.083,0,0,1-.964-.546.543.543,0,0,0-.421-.2.581.581,0,0,0-.572.572.555.555,0,0,0,.144.379,2.141,2.141,0,0,0,1.8.9,1.984,1.984,0,0,0,1.423-.542,2.289,2.289,0,0,0,.593-1.664v-3.484A.578.578,0,0,0,138.38,225.789Z" transform="translate(-134.999 -225.733)" fill="#1e70b9"/>
        <path id="Path_1500" data-name="Path 1500" d="M141.665,225.824h-1.794a.586.586,0,0,0-.575.58v5.03a.578.578,0,1,0,1.156,0v-1.448h1.109a2.19,2.19,0,0,0,2.471-2.117A2.083,2.083,0,0,0,141.665,225.824Zm1.206,2.085c0,.6-.506.981-1.287.981h-1.131v-1.963h1.165C142.425,226.927,142.87,227.277,142.87,227.909Z" transform="translate(-134.358 -225.727)" fill="#1e70b9"/>
        <path id="Path_1501" data-name="Path 1501" d="M148.828,228.46h-1.811a.544.544,0,0,0,0,1.088h1.255v1.015A2.432,2.432,0,0,1,146.9,231a1.929,1.929,0,0,1-1.97-2.1,1.952,1.952,0,0,1,1.882-2.052,2.145,2.145,0,0,1,1.405.464.6.6,0,0,0,.356.132.578.578,0,0,0,.573-.58.585.585,0,0,0-.237-.465,3.246,3.246,0,0,0-2.075-.654,3.1,3.1,0,0,0-3.084,3.172v.016a3,3,0,0,0,3.125,3.156,3.688,3.688,0,0,0,2.188-.726.707.707,0,0,0,.332-.6v-1.715A.584.584,0,0,0,148.828,228.46Z" transform="translate(-133.693 -225.74)" fill="#1e70b9"/>
      </g>
    </g>
  </g>
</svg>
