<svg xmlns="http://www.w3.org/2000/svg" width="26.814" height="34" viewBox="0 0 26.814 34">
  <g id="Poster_Maker" transform="translate(0.7 1)">
    <g id="Group_3306" transform="translate(-0.7 -1)">
      <path id="Rectangle_806_-_Outline" d="M24.039-1H1.372A2.144,2.144,0,0,0-.7,1.137v29.79A2.087,2.087,0,0,0,1.372,33H24.039a2.087,2.087,0,0,0,2.072-2.072V1.137A2.061,2.061,0,0,0,24.039-1ZM.271,30.928V1.137A1.161,1.161,0,0,1,1.437-.029H24.1A1.161,1.161,0,0,1,25.27,1.137v29.79A1.161,1.161,0,0,1,24.1,32.093H1.437A1.252,1.252,0,0,1,.271,30.928Z" transform="translate(0.7 1)" fill="#1e70b9"/>
      <path id="Path_13529" data-name="Path 13529" d="M21.275,42.918a.511.511,0,0,1-.518.518h-4.4a.462.462,0,0,1-.453-.518.5.5,0,0,1,.453-.518h4.4C21.081,42.465,21.275,42.659,21.275,42.918Z" transform="translate(-5.15 -14.293)" fill="#1e70b9"/>
      <path id="Path_13530" data-name="Path 13530" d="M22.5,39.718a.511.511,0,0,1-.518.518H12.918a.518.518,0,1,1,0-1.036H22.05A.556.556,0,0,1,22.5,39.718Z" transform="translate(-3.916 -13.166)" fill="#1e70b9"/>
      <path id="Path_1970" d="M21.965,14.617l-.194-1.166A6.685,6.685,0,0,0,16.46,8.53a7.136,7.136,0,0,0-1.166-.13h-.13a6.865,6.865,0,1,0,6.865,6.865A2.2,2.2,0,0,0,21.965,14.617Zm-.907.648a5.893,5.893,0,1,1-11.787,0,5.819,5.819,0,0,1,5.44-5.829H15.1a2.2,2.2,0,0,1,.648.065,5.848,5.848,0,0,1,5.116,4.728,2.685,2.685,0,0,1,.194,1.036Z" transform="translate(-2.471 -2.312)" fill="#1e70b9"/>
      <path id="Path_1971" d="M22.4,5.4a4.629,4.629,0,0,0-3.756,1.943,7.078,7.078,0,0,0-.518.971A4.865,4.865,0,0,0,17.8,10a4.616,4.616,0,0,0,4.6,4.6,3.911,3.911,0,0,0,1.943-.453,3.865,3.865,0,0,0,.971-.583A4.6,4.6,0,0,0,22.4,5.4Zm2.72,6.994a4.459,4.459,0,0,1-.842.712,3.541,3.541,0,0,1-1.878.518A3.621,3.621,0,0,1,18.771,10a3.326,3.326,0,0,1,.389-1.619,2.919,2.919,0,0,1,.648-.907,3.668,3.668,0,0,1,2.59-1.1A3.621,3.621,0,0,1,26.025,10,3.327,3.327,0,0,1,25.118,12.394Z" transform="translate(-5.819 -1.255)" fill="#1e70b9"/>
    </g>
  </g>
</svg>
