<svg xmlns="http://www.w3.org/2000/svg" width="13.951" height="13.951" viewBox="0 0 13.951 13.951">
  <g id="settings_1_" data-name="settings (1)" transform="translate(0 0)">
    <path id="Path_1998" data-name="Path 1998" d="M7.413,13.951H6.538a1.286,1.286,0,0,1-1.284-1.284v-.3a5.632,5.632,0,0,1-.875-.363l-.21.21a1.284,1.284,0,0,1-1.816,0L1.734,11.6a1.284,1.284,0,0,1,0-1.816l.21-.21A5.633,5.633,0,0,1,1.58,8.7h-.3A1.286,1.286,0,0,1,0,7.413V6.538A1.286,1.286,0,0,1,1.284,5.253h.3a5.634,5.634,0,0,1,.363-.875l-.21-.21a1.284,1.284,0,0,1,0-1.816l.619-.619a1.284,1.284,0,0,1,1.816,0l.21.21a5.637,5.637,0,0,1,.875-.363v-.3A1.286,1.286,0,0,1,6.538,0h.876A1.286,1.286,0,0,1,8.7,1.284v.3a5.632,5.632,0,0,1,.875.363l.21-.21a1.284,1.284,0,0,1,1.816,0l.619.619a1.284,1.284,0,0,1,0,1.816l-.21.21a5.633,5.633,0,0,1,.363.875h.3a1.286,1.286,0,0,1,1.284,1.284v.876A1.286,1.286,0,0,1,12.667,8.7h-.3a5.634,5.634,0,0,1-.363.875l.21.21a1.284,1.284,0,0,1,0,1.816l-.619.619a1.284,1.284,0,0,1-1.816,0l-.21-.21a5.637,5.637,0,0,1-.875.363v.3A1.286,1.286,0,0,1,7.413,13.951Zm-2.9-2.8a4.818,4.818,0,0,0,1.249.518.409.409,0,0,1,.307.4v.6a.467.467,0,0,0,.467.467h.876a.467.467,0,0,0,.467-.467v-.6a.409.409,0,0,1,.307-.4,4.818,4.818,0,0,0,1.249-.518.409.409,0,0,1,.5.063l.427.427a.467.467,0,0,0,.66,0l.619-.619a.467.467,0,0,0,0-.66l-.428-.428a.409.409,0,0,1-.063-.5,4.817,4.817,0,0,0,.518-1.249.409.409,0,0,1,.4-.307h.6a.467.467,0,0,0,.467-.467V6.538a.467.467,0,0,0-.467-.467h-.6a.409.409,0,0,1-.4-.307,4.818,4.818,0,0,0-.518-1.249.409.409,0,0,1,.063-.5l.427-.427a.467.467,0,0,0,0-.66l-.619-.619a.467.467,0,0,0-.66,0l-.428.428a.409.409,0,0,1-.5.063,4.818,4.818,0,0,0-1.249-.518.409.409,0,0,1-.307-.4v-.6A.467.467,0,0,0,7.413.817H6.538a.467.467,0,0,0-.467.467v.6a.409.409,0,0,1-.307.4A4.818,4.818,0,0,0,4.516,2.8a.409.409,0,0,1-.5-.063l-.427-.427a.467.467,0,0,0-.66,0l-.619.619a.467.467,0,0,0,0,.66l.428.428a.409.409,0,0,1,.063.5,4.817,4.817,0,0,0-.518,1.249.409.409,0,0,1-.4.307h-.6a.467.467,0,0,0-.467.467v.876a.467.467,0,0,0,.467.467h.6a.409.409,0,0,1,.4.307A4.818,4.818,0,0,0,2.8,9.436a.409.409,0,0,1-.063.5l-.427.427a.467.467,0,0,0,0,.66l.619.619a.467.467,0,0,0,.66,0l.428-.428a.411.411,0,0,1,.5-.063Z" fill="#0a6cc3"/>
    <path id="Path_1999" data-name="Path 1999" d="M147.635,150.671a3.035,3.035,0,1,1,3.035-3.035A3.039,3.039,0,0,1,147.635,150.671Zm0-5.253a2.218,2.218,0,1,0,2.218,2.218A2.22,2.22,0,0,0,147.635,145.417Z" transform="translate(-140.66 -140.66)" fill="#0a6cc3"/>
  </g>
</svg>
