<svg xmlns="http://www.w3.org/2000/svg" width="26.279" height="34" viewBox="0 0 26.279 34">
  <g id="Resume_Builder" transform="translate(0.8 0.8)">
    <g id="Group_3315" transform="translate(-0.8 -0.8)">
      <path id="Path_1946_-_Outline" d="M24.57,6.208,18.276.044A2.966,2.966,0,0,0,16.265-.8H2.12A2.936,2.936,0,0,0-.8,2.055v28.29A2.894,2.894,0,0,0,2.12,33.2H22.559a2.936,2.936,0,0,0,2.92-2.855V8.284A3.2,3.2,0,0,0,24.57,6.208Zm-.13,24.138a1.9,1.9,0,0,1-1.947,1.882H2.12A1.984,1.984,0,0,1,.173,30.345V2.055A1.9,1.9,0,0,1,2.12.173H16.265a1.868,1.868,0,0,1,1.363.584l6.294,6.164a2,2,0,0,1,.584,1.3V30.345Z" transform="translate(0.8 0.8)" fill="#1e70b9"/>
      <path id="Path_13531" data-name="Path 13531" d="M16.124,33.019a.512.512,0,0,1-.519.519H7.819a.519.519,0,1,1,0-1.038H15.67A.551.551,0,0,1,16.124,33.019Z" transform="translate(-2.044 -10.893)" fill="#1e70b9"/>
      <path id="Path_13532" data-name="Path 13532" d="M22.967,38.919a.512.512,0,0,1-.519.519H7.719a.519.519,0,1,1,0-1.038H22.513A.463.463,0,0,1,22.967,38.919Z" transform="translate(-2.009 -12.965)" fill="#1e70b9"/>
      <path id="Ellipse_250" d="M15.909,6.5a3.085,3.085,0,0,0-2.336.973A3.461,3.461,0,0,0,12.6,9.809,3.309,3.309,0,1,0,15.909,6.5Zm0,5.645a2.438,2.438,0,0,1-2.4-2.4,2.336,2.336,0,0,1,4.672,0A2.251,2.251,0,0,1,15.909,12.145Z" transform="translate(-3.905 -1.763)" fill="#1e70b9"/>
      <path id="Path_13533" data-name="Path 13533" d="M19.814,23.042h0a.519.519,0,0,1-1.038,0,3.558,3.558,0,0,0-3.569-3.569,3.6,3.6,0,0,0-3.569,3.569.519.519,0,0,1-1.038,0A4.514,4.514,0,0,1,15.142,18.5,4.626,4.626,0,0,1,19.814,23.042Z" transform="translate(-3.203 -5.977)" fill="#1e70b9"/>
    </g>
  </g>
</svg>
