<svg xmlns="http://www.w3.org/2000/svg" width="37" height="33" viewBox="0 0 37 33">
  <g id="Reverse_Text_Generator" data-name="Reverse Text Generator" transform="translate(-20 -20)">
    <g id="Group_1286" data-name="Group 1286" transform="translate(20.5 20.5)">
      <path id="Path_2076" data-name="Path 2076" d="M3.027,0h22.2a3.071,3.071,0,0,1,3.027,3.112V25.934a3.071,3.071,0,0,1-3.027,3.112H3.027A3.071,3.071,0,0,1,0,25.934V3.112A3.071,3.071,0,0,1,3.027,0Z" transform="translate(0 0)" fill="#fff" stroke="#1e70b9" stroke-width="1"/>
      <g id="Group_1285" data-name="Group 1285" transform="translate(9.082 8.257)">
        <g id="Group_1283" data-name="Group 1283">
          <line id="Line_423" data-name="Line 423" x2="9.687" fill="none" stroke="#1e70b9" stroke-linecap="round" stroke-linejoin="round" stroke-width="1"/>
          <line id="Line_424" data-name="Line 424" y2="12.109" transform="translate(4.843)" fill="none" stroke="#1e70b9" stroke-linecap="round" stroke-linejoin="round" stroke-width="1"/>
        </g>
      </g>
    </g>
    <rect id="Rectangle_263" data-name="Rectangle 263" width="17.282" height="17.282" rx="8.641" transform="translate(39.218 35.218)" fill="#fff" stroke="#1e70b9" stroke-miterlimit="10" stroke-width="1"/>
    <g id="Group_1291" data-name="Group 1291" transform="translate(52.099 38.921) rotate(90)">
      <path id="Path_193" data-name="Path 193" d="M4.24,8.48A4.24,4.24,0,1,0,0,4.24" transform="translate(1.396)" fill="none" stroke="#1e70b9" stroke-linecap="round" stroke-linejoin="round" stroke-width="1"/>
      <g id="Group_544" data-name="Group 544" transform="translate(0 2.422)">
        <path id="Path_194" data-name="Path 194" d="M0,0,1.4,1.818,3.214.422" fill="none" stroke="#1e70b9" stroke-linecap="round" stroke-linejoin="round" stroke-width="1"/>
      </g>
    </g>
  </g>
</svg>
