<svg xmlns="http://www.w3.org/2000/svg" width="41.173" height="41.009" viewBox="0 0 41.173 41.009">
  <g id="RGB_to_Hex" data-name="RGB to Hex" transform="translate(-33.364 -204.667)">
    <g id="Group_2073" data-name="Group 2073" transform="translate(34.092 205.167)">
      <g id="Group_2070" data-name="Group 2070" transform="translate(0.526 25.931)">
        <rect id="Rectangle_424" data-name="Rectangle 424" width="13.361" height="39.419" rx="2.5" transform="translate(39.419 0) rotate(90)" fill="#fff" stroke="#1e70b9" stroke-miterlimit="10" stroke-width="1"/>
        <rect id="Rectangle_425" data-name="Rectangle 425" width="7.12" height="7.12" rx="1" transform="translate(37.193 3.12) rotate(90)" fill="#fff" stroke="#1e70b9" stroke-miterlimit="10" stroke-width="1"/>
        <rect id="Rectangle_426" data-name="Rectangle 426" width="7.12" height="7.12" rx="1" transform="translate(27.45 3.12) rotate(90)" fill="#fff" stroke="#1e70b9" stroke-miterlimit="10" stroke-width="1"/>
        <rect id="Rectangle_427" data-name="Rectangle 427" width="7.12" height="7.12" rx="1" transform="translate(17.738 3.12) rotate(90)" fill="#fff" stroke="#1e70b9" stroke-miterlimit="10" stroke-width="1"/>
        <rect id="Rectangle_428" data-name="Rectangle 428" width="4.454" height="4.454" rx="2" transform="translate(6.681 4.454) rotate(90)" fill="#fff" stroke="#1e70b9" stroke-miterlimit="10" stroke-width="1"/>
      </g>
      <g id="Group_2071" data-name="Group 2071" transform="translate(0 3.042)">
        <path id="Path_1497" data-name="Path 1497" d="M2.688.078,10.729.064a2.436,2.436,0,0,1,2.4,2.483l-.063,33.8a2.458,2.458,0,0,1-2.409,2.492l-8.041.015a2.436,2.436,0,0,1-2.4-2.483l.063-33.8A2.458,2.458,0,0,1,2.688.078Z" transform="translate(27.304 0) rotate(45)" fill="#fff" stroke="#1e70b9" stroke-width="1"/>
        <rect id="Rectangle_430" data-name="Rectangle 430" width="7.12" height="7.12" rx="1" transform="translate(28.01 3.858) rotate(45)" fill="#fff" stroke="#1e70b9" stroke-miterlimit="10" stroke-width="1"/>
        <rect id="Rectangle_431" data-name="Rectangle 431" width="7.12" height="7.12" rx="1" transform="translate(21.061 10.76) rotate(45)" fill="#fff" stroke="#1e70b9" stroke-miterlimit="10" stroke-width="1"/>
        <rect id="Rectangle_432" data-name="Rectangle 432" width="7.12" height="7.12" rx="1" transform="translate(14.171 17.614) rotate(45)" fill="#fff" stroke="#1e70b9" stroke-miterlimit="10" stroke-width="1"/>
        <rect id="Rectangle_433" data-name="Rectangle 433" width="4.454" height="4.454" rx="2" transform="translate(7.246 26.381) rotate(45)" fill="#fff" stroke="#1e70b9" stroke-miterlimit="10" stroke-width="1"/>
      </g>
      <g id="Group_2072" data-name="Group 2072" transform="translate(0.526)">
        <rect id="Rectangle_434" data-name="Rectangle 434" width="13.361" height="39.292" rx="2.5" fill="#fff" stroke="#1e70b9" stroke-miterlimit="10" stroke-width="1"/>
        <rect id="Rectangle_435" data-name="Rectangle 435" width="7.12" height="7.12" rx="1" transform="translate(3.12 2.227)" fill="#fff" stroke="#1e70b9" stroke-miterlimit="10" stroke-width="1"/>
        <rect id="Rectangle_436" data-name="Rectangle 436" width="7.12" height="7.12" rx="1" transform="translate(3.12 11.923)" fill="#fff" stroke="#1e70b9" stroke-miterlimit="10" stroke-width="1"/>
        <rect id="Rectangle_437" data-name="Rectangle 437" width="7.12" height="7.12" rx="1" transform="translate(3.12 21.596)" fill="#fff" stroke="#1e70b9" stroke-miterlimit="10" stroke-width="1"/>
        <rect id="Rectangle_438" data-name="Rectangle 438" width="4.454" height="4.454" rx="2" transform="translate(4.454 32.611)" fill="#fff" stroke="#1e70b9" stroke-miterlimit="10" stroke-width="1"/>
      </g>
    </g>
  </g>
</svg>
