<svg xmlns="http://www.w3.org/2000/svg" width="41" height="41" viewBox="0 0 41 41">
  <g id="Roman_Numerals" transform="translate(-14 -14)">
    <g id="Group_3789" transform="translate(14.5 14.5)">
      <path id="Path_1798" d="M31.9,34.8H2.9A2.9,2.9,0,0,1,0,31.9H0V2.9A2.9,2.9,0,0,1,2.9,0H32a2.9,2.9,0,0,1,2.9,2.9V32a3.045,3.045,0,0,1-3,2.8" fill="none"/>
      <path id="Rectangle_510_00000153702608489269367440000004216047305319129985_" d="M24.6,34.8H2.5A2.476,2.476,0,0,1,0,32.3V2.5A2.476,2.476,0,0,1,2.5,0H32.3a2.476,2.476,0,0,1,2.5,2.5v22" fill="none" stroke="#1e70b9" stroke-linecap="round" stroke-width="1"/>
      <line id="Line_114" x2="13.3" transform="translate(10.75 19.8)" fill="none" stroke="#1e70b9" stroke-linecap="round" stroke-linejoin="round" stroke-width="1"/>
      <line id="Line_115" x2="13.3" transform="translate(10.75 13.3)" fill="none" stroke="#1e70b9" stroke-linecap="round" stroke-linejoin="round" stroke-width="1"/>
      <path id="Rectangle_511" d="M27.2,24.7H37.5A2.476,2.476,0,0,1,40,27.2V37.5A2.476,2.476,0,0,1,37.5,40H27.2a2.476,2.476,0,0,1-2.5-2.5V27.2A2.476,2.476,0,0,1,27.2,24.7Z" fill="none" stroke="#1e70b9" stroke-linecap="round" stroke-linejoin="round" stroke-width="1"/>
      <path id="Path_1800" d="M29,33.5a3.542,3.542,0,0,0,6.7,0" fill="none" stroke="#1e70b9" stroke-linecap="round" stroke-linejoin="round" stroke-width="1"/>
      <path id="Path_1801" d="M28.5,35.1l.5-1.7,1.6.6" fill="none" stroke="#1e70b9" stroke-linecap="round" stroke-linejoin="round" stroke-width="1"/>
      <path id="Path_1802" d="M35.7,31.2a3.542,3.542,0,0,0-6.7,0" fill="none" stroke="#1e70b9" stroke-linecap="round" stroke-linejoin="round" stroke-width="1"/>
      <path id="Path_1803" d="M36.2,29.5l-.5,1.7-1.6-.6" fill="none" stroke="#1e70b9" stroke-linecap="round" stroke-linejoin="round" stroke-width="1"/>
    </g>
  </g>
</svg>
