<svg xmlns="http://www.w3.org/2000/svg" width="37" height="35" viewBox="0 0 37 35">
  <g id="Sales_Tax_Calculator" data-name="Sales Tax Calculator" transform="translate(835.545 -550.748)">
    <path id="Path_2152" data-name="Path 2152" d="M17.306,15.248h20.1a3.378,3.378,0,0,1,3.35,3.406v23.84A3.379,3.379,0,0,1,37.41,45.9h-20.1a3.38,3.38,0,0,1-3.351-3.406V18.654a3.379,3.379,0,0,1,3.351-3.406" transform="translate(-849 536)" fill="#fff"/>
    <path id="Rectangle_603" data-name="Rectangle 603" d="M3.351,0h20.1a3.35,3.35,0,0,1,3.35,3.35V27.3a3.351,3.351,0,0,1-3.351,3.351H3.351A3.351,3.351,0,0,1,0,27.3V3.351A3.351,3.351,0,0,1,3.351,0Z" transform="translate(-835.045 551.248)" fill="none" stroke="#1e70b9" stroke-miterlimit="10" stroke-width="1"/>
    <path id="Path_2153" data-name="Path 2153" d="M22.332,21.949H32.384a1.675,1.675,0,0,1,1.675,1.675V25.3a1.675,1.675,0,0,1-1.675,1.675H22.332A1.675,1.675,0,0,1,20.657,25.3V23.624a1.675,1.675,0,0,1,1.675-1.675" transform="translate(-848.902 536.117)" fill="#fff"/>
    <rect id="Rectangle_604" data-name="Rectangle 604" width="13.402" height="5.026" rx="1.675" transform="translate(-828.245 558.066)" fill="none" stroke="#1e70b9" stroke-miterlimit="10" stroke-width="1"/>
    <line id="Line_518" data-name="Line 518" x2="3.362" transform="translate(-830.057 569.949)" fill="none" stroke="#1e70b9" stroke-miterlimit="10" stroke-width="1"/>
    <line id="Line_519" data-name="Line 519" x2="3.362" transform="translate(-823.205 569.966)" fill="none" stroke="#1e70b9" stroke-miterlimit="10" stroke-width="1"/>
    <line id="Line_520" data-name="Line 520" x2="3.362" transform="translate(-823.205 569.966)" fill="none" stroke="#1e70b9" stroke-miterlimit="10" stroke-width="1"/>
    <line id="Line_521" data-name="Line 521" x2="3.362" transform="translate(-816.436 569.873)" fill="none" stroke="#1e70b9" stroke-miterlimit="10" stroke-width="1"/>
    <line id="Line_522" data-name="Line 522" x2="3.362" transform="translate(-830.057 575.05)" fill="none" stroke="#1e70b9" stroke-miterlimit="10" stroke-width="1"/>
    <line id="Line_523" data-name="Line 523" x2="3.362" transform="translate(-823.205 575.067)" fill="none" stroke="#1e70b9" stroke-miterlimit="10" stroke-width="1"/>
    <line id="Line_524" data-name="Line 524" x2="3.362" transform="translate(-816.436 574.973)" fill="none" stroke="#1e70b9" stroke-miterlimit="10" stroke-width="1"/>
    <path id="Path_2154" data-name="Path 2154" d="M49.628,38.627A10.125,10.125,0,1,1,39.5,28.5,10.125,10.125,0,0,1,49.628,38.627" transform="translate(-848.673 536.496)" fill="#fff"/>
    <circle id="Ellipse_207" data-name="Ellipse 207" cx="10.125" cy="10.125" r="10.125" transform="translate(-819.295 564.998)" fill="none" stroke="#1e70b9" stroke-miterlimit="10" stroke-width="1"/>
    <text id="TAX" transform="translate(-815.754 577.327)" fill="#1e70b9" font-size="7.017" font-family="Gilroy-ExtraBold, Gilroy ☞" font-weight="800"><tspan x="0" y="0" letter-spacing="-0.05em">T</tspan><tspan y="0">AX</tspan></text>
  </g>
</svg>
