<svg xmlns="http://www.w3.org/2000/svg" width="20" height="23" viewBox="0 0 20 23">
  <g id="mic" transform="translate(-400 -2309.252)">
    <path id="Path_1381" data-name="Path 1381" d="M105.668,211.666V213A7.342,7.342,0,0,1,99,220.3v2.741h3.334a.666.666,0,1,1,0,1.333h-8a.666.666,0,1,1,0-1.333h3.334V220.3A7.342,7.342,0,0,1,91,213v-1.333a.667.667,0,0,1,.667-.666h2.222v1.333H92.333V213a6,6,0,0,0,12,0v-.666h-1.556V211H105A.667.667,0,0,1,105.668,211.666Z" transform="translate(311.666 2107.879)" fill="#fff"/>
    <path id="Path_1389" data-name="Path 1389" d="M93.889,212.333H92.333V213a6,6,0,0,0,12,0v-.666H93.889Z" transform="translate(311.666 2107.879)"/>
    <path id="Path_1383" data-name="Path 1383" d="M155.665,0A4.67,4.67,0,0,0,151,4.665v6.709a4.665,4.665,0,0,0,9.33,0V4.665A4.67,4.67,0,0,0,155.665,0Z" transform="translate(254.335 2309.252)" fill="#fff"/>
    <path id="Union_30" data-name="Union 30" d="M-8278,5908.042v-7.375a.668.668,0,0,1,.667-.667.667.667,0,0,1,.666.667v7.375a.667.667,0,0,1-.666.667A.667.667,0,0,1-8278,5908.042Zm2.665-2v-3.332a.668.668,0,0,1,.667-.667.668.668,0,0,1,.667.667v3.332a.666.666,0,0,1-.667.665A.666.666,0,0,1-8275.335,5906.043Z" transform="translate(8678 -3589.748)" fill="#fff"/>
    <path id="Union_29" data-name="Union 29" d="M-8275.335,5908.042v-7.375a.668.668,0,0,1,.667-.667.668.668,0,0,1,.667.667v7.375a.668.668,0,0,1-.667.667A.667.667,0,0,1-8275.335,5908.042Zm-2.665-2v-3.332a.668.668,0,0,1,.667-.667.667.667,0,0,1,.666.667v3.332a.665.665,0,0,1-.666.665A.666.666,0,0,1-8278,5906.043Z" transform="translate(8694.001 -3589.748)" fill="#fff"/>
  </g>
</svg>
