<svg xmlns="http://www.w3.org/2000/svg" width="24" height="28" viewBox="0 0 24 28">
  <g id="Group_1901" data-name="Group 1901" transform="translate(-956 -1852)">
    <path id="Path_1381" data-name="Path 1381" d="M108.439,211.82v1.64a8.919,8.919,0,0,1-7.927,8.983v3.373h3.964a.821.821,0,0,1,0,1.64H94.963a.821.821,0,0,1,0-1.64h3.964v-3.373A8.919,8.919,0,0,1,91,213.46v-1.64a.807.807,0,0,1,.793-.82h2.642v1.64h-1.85v.82a7.138,7.138,0,1,0,14.269,0v-.82H105V211h2.642A.807.807,0,0,1,108.439,211.82Z" transform="translate(868.28 1652.544)"/>
    <path id="Path_1383" data-name="Path 1383" d="M156.74,0A5.747,5.747,0,0,0,151,5.74V14a5.74,5.74,0,1,0,11.481,0V5.74A5.747,5.747,0,0,0,156.74,0Z" transform="translate(811.26 1852)"/>
    <path id="Union_30" data-name="Union 30" d="M0,9.9V.821a.82.82,0,1,1,1.64,0V9.9A.82.82,0,1,1,0,9.9ZM3.279,7.437v-4.1a.821.821,0,0,1,1.642,0v4.1a.821.821,0,0,1-1.642,0Z" transform="translate(956 1853.038)"/>
    <path id="Union_29" data-name="Union 29" d="M3.281,9.9V.82a.82.82,0,0,1,1.64,0V9.9a.82.82,0,1,1-1.64,0ZM0,7.436v-4.1a.82.82,0,1,1,1.64,0v4.1a.82.82,0,0,1-1.64,0Z" transform="translate(975.079 1853.039)"/>
  </g>
</svg>
