<svg xmlns="http://www.w3.org/2000/svg" width="41" height="41" viewBox="0 0 41 41">
  <g id="Soundcloud_Downloader" data-name="Soundcloud Downloader" transform="translate(-286 -544.667)">
    <g id="Group_2419" data-name="Group 2419" transform="translate(286.5 545.167)">
      <g id="Group_2415" data-name="Group 2415">
        <rect id="Rectangle_551" data-name="Rectangle 551" width="34.783" height="34.783" rx="2.5" fill="#fff" stroke="#1e70b9" stroke-linecap="round" stroke-linejoin="round" stroke-width="1"/>
        <rect id="Rectangle_552" data-name="Rectangle 552" width="15.304" height="15.304" rx="2.5" transform="translate(24.696 24.696)" stroke-width="1" stroke="#1e70b9" stroke-linecap="round" stroke-linejoin="round" fill="#fff"/>
      </g>
      <g id="Group_2418" data-name="Group 2418" transform="translate(29.413 28.646)">
        <g id="Group_2417" data-name="Group 2417" transform="translate(0 4.468)">
          <g id="Group_2416" data-name="Group 2416">
            <path id="Path_1596" data-name="Path 1596" d="M318.106,574.142l-2.935,2.935-2.935-2.935" transform="translate(-312.236 -574.142)" fill="none" stroke="#1e70b9" stroke-linecap="round" stroke-linejoin="round" stroke-width="1"/>
          </g>
        </g>
        <line id="Line_222" data-name="Line 222" y1="7.403" transform="translate(2.935)" fill="none" stroke="#1e70b9" stroke-linecap="round" stroke-linejoin="round" stroke-width="1"/>
      </g>
    </g>
    <g id="Group_2420" data-name="Group 2420" transform="translate(290.763 557.102)">
      <path id="Path_1597" data-name="Path 1597" d="M296.47,558.2c0-.056,0-.088-.12-.088-.057,0-.071,0-.071.088l-.2,5.109.2,2.648c0,.1.014.1.071.1.12,0,.12-.032.12-.088l.2-2.67Z" transform="translate(-289.394 -555.253)" fill="#1e70b9"/>
      <path id="Path_1598" data-name="Path 1598" d="M314.8,563.426a3.087,3.087,0,0,1-3.1,3.1h-8.553a.365.365,0,0,1-.351-.4v-9.758a.419.419,0,0,1,.318-.4,5.486,5.486,0,0,1,1.958-.351,5.24,5.24,0,0,1,3.7,1.439,5.368,5.368,0,0,1,1.758,3.549,2.66,2.66,0,0,1,1.171-.267,2.944,2.944,0,0,1,2.192.92A2.986,2.986,0,0,1,314.8,563.426Z" transform="translate(-288.434 -555.61)" fill="#fff" stroke="#1e70b9" stroke-linecap="round" stroke-linejoin="round" stroke-width="1"/>
      <path id="Path_1599" data-name="Path 1599" d="M290.23,562.762l.179,1.212.177-1.212-.179-1.217Z" transform="translate(-290.23 -554.762)" fill="#1e70b9"/>
      <path id="Path_1600" data-name="Path 1600" d="M291.712,562.889l-.264-2.2a.146.146,0,0,0-.022-.039L291.2,562.9l.234,2.184c0,.01,0,.015.01,0Z" transform="translate(-290.091 -554.889)" fill="#1e70b9"/>
      <path id="Path_1601" data-name="Path 1601" d="M292.418,565.561l0-.034.283-2.581-.286-2.683,0,.031-.234,2.662Z" transform="translate(-289.952 -554.945)" fill="#1e70b9"/>
      <path id="Path_1602" data-name="Path 1602" d="M293.428,560.22l-.041-.011-.233,2.754.234,2.657c0,.038.007.046.007.046h.029a.109.109,0,0,0,0-.034l.283-2.678Z" transform="translate(-289.812 -554.953)" fill="#1e70b9"/>
      <path id="Path_1603" data-name="Path 1603" d="M294.455,560.4a.092.092,0,0,0-.006-.043.123.123,0,0,0-.032,0c-.054,0-.054.014-.054.037l-.234,2.554.234,2.691c0,.032,0,.047.054.047a.063.063,0,0,0,.033-.006.079.079,0,0,0,0-.032l.233-2.711Z" transform="translate(-289.673 -554.933)" fill="#1e70b9"/>
      <path id="Path_1604" data-name="Path 1604" d="M295.463,559.023a.143.143,0,0,0-.009-.068.14.14,0,0,0-.062-.009c-.087,0-.087.014-.087.071l-.2,4.122.2,2.7c0,.079.016.1.087.1s.071,0,.071-.088l.2-2.712Z" transform="translate(-289.534 -555.133)" fill="#1e70b9"/>
      <path id="Path_1605" data-name="Path 1605" d="M297.5,565.917l.181-2.608-.183-5.483a.139.139,0,0,0-.154-.125c-.04,0-.087,0-.087.121l-.2,5.494.2,2.614c0,.114.016.13.12.13C297.411,566.06,297.47,566.06,297.5,565.917Z" transform="translate(-289.255 -555.311)" fill="#1e70b9"/>
      <path id="Path_1606" data-name="Path 1606" d="M298.471,557.67c-.034-.174-.112-.174-.154-.174-.07,0-.137.014-.137.171l-.151,5.677.151,2.617c0,.165.067.178.137.178.042,0,.12,0,.155-.191l.149-2.61Z" transform="translate(-289.116 -555.341)" fill="#1e70b9"/>
      <path id="Path_1607" data-name="Path 1607" d="M299.479,565.947l.168-2.63-.168-5.518c0-.123-.033-.157-.153-.157-.143,0-.171.054-.171.153L299,563.323l.151,2.617c0,.128.05.178.171.178C299.426,566.118,299.479,566.09,299.479,565.947Z" transform="translate(-288.977 -555.32)" fill="#1e70b9"/>
      <path id="Path_1608" data-name="Path 1608" d="M300.454,557.982c0-.193-.064-.208-.154-.208-.146,0-.2.058-.2.2l-.118,5.375.118,2.536c0,.152.057.21.2.21.09,0,.154-.015.154-.2l.167-2.546Z" transform="translate(-288.837 -555.301)" fill="#1e70b9"/>
      <path id="Path_1609" data-name="Path 1609" d="M301.464,565.755l.115-2.279-.115-6.389c0-.142-.066-.175-.088-.185a.514.514,0,0,0-.118-.022.752.752,0,0,0-.135.025.236.236,0,0,0-.051.179v.061l-.05.034-.066,6.249.117,2.587a.508.508,0,0,0,.009.131c.125.094.2.119.288.007l.032-.03a.107.107,0,0,0,.063-.1Z" transform="translate(-288.698 -555.428)" fill="#1e70b9"/>
    </g>
  </g>
</svg>
