<svg xmlns="http://www.w3.org/2000/svg" width="41" height="41" viewBox="0 0 41 41">
  <g id="Spider_Simulator" data-name="Spider Simulator" transform="translate(-285.756 -119.089)">
    <rect id="Rectangle_575" data-name="Rectangle 575" width="40" height="40" rx="2.5" transform="translate(286.256 119.589)" fill="#fff" stroke="#1e70b9" stroke-miterlimit="10" stroke-width="1"/>
    <g id="Group_2530" data-name="Group 2530" transform="translate(293.379 126.712)">
      <g id="Group_2529" data-name="Group 2529">
        <path id="Path_1660" data-name="Path 1660" d="M299.731,141.553l-2.014,2.012a2.044,2.044,0,0,0-.6,1.455v2.491a1.02,1.02,0,0,1-1.019,1.019.52.52,0,0,0,0,1.039,2.06,2.06,0,0,0,2.058-2.058V145.02a1.02,1.02,0,0,1,.3-.72l2.009-2.012a.518.518,0,0,0,0-.734A.529.529,0,0,0,299.731,141.553Z" transform="translate(-292.449 -123.815)" fill="#1e70b9"/>
        <path id="Path_1661" data-name="Path 1661" d="M299.732,138.239a.515.515,0,0,0,.321-.237.525.525,0,0,0,.059-.392.53.53,0,0,0-.241-.323h0a.522.522,0,0,0-.385-.057l-3.515.866a2.052,2.052,0,0,0-1.556,2v1.875a1.02,1.02,0,0,1-1.019,1.019.52.52,0,1,0,0,1.039,2.06,2.06,0,0,0,2.058-2.058v-1.875a1.06,1.06,0,0,1,.822-.988Z" transform="translate(-292.875 -124.474)" fill="#1e70b9"/>
        <path id="Path_1662" data-name="Path 1662" d="M294.933,132.818h2.3a1.019,1.019,0,0,1,.848.454l1.872,2.806a.509.509,0,0,0,.328.222.533.533,0,0,0,.105.01.521.521,0,0,0,.508-.418.507.507,0,0,0-.076-.39l-1.871-2.808h0a2.054,2.054,0,0,0-1.713-.917h-2.3a1.019,1.019,0,0,1-1.019-1.019.52.52,0,0,0-1.039,0A2.06,2.06,0,0,0,294.933,132.818Z" transform="translate(-292.875 -125.573)" fill="#1e70b9"/>
        <path id="Path_1663" data-name="Path 1663" d="M308.194,135.892a.523.523,0,0,0,.22.33.515.515,0,0,0,.286.087.634.634,0,0,0,.1-.009h0a.512.512,0,0,0,.33-.221l1.874-2.807a1.011,1.011,0,0,1,.846-.454h2.3a2.06,2.06,0,0,0,2.058-2.059.52.52,0,0,0-1.039,0,1.019,1.019,0,0,1-1.019,1.019h-2.3a2.055,2.055,0,0,0-1.713.917l-1.87,2.807A.516.516,0,0,0,308.194,135.892Z" transform="translate(-290.464 -125.573)" fill="#1e70b9"/>
        <path id="Path_1664" data-name="Path 1664" d="M312.589,148.529a1.021,1.021,0,0,1-1.02-1.019V145.02a2.04,2.04,0,0,0-.6-1.455l-2.011-2.012a.534.534,0,0,0-.736,0,.518.518,0,0,0,0,.735l2.012,2.013a1.023,1.023,0,0,1,.3.719v2.491a2.06,2.06,0,0,0,2.058,2.058.52.52,0,0,0,0-1.039Z" transform="translate(-290.482 -123.814)" fill="#1e70b9"/>
        <path id="Path_1665" data-name="Path 1665" d="M315.592,142.985a1.02,1.02,0,0,1-1.019-1.019v-1.875a2.053,2.053,0,0,0-1.558-2l-3.507-.863a.5.5,0,0,0-.392.053.532.532,0,0,0-.182.719.524.524,0,0,0,.322.236l3.506.863a1.019,1.019,0,0,1,.772.988v1.875a2.06,2.06,0,0,0,2.058,2.058.52.52,0,1,0,0-1.039Z" transform="translate(-290.357 -124.475)" fill="#1e70b9"/>
        <path id="Path_1666" data-name="Path 1666" d="M300.6,126.729a.52.52,0,1,0-1.039,0,6.428,6.428,0,0,0,2.572,5.113.5.5,0,0,0,.385.094.52.52,0,0,0,.435-.593.51.51,0,0,0-.208-.34A5.368,5.368,0,0,1,300.6,126.729Z" transform="translate(-291.822 -126.208)" fill="#1e70b9"/>
        <path id="Path_1667" data-name="Path 1667" d="M308.379,126.208a.521.521,0,0,0-.52.521A5.364,5.364,0,0,1,305.714,131a.52.52,0,0,0-.113.727.521.521,0,0,0,.421.213.512.512,0,0,0,.3-.1,6.421,6.421,0,0,0,2.572-5.113A.521.521,0,0,0,308.379,126.208Z" transform="translate(-290.887 -126.208)" fill="#1e70b9"/>
      </g>
      <path id="Path_1668" data-name="Path 1668" d="M308.461,132.451h-7.038c-1.928,1.512-3.4,2.946-3.4,6.421,0,5.089,3.1,9.229,6.922,9.229s6.923-4.139,6.923-9.229c0-3.475-1.476-4.909-3.4-6.421Zm0,0" transform="translate(-292.065 -125.225)" fill="#fff" stroke="#1e70b9" stroke-linecap="round" stroke-linejoin="round" stroke-width="1"/>
      <path id="Path_1669" data-name="Path 1669" d="M304.523,128.7c-2.221,0-3.845,3.035-3.845,4.615,0,1.7,1.725,3.077,3.845,3.077s3.846-1.38,3.846-3.077c0-1.58-1.624-4.615-3.846-4.615Zm0,0" transform="translate(-291.646 -125.816)" fill="#fff" stroke="#1e70b9" stroke-linecap="round" stroke-linejoin="round" stroke-width="1"/>
    </g>
  </g>
</svg>
