<svg xmlns="http://www.w3.org/2000/svg" width="41" height="41" viewBox="0 0 41 41">
  <g id="Text_To_ASCII" data-name="Text To ASCII" transform="translate(-34 -204.667)">
    <g id="Group_3154" data-name="Group 3154" transform="translate(34.5 205.167)">
      <g id="Group_3151" data-name="Group 3151">
        <rect id="Rectangle_736" data-name="Rectangle 736" width="26.667" height="26.667" rx="2.5" fill="#fff" stroke="#1e70b9" stroke-miterlimit="10" stroke-width="1"/>
        <g id="Group_3150" data-name="Group 3150" transform="translate(4.418 4.418)">
          <line id="Line_430" data-name="Line 430" x2="7.094" y2="7.094" fill="#fff" stroke="#1e70b9" stroke-linecap="round" stroke-miterlimit="10" stroke-width="1"/>
          <path id="Path_1930" data-name="Path 1930" d="M45.02,212.114v3.573H41.447" transform="translate(-37.926 -208.592)" fill="none" stroke="#1e70b9" stroke-linecap="round" stroke-linejoin="round" stroke-width="1"/>
        </g>
      </g>
      <g id="Group_3153" data-name="Group 3153" transform="translate(13.333 13.333)">
        <rect id="Rectangle_737" data-name="Rectangle 737" width="26.667" height="26.667" rx="2.5" fill="#fff" stroke="#1e70b9" stroke-miterlimit="10" stroke-width="1"/>
        <g id="Group_3152" data-name="Group 3152" transform="translate(5.563 11.064)">
          <path id="Path_1931" data-name="Path 1931" d="M53.78,226.939a.639.639,0,0,0-1.178-.014l-1.509,3.3a.586.586,0,0,0-.059.262.534.534,0,0,0,.533.534.548.548,0,0,0,.517-.346l.3-.665h1.6l.294.65a.563.563,0,0,0,.522.361.545.545,0,0,0,.545-.544.638.638,0,0,0-.057-.25Zm-.273,2h-.654l.327-.728Z" transform="translate(-51.034 -226.51)" fill="#1e70b9"/>
          <path id="Path_1932" data-name="Path 1932" d="M56.936,228.245c-.742-.159-.742-.287-.742-.4,0-.152.185-.258.45-.258a1.223,1.223,0,0,1,.762.259.549.549,0,0,0,.869-.442.564.564,0,0,0-.232-.449,2.249,2.249,0,0,0-1.387-.432,1.445,1.445,0,0,0-1.567,1.371c0,.952.768,1.247,1.521,1.41.7.146.7.272.7.383,0,.2-.246.29-.488.29a1.329,1.329,0,0,1-.936-.344.536.536,0,0,0-.367-.145.549.549,0,0,0-.546.551.533.533,0,0,0,.216.433,2.521,2.521,0,0,0,1.618.569,1.454,1.454,0,0,0,1.614-1.407C58.419,228.68,57.572,228.384,56.936,228.245Z" transform="translate(-50.472 -226.513)" fill="#1e70b9"/>
          <path id="Path_1933" data-name="Path 1933" d="M61.616,229.469a.531.531,0,0,0-.366.147,1.187,1.187,0,0,1-.874.362,1.132,1.132,0,0,1-1.1-1.206,1.119,1.119,0,0,1,1.1-1.185,1.231,1.231,0,0,1,.881.37.571.571,0,0,0,.589.025.544.544,0,0,0,.294-.472.582.582,0,0,0-.208-.434,2.279,2.279,0,0,0-1.551-.563,2.27,2.27,0,1,0,1.591,3.909.538.538,0,0,0,.19-.409A.552.552,0,0,0,61.616,229.469Z" transform="translate(-50.017 -226.514)" fill="#1e70b9"/>
          <path id="Path_1934" data-name="Path 1934" d="M62.658,226.547a.553.553,0,0,0-.55.555v3.353a.553.553,0,1,0,1.106,0V227.1A.556.556,0,0,0,62.658,226.547Z" transform="translate(-49.452 -226.509)" fill="#1e70b9"/>
          <path id="Path_1935" data-name="Path 1935" d="M64.216,226.547a.554.554,0,0,0-.551.555v3.353a.553.553,0,1,0,1.106,0V227.1A.556.556,0,0,0,64.216,226.547Z" transform="translate(-49.23 -226.509)" fill="#1e70b9"/>
        </g>
      </g>
    </g>
  </g>
</svg>
