<svg xmlns="http://www.w3.org/2000/svg" width="41" height="41" viewBox="0 0 41 41">
  <g id="Text_To_Binary" data-name="Text To Binary" transform="translate(-34 -34)">
    <g id="Group_3104" data-name="Group 3104" transform="translate(34.5 34.5)">
      <g id="Group_3101" data-name="Group 3101">
        <rect id="Rectangle_720" data-name="Rectangle 720" width="26.667" height="26.667" rx="2.5" fill="#fff" stroke="#1e70b9" stroke-miterlimit="10" stroke-width="1"/>
        <g id="Group_3100" data-name="Group 3100" transform="translate(4.418 4.418)">
          <line id="Line_422" data-name="Line 422" x2="7.094" y2="7.094" fill="#fff" stroke="#1e70b9" stroke-linecap="round" stroke-miterlimit="10" stroke-width="1"/>
          <path id="Path_1896" data-name="Path 1896" d="M45.02,41.447V45.02H41.447" transform="translate(-37.926 -37.926)" fill="none" stroke="#1e70b9" stroke-linecap="round" stroke-linejoin="round" stroke-width="1"/>
        </g>
      </g>
      <g id="Group_3103" data-name="Group 3103" transform="translate(13.333 13.333)">
        <rect id="Rectangle_721" data-name="Rectangle 721" width="26.667" height="26.667" rx="2.5" fill="#fff" stroke="#1e70b9" stroke-miterlimit="10" stroke-width="1"/>
        <g id="Group_3102" data-name="Group 3102" transform="translate(6.048 10.114)">
          <path id="Path_1897" data-name="Path 1897" d="M54.142,55.016c-1.529,0-2.683,1.384-2.683,3.221v.016c0,1.856,1.122,3.2,2.666,3.2,1.525,0,2.675-1.391,2.675-3.235S55.683,55.016,54.142,55.016Zm1.523,3.237c0,1.069-.523,2.152-1.523,2.152S52.6,59.279,52.6,58.219s.526-2.151,1.53-2.151,1.541,1.117,1.541,2.168Z" transform="translate(-51.459 -55.016)" fill="#1e70b9"/>
          <path id="Path_1898" data-name="Path 1898" d="M58.406,55.045a1.445,1.445,0,0,0-.431.087l-.952.331a.519.519,0,0,0-.384.5.5.5,0,0,0,.209.4.562.562,0,0,0,.512.071l.51-.166v4.568a.563.563,0,0,0,.551.559.556.556,0,0,0,.552-.559V55.6A.548.548,0,0,0,58.406,55.045Z" transform="translate(-50.719 -55.012)" fill="#1e70b9"/>
          <path id="Path_1899" data-name="Path 1899" d="M62.216,55.016c-1.529,0-2.683,1.384-2.683,3.221v.016c0,1.856,1.122,3.2,2.666,3.2,1.525,0,2.675-1.391,2.675-3.235S63.757,55.016,62.216,55.016Zm1.523,3.237c0,1.069-.523,2.152-1.523,2.152s-1.547-1.126-1.547-2.185.526-2.151,1.53-2.151,1.541,1.117,1.541,2.168Z" transform="translate(-50.306 -55.016)" fill="#1e70b9"/>
        </g>
      </g>
    </g>
  </g>
</svg>
