<svg xmlns="http://www.w3.org/2000/svg" width="37" height="37" viewBox="0 0 37 37">
  <g id="text_to_speach" data-name="text to speach" transform="translate(-202 -204.667)">
    <g id="Group_61" data-name="Group 61" transform="translate(202.5 205.167)">
      <g id="Group_59" data-name="Group 59">
        <path id="Path_2072" data-name="Path 2072" d="M2.5,0H20.833a2.5,2.5,0,0,1,2.5,2.5V20.833a2.5,2.5,0,0,1-2.5,2.5H2.5a2.5,2.5,0,0,1-2.5-2.5V2.5A2.5,2.5,0,0,1,2.5,0Z" fill="#fff" stroke="#1e70b9" stroke-width="1"/>
        <g id="Group_1279" data-name="Group 1279" transform="translate(3.5 7.779)">
          <g id="Group_49" data-name="Group 49">
            <g id="Group_48" data-name="Group 48">
              <g id="Group_47" data-name="Group 47">
                <line id="Line_29" data-name="Line 29" x2="15.611" transform="translate(0 4.072)" fill="none" stroke="#1e70b9" stroke-linecap="round" stroke-miterlimit="10" stroke-width="1"/>
                <line id="Line_30" data-name="Line 30" x2="15.611" transform="translate(0 8.145)" fill="none" stroke="#1e70b9" stroke-linecap="round" stroke-miterlimit="10" stroke-width="1"/>
                <line id="Line_31" data-name="Line 31" x2="10.298" transform="translate(5.313)" fill="none" stroke="#1e70b9" stroke-linecap="round" stroke-miterlimit="10" stroke-width="1"/>
                <line id="Line_32" data-name="Line 32" x2="3.488" fill="none" stroke="#1e70b9" stroke-linecap="round" stroke-miterlimit="10" stroke-width="1"/>
              </g>
            </g>
          </g>
        </g>
        <rect id="Rectangle_20" data-name="Rectangle 20" width="23.333" height="23.333" rx="2.5" transform="translate(12.667 12.667)" fill="#fff" stroke="#1e70b9" stroke-miterlimit="10" stroke-width="1"/>
        <g id="Group_1280" data-name="Group 1280" transform="translate(26.041 2.127)">
          <path id="Path_2069" data-name="Path 2069" d="M0,3.84,1.92,1.92,0,0" transform="matrix(0.259, 0.966, -0.966, 0.259, 8.196, 4.139)" fill="none" stroke="#1e70b9" stroke-linecap="round" stroke-linejoin="round" stroke-width="1"/>
          <path id="Path_2070" data-name="Path 2070" d="M0,5.279A5.279,5.279,0,0,1,5.279,0h1.44" transform="matrix(0.259, 0.966, -0.966, 0.259, 5.099, 0)" fill="none" stroke="#1e70b9" stroke-linecap="round" stroke-linejoin="round" stroke-width="1"/>
        </g>
        <g id="Group_1281" data-name="Group 1281" transform="translate(19.402 17.333)">
          <rect id="Rectangle_562" data-name="Rectangle 562" width="4" height="7" rx="2" transform="translate(2.658)" fill="none" stroke="#1e70b9" stroke-linecap="round" stroke-linejoin="round" stroke-width="1"/>
          <path id="Path_2073" data-name="Path 2073" d="M5,10a4.658,4.658,0,0,0,9.317,0" transform="translate(-5 -4.784)" fill="none" stroke="#1e70b9" stroke-linecap="round" stroke-linejoin="round" stroke-width="1"/>
          <line id="Line_421" data-name="Line 421" x2="6" transform="translate(1.658 14)" fill="none" stroke="#1e70b9" stroke-linecap="round" stroke-linejoin="round" stroke-width="1"/>
          <line id="Line_422" data-name="Line 422" y2="4" transform="translate(4.658 10)" fill="none" stroke="#1e70b9" stroke-linecap="round" stroke-linejoin="round" stroke-width="1"/>
        </g>
      </g>
    </g>
  </g>
</svg>
