<svg xmlns="http://www.w3.org/2000/svg" width="22.998" height="19" viewBox="0 0 22.998 19">
  <g id="l-website-tracking-tools" transform="translate(-118 -122.833)" style="isolation: isolate">
    <g id="Group_1481" data-name="Group 1481" transform="translate(118.5 123.333)">
      <rect id="Rectangle_351" data-name="Rectangle 351" width="21.998" height="18" rx="2" fill="#fff" stroke="#1e70b9" stroke-linecap="round" stroke-linejoin="round" stroke-width="1"/>
    </g>
    <g id="Group_1482" data-name="Group 1482" transform="translate(119.757 124.59)">
      <circle id="Ellipse_57" data-name="Ellipse 57" cx="0.442" cy="0.442" r="0.442" fill="#1e70b9"/>
      <circle id="Ellipse_58" data-name="Ellipse 58" cx="0.442" cy="0.442" r="0.442" transform="translate(1.769)" fill="#1e70b9"/>
      <circle id="Ellipse_59" data-name="Ellipse 59" cx="0.442" cy="0.442" r="0.442" transform="translate(3.539)" fill="#1e70b9"/>
    </g>
    <line id="Line_28" data-name="Line 28" x2="21.998" transform="translate(118.5 126.732)" fill="none" stroke="#1e70b9" stroke-linecap="round" stroke-linejoin="round" stroke-width="1"/>
    <g id="Group_1483" data-name="Group 1483" transform="translate(124.622 138.819)">
      <line id="Line_29" data-name="Line 29" x2="6.455" transform="translate(3.3)" fill="none" stroke="#1e70b9" stroke-linecap="round" stroke-miterlimit="10" stroke-width="1"/>
      <line id="Line_30" data-name="Line 30" x2="1.741" fill="none" stroke="#1e70b9" stroke-linecap="round" stroke-miterlimit="10" stroke-width="1"/>
    </g>
    <g id="Group_1484" data-name="Group 1484" transform="translate(126.841 129.482)">
      <path id="Path_1357" data-name="Path 1357" d="M134.793,140.073l1.935-3.351a2.654,2.654,0,0,0-2.3-3.981h0a2.654,2.654,0,0,0-2.3,3.981l1.935,3.351A.42.42,0,0,0,134.793,140.073Z" transform="translate(-131.771 -132.741)" fill="#fff" stroke="#1e70b9" stroke-linecap="round" stroke-linejoin="round" stroke-width="1"/>
      <circle id="Ellipse_60" data-name="Ellipse 60" cx="0.953" cy="0.953" r="0.953" transform="translate(1.706 1.257)" fill="#fff" stroke="#1e70b9" stroke-linecap="round" stroke-linejoin="round" stroke-width="1"/>
    </g>
  </g>
</svg>
