<svg xmlns="http://www.w3.org/2000/svg" width="41" height="41" viewBox="0 0 41 41">
  <g id="Translate_english_to_english" data-name="Translate english to english" transform="translate(-118 -204.667)">
    <g id="Group_2010" data-name="Group 2010" transform="translate(118.5 205.167)">
      <g id="Group_2008" data-name="Group 2008">
        <g id="Group_2006" data-name="Group 2006">
          <rect id="Rectangle_387" data-name="Rectangle 387" width="26.667" height="26.667" rx="2.5" fill="#fff" stroke="#1e70b9" stroke-miterlimit="10" stroke-width="1"/>
          <rect id="Rectangle_388" data-name="Rectangle 388" width="26.667" height="26.667" rx="2.5" transform="translate(13.333 13.333)" fill="#fff" stroke="#1e70b9" stroke-miterlimit="10" stroke-width="1"/>
        </g>
        <g id="Group_2007" data-name="Group 2007" transform="translate(4.418 4.418)">
          <line id="Line_74" data-name="Line 74" x2="7.094" y2="7.094" fill="#fff" stroke="#1e70b9" stroke-linecap="round" stroke-miterlimit="10" stroke-width="1"/>
          <path id="Path_1472" data-name="Path 1472" d="M129.02,212.114v3.573h-3.573" transform="translate(-121.926 -208.592)" fill="none" stroke="#1e70b9" stroke-linecap="round" stroke-linejoin="round" stroke-width="1"/>
        </g>
      </g>
      <g id="Group_2009" data-name="Group 2009" transform="translate(20.217 22.526)">
        <path id="Path_1473" data-name="Path 1473" d="M141.718,224.877h-4.969a.572.572,0,0,0-.559.57v7.083a.572.572,0,0,0,.559.57h5.025a.525.525,0,1,0,0-1.05H137.32v-2.57H141.2a.526.526,0,0,0,.525-.526.531.531,0,0,0-.525-.525H137.32v-2.5h4.4a.525.525,0,1,0,0-1.05Z" transform="translate(-136.19 -224.877)" fill="#1e70b9"/>
        <path id="Path_1474" data-name="Path 1474" d="M147.6,232.913a.548.548,0,0,0,.549-.56v-3.278a2.276,2.276,0,0,0-2.375-2.479,2.311,2.311,0,0,0-1.857.84l-.051.059v-.271a.554.554,0,1,0-1.107,0v5.128a.553.553,0,0,0,.559.56.542.542,0,0,0,.549-.56v-2.992a1.625,1.625,0,0,1,1.657-1.736c.966,0,1.519.608,1.519,1.667v3.061A.553.553,0,0,0,147.6,232.913Z" transform="translate(-135.251 -224.631)" fill="#1e70b9"/>
      </g>
    </g>
  </g>
</svg>
