<svg xmlns="http://www.w3.org/2000/svg" width="41" height="33" viewBox="0 0 41 33">
  <g id="Twitter_Card_Generator" data-name="Twitter Card Generator" transform="translate(-118 -377.281)">
    <g id="Group_2367" data-name="Group 2367" transform="translate(118.5 377.781)">
      <path id="Path_1586" data-name="Path 1586" d="M154.359,385.782a4.481,4.481,0,0,1,.078,1,22.321,22.321,0,0,1-1.562,8.115,25.5,25.5,0,0,1-4.414,7.385,21.036,21.036,0,0,1-7.383,5.423,23.7,23.7,0,0,1-10,2.077,23.02,23.02,0,0,1-12.578-3.615q.859.076,1.953.077a16.424,16.424,0,0,0,10.234-3.461,7.711,7.711,0,0,1-4.8-1.577,8.039,8.039,0,0,1-2.851-3.962q.782.078,1.485.078a10.548,10.548,0,0,0,2.187-.232,8.009,8.009,0,0,1-3.36-1.538A8.44,8.44,0,0,1,121,392.742a7.633,7.633,0,0,1-.859-3.577v-.153a7.818,7.818,0,0,0,3.671,1.077,7.94,7.94,0,0,1-2.5-10.846,22.551,22.551,0,0,0,7.461,6,22.987,22.987,0,0,0,9.415,2.462,10.944,10.944,0,0,1-.157-1.847,8.139,8.139,0,0,1,8.125-8.077,7.977,7.977,0,0,1,6.016,2.539,16.859,16.859,0,0,0,5.234-1.923,8.038,8.038,0,0,1-3.594,4.462,17.833,17.833,0,0,0,4.688-1.308A17.91,17.91,0,0,1,154.359,385.782Z" transform="translate(-118.5 -377.781)" fill="#fff" stroke="#1e70b9" stroke-linecap="round" stroke-linejoin="round" stroke-width="1"/>
    </g>
  </g>
</svg>
