<svg xmlns="http://www.w3.org/2000/svg" width="14.999" height="16.999" viewBox="0 0 14.999 16.999">
  <path id="Shape_1" data-name="Shape 1" d="M414.6,478.971a3.844,3.844,0,0,0,2.154-1.23l.709-.727,1.377-1.412,1.7-1.747,1.69-1.733,1.363-1.384q1.363-1.384.709-.713a6.141,6.141,0,0,0,1.554-2.571,3.619,3.619,0,0,0,.136-.825,3.689,3.689,0,0,0-.082-.978,4.073,4.073,0,0,0-.409-1.076,5.2,5.2,0,0,0-.872-1.146A4.064,4.064,0,0,0,421.482,462a5.105,5.105,0,0,0-3.312,1.733l-6.951,7.156a.825.825,0,0,0,.586,1.4.707.707,0,0,0,.559-.251l6.951-7.128a4.557,4.557,0,0,1,1.39-1.048,2.311,2.311,0,0,1,1.145-.21,2,2,0,0,1,.927.335,4.657,4.657,0,0,1,.709.587,2.461,2.461,0,0,1,.818,2.46,4.253,4.253,0,0,1-1.145,1.817l-.7.713-1.349,1.384-1.7,1.733-1.717,1.747-1.377,1.411-.709.727a2.382,2.382,0,0,1-1.227.783,3.252,3.252,0,0,1-.4-.042,1.522,1.522,0,0,1-.723-.461,1.613,1.613,0,0,1-.572-1.314,1.3,1.3,0,0,1,.232-.657,4.079,4.079,0,0,1,.423-.517l6.352-6.513a3.683,3.683,0,0,1,.559-.489,1.579,1.579,0,0,1,.368-.2.252.252,0,0,1,.2,0,.529.529,0,0,1,.1.07q.027.056.068.126a.273.273,0,0,1,0,.21,1.443,1.443,0,0,1-.191.363,4.283,4.283,0,0,1-.477.559l-5.834,5.982,1.118,1.174,5.861-5.982a4.948,4.948,0,0,0,.9-1.188,2.416,2.416,0,0,0,.286-.992,1.625,1.625,0,0,0-.163-.8,2.43,2.43,0,0,0-.423-.6,3.854,3.854,0,0,0-.532-.391,1.507,1.507,0,0,0-.763-.21,2.223,2.223,0,0,0-1.009.252,4.456,4.456,0,0,0-1.213.936l-6.352,6.513a3.717,3.717,0,0,0-1.118,2.18,3.352,3.352,0,0,0,.123,1.174,3.438,3.438,0,0,0,.94,1.481,2.853,2.853,0,0,0,1.091.783,3,3,0,0,0,1.009.2A1.578,1.578,0,0,0,414.6,478.971Z" transform="translate(-411 -462)" fill="#fff"/>
</svg>
