<svg xmlns="http://www.w3.org/2000/svg" width="41" height="41" viewBox="0 0 41 41">
  <g id="Vimeo_Video_Downloader" data-name="Vimeo Video Downloader" transform="translate(-34 -630)">
    <g id="Group_2426" data-name="Group 2426" transform="translate(34.5 630.5)">
      <g id="Group_2422" data-name="Group 2422">
        <rect id="Rectangle_553" data-name="Rectangle 553" width="34.783" height="34.783" rx="2.5" fill="#fff" stroke="#1e70b9" stroke-linecap="round" stroke-linejoin="round" stroke-width="1"/>
        <rect id="Rectangle_554" data-name="Rectangle 554" width="15.304" height="15.304" rx="2.5" transform="translate(24.696 24.696)" stroke-width="1" stroke="#1e70b9" stroke-linecap="round" stroke-linejoin="round" fill="#fff"/>
      </g>
      <g id="Group_2425" data-name="Group 2425" transform="translate(29.413 28.646)">
        <g id="Group_2424" data-name="Group 2424" transform="translate(0 4.468)">
          <g id="Group_2423" data-name="Group 2423">
            <path id="Path_1610" data-name="Path 1610" d="M66.106,659.475l-2.935,2.935-2.935-2.935" transform="translate(-60.236 -659.475)" fill="none" stroke="#1e70b9" stroke-linecap="round" stroke-linejoin="round" stroke-width="1"/>
          </g>
        </g>
        <line id="Line_223" data-name="Line 223" y1="7.403" transform="translate(2.935)" fill="none" stroke="#1e70b9" stroke-linecap="round" stroke-linejoin="round" stroke-width="1"/>
      </g>
    </g>
    <g id="Group_2427" data-name="Group 2427" transform="translate(42.652 639.891)">
      <path id="Path_1611" data-name="Path 1611" d="M60.1,642.431q-.123,2.68-3.793,7.379-3.751,4.906-6.349,4.906-1.608,0-2.721-3.009-.247-.783-.618-2.226-.5-1.855-.743-2.7t-.6-1.834a4.4,4.4,0,0,0-.659-1.341.9.9,0,0,0-.68-.35,5.671,5.671,0,0,0-1.443.865l-.865-1.113q.411-.329,1.237-1.093t1.257-1.134q.434-.37,1.051-.866a5.41,5.41,0,0,1,1.072-.7,2.768,2.768,0,0,1,.825-.247q2.143-.206,2.638,2.927.991,6.226,1.733,6.886.658.617,2.061-1.567l.082-.082a7.4,7.4,0,0,0,1.238-2.8,1.426,1.426,0,0,0-.351-1.258,1.277,1.277,0,0,0-1.031-.329,4.534,4.534,0,0,0-1.216.309q1.361-4.452,5.194-4.329Q60.268,638.8,60.1,642.431Z" transform="translate(-41.633 -638.717)" fill="#fff" stroke="#1e70b9" stroke-linecap="round" stroke-linejoin="round" stroke-width="1"/>
    </g>
  </g>
</svg>
