<svg xmlns="http://www.w3.org/2000/svg" width="36.968" height="41" viewBox="0 0 36.968 41">
  <g id="Online_Virus_Scan" data-name="Online Virus Scan" transform="translate(-119.845 -459.127)">
    <path id="Path_1588" data-name="Path 1588" d="M156.266,462.539a.4.4,0,0,0-.28-.379,63.083,63.083,0,0,0-17.657-2.533h0a63.084,63.084,0,0,0-17.657,2.533.4.4,0,0,0-.28.379c-.021,10.514-1.088,21.778,6.431,30.675a17.67,17.67,0,0,0,11.506,6.413h0a17.67,17.67,0,0,0,11.506-6.413C157.354,484.317,156.287,473.053,156.266,462.539Z" transform="translate(0 0)" fill="#fff" stroke="#1e70b9" stroke-linecap="round" stroke-linejoin="round" stroke-width="1"/>
    <path id="Path_1589" data-name="Path 1589" d="M130,477.959l4.472,4.473,9.366-9.366" transform="translate(1.41 1.878)" fill="none" stroke="#1e70b9" stroke-linecap="round" stroke-linejoin="round" stroke-width="1"/>
  </g>
</svg>
