<svg xmlns="http://www.w3.org/2000/svg" width="41" height="41" viewBox="0 0 41 41">
  <g id="Volume_Conversion" data-name="Volume Conversion" transform="translate(-34 -119.333)">
    <g id="Group_3007" data-name="Group 3007" transform="translate(34.5 119.833)">
      <g id="Group_3006" data-name="Group 3006">
        <g id="Group_2999" data-name="Group 2999">
          <rect id="Rectangle_693" data-name="Rectangle 693" width="34.783" height="34.783" rx="2.5" fill="#fff" stroke="#1e70b9" stroke-linecap="round" stroke-linejoin="round" stroke-width="1"/>
        </g>
        <g id="Group_3000" data-name="Group 3000" transform="translate(7.131 6.534)">
          <path id="Path_1826" data-name="Path 1826" d="M54.9,132.339l6.109,10.725a2.209,2.209,0,0,1-1.958,3.232h-16.1a2.209,2.209,0,0,1-1.958-3.232L47.1,132.339" transform="translate(-40.74 -124.581)" fill="#fff" stroke="#1e70b9" stroke-linecap="round" stroke-linejoin="round" stroke-width="1"/>
          <path id="Path_1827" data-name="Path 1827" d="M46.307,133v-5.322H54.1V133" transform="translate(-39.944 -125.246)" fill="#fff" stroke="#1e70b9" stroke-linecap="round" stroke-linejoin="round" stroke-width="1"/>
          <rect id="Rectangle_694" data-name="Rectangle 694" width="10.72" height="2.436" rx="1.066" transform="translate(4.9)" stroke-width="1" stroke="#1e70b9" stroke-linecap="round" stroke-linejoin="round" fill="#fff"/>
          <line id="Line_392" data-name="Line 392" x2="13.342" transform="translate(3.589 12.626)" fill="#fff" stroke="#1e70b9" stroke-linecap="round" stroke-linejoin="round" stroke-width="1"/>
        </g>
        <g id="Group_3005" data-name="Group 3005" transform="translate(24.696 24.696)">
          <g id="Group_3001" data-name="Group 3001">
            <rect id="Rectangle_695" data-name="Rectangle 695" width="15.304" height="15.304" rx="2.5" fill="#fff" stroke="#1e70b9" stroke-linecap="round" stroke-linejoin="round" stroke-width="1"/>
          </g>
          <g id="Group_3004" data-name="Group 3004" transform="translate(3.795 4.075)">
            <g id="Group_3002" data-name="Group 3002" transform="translate(0 4.721)">
              <path id="Path_1828" data-name="Path 1828" d="M59.841,149.139a3.574,3.574,0,0,0,6.774,0" transform="translate(-59.371 -149.139)" fill="none" stroke="#1e70b9" stroke-linecap="round" stroke-linejoin="round" stroke-width="1"/>
              <path id="Path_1829" data-name="Path 1829" d="M59.43,150.794l.47-1.655,1.617.581" transform="translate(-59.43 -149.139)" fill="none" stroke="#1e70b9" stroke-linecap="round" stroke-linejoin="round" stroke-width="1"/>
            </g>
            <g id="Group_3003" data-name="Group 3003" transform="translate(0.47)">
              <path id="Path_1830" data-name="Path 1830" d="M66.615,147.44a3.574,3.574,0,0,0-6.774,0" transform="translate(-59.841 -145.008)" fill="none" stroke="#1e70b9" stroke-linecap="round" stroke-linejoin="round" stroke-width="1"/>
              <path id="Path_1831" data-name="Path 1831" d="M66.44,145.688l-.47,1.655-1.617-.581" transform="translate(-59.196 -144.911)" fill="none" stroke="#1e70b9" stroke-linecap="round" stroke-linejoin="round" stroke-width="1"/>
            </g>
          </g>
        </g>
      </g>
    </g>
  </g>
</svg>
