<svg xmlns="http://www.w3.org/2000/svg" width="41" height="41" viewBox="0 0 41 41">
  <g id="Watermark" transform="translate(-34 -119.333)">
    <g id="Group_2857" data-name="Group 2857" transform="translate(34.5 119.833)">
      <g id="Group_2854" data-name="Group 2854">
        <g id="Group_2852" data-name="Group 2852">
          <rect id="Rectangle_651" data-name="Rectangle 651" width="26.667" height="26.667" rx="2.5" fill="#fff" stroke="#1e70b9" stroke-miterlimit="10" stroke-width="1"/>
          <rect id="Rectangle_652" data-name="Rectangle 652" width="26.667" height="26.667" rx="2.5" transform="translate(13.333 13.333)" fill="#fff" stroke="#1e70b9" stroke-miterlimit="10" stroke-width="1"/>
        </g>
        <g id="Group_2853" data-name="Group 2853" transform="translate(4.418 4.418)">
          <line id="Line_351" data-name="Line 351" x2="7.094" y2="7.094" fill="#fff" stroke="#1e70b9" stroke-linecap="round" stroke-miterlimit="10" stroke-width="1"/>
          <path id="Path_1763" data-name="Path 1763" d="M45.02,126.78v3.573H41.447" transform="translate(-37.926 -123.259)" fill="none" stroke="#1e70b9" stroke-linecap="round" stroke-linejoin="round" stroke-width="1"/>
        </g>
      </g>
      <g id="Group_2856" data-name="Group 2856" transform="translate(22.028 20.953)">
        <g id="Group_2855" data-name="Group 2855" transform="translate(2.472)">
          <path id="Path_1764" data-name="Path 1764" d="M56.251,145.012a.931.931,0,0,0,.927-.954v-.167a3.92,3.92,0,0,0-.831-2.3,2.133,2.133,0,0,1-.409-1.258,2.165,2.165,0,1,1,3.823,1.383,3.466,3.466,0,0,0-.728,2.241v.126a.93.93,0,0,0,.929.927h0" transform="translate(-55.938 -138.167)" fill="#fff" stroke="#1e70b9" stroke-miterlimit="10" stroke-width="1"/>
        </g>
        <rect id="Rectangle_653" data-name="Rectangle 653" width="7.388" height="2.111" transform="translate(0.944 9.317)" fill="#fff" stroke="#1e70b9" stroke-miterlimit="10" stroke-width="1"/>
        <rect id="Rectangle_654" data-name="Rectangle 654" width="9.277" height="2.474" transform="translate(0 6.843)" fill="#fff" stroke="#1e70b9" stroke-miterlimit="10" stroke-width="1"/>
      </g>
    </g>
  </g>
</svg>
