<svg xmlns="http://www.w3.org/2000/svg" width="33" height="41" viewBox="0 0 33 41">
  <g id="Website_Link_Count_Checker" data-name="Website Link Count Checker" transform="translate(-205.9 -34)">
    <g id="Group_2212" data-name="Group 2212" transform="translate(206.4 34.5)">
      <rect id="Rectangle_467" data-name="Rectangle 467" width="32" height="40" rx="2.5" fill="#fff" stroke="#1e70b9" stroke-linecap="round" stroke-linejoin="round" stroke-width="1"/>
      <g id="Group_2211" data-name="Group 2211" transform="translate(2.968 6.293)">
        <g id="Group_2194" data-name="Group 2194" transform="translate(8.878 2.111)">
          <g id="Group_2190" data-name="Group 2190">
            <g id="Group_2189" data-name="Group 2189">
              <g id="Group_2188" data-name="Group 2188">
                <line id="Line_151" data-name="Line 151" x2="17.04" fill="none" stroke="#1e70b9" stroke-linecap="round" stroke-miterlimit="10" stroke-width="1"/>
              </g>
            </g>
          </g>
          <g id="Group_2193" data-name="Group 2193" transform="translate(0 2.808)">
            <g id="Group_2192" data-name="Group 2192">
              <g id="Group_2191" data-name="Group 2191">
                <line id="Line_152" data-name="Line 152" x2="12.827" fill="none" stroke="#1e70b9" stroke-linecap="round" stroke-miterlimit="10" stroke-width="1"/>
              </g>
            </g>
          </g>
        </g>
        <g id="Group_2201" data-name="Group 2201" transform="translate(8.878 12.292)">
          <g id="Group_2197" data-name="Group 2197">
            <g id="Group_2196" data-name="Group 2196">
              <g id="Group_2195" data-name="Group 2195">
                <line id="Line_153" data-name="Line 153" x2="17.04" fill="none" stroke="#1e70b9" stroke-linecap="round" stroke-miterlimit="10" stroke-width="1"/>
              </g>
            </g>
          </g>
          <g id="Group_2200" data-name="Group 2200" transform="translate(0 2.808)">
            <g id="Group_2199" data-name="Group 2199">
              <g id="Group_2198" data-name="Group 2198">
                <line id="Line_154" data-name="Line 154" x2="12.827" fill="none" stroke="#1e70b9" stroke-linecap="round" stroke-miterlimit="10" stroke-width="1"/>
              </g>
            </g>
          </g>
        </g>
        <g id="Group_2210" data-name="Group 2210">
          <g id="Group_2208" data-name="Group 2208" transform="translate(8.878 22.472)">
            <g id="Group_2204" data-name="Group 2204">
              <g id="Group_2203" data-name="Group 2203">
                <g id="Group_2202" data-name="Group 2202">
                  <line id="Line_155" data-name="Line 155" x2="17.04" fill="none" stroke="#1e70b9" stroke-linecap="round" stroke-miterlimit="10" stroke-width="1"/>
                </g>
              </g>
            </g>
            <g id="Group_2207" data-name="Group 2207" transform="translate(0 2.808)">
              <g id="Group_2206" data-name="Group 2206">
                <g id="Group_2205" data-name="Group 2205">
                  <line id="Line_156" data-name="Line 156" x2="12.827" fill="none" stroke="#1e70b9" stroke-linecap="round" stroke-miterlimit="10" stroke-width="1"/>
                </g>
              </g>
            </g>
          </g>
          <g id="Group_2209" data-name="Group 2209">
            <path id="Path_1525" data-name="Path 1525" d="M209.363,41.736a.7.7,0,0,0,.214-.036l.7-.227v5.311a.547.547,0,0,0,.535.545.535.535,0,0,0,.537-.545V40.836a.531.531,0,0,0-.537-.537h-.019a1.564,1.564,0,0,0-.458.094l-1.081.376a.506.506,0,0,0-.376.479A.5.5,0,0,0,209.363,41.736Z" transform="translate(-208.875 -40.299)" fill="#1e70b9"/>
            <path id="Path_1526" data-name="Path 1526" d="M209.451,56.076h3.995a.537.537,0,1,0,0-1.074h-2.7l1.387-1.232c1.232-1.072,1.747-1.687,1.747-2.747a2.1,2.1,0,0,0-2.256-2.075,2.685,2.685,0,0,0-2.4,1.3.538.538,0,1,0,.849.661,1.767,1.767,0,0,1,1.495-.89,1.076,1.076,0,0,1,1.142,1.075c0,.58-.32,1.052-1.319,1.94l-2.267,2a.625.625,0,0,0-.248.5A.549.549,0,0,0,209.451,56.076Z" transform="translate(-208.875 -38.816)" fill="#1e70b9"/>
            <path id="Path_1527" data-name="Path 1527" d="M211.907,60.545l1.681-1.868a.711.711,0,0,0,.231-.5.523.523,0,0,0-.553-.515h-3.585a.53.53,0,1,0,0,1.059h2.474l-1.618,1.832a.6.6,0,0,0-.207.43.52.52,0,0,0,.525.515h.234c1.013,0,1.642.41,1.642,1.089a1.13,1.13,0,0,1-1.239,1.08,2.067,2.067,0,0,1-1.644-.778.586.586,0,0,0-.411-.17.569.569,0,0,0-.562.561.6.6,0,0,0,.172.395,3.161,3.161,0,0,0,2.435,1.06,2.245,2.245,0,0,0,2.392-2.2C213.875,61.491,213.145,60.758,211.907,60.545Z" transform="translate(-208.875 -37.322)" fill="#1e70b9"/>
          </g>
        </g>
      </g>
    </g>
  </g>
</svg>
