<svg xmlns="http://www.w3.org/2000/svg" width="41" height="41" viewBox="0 0 41 41">
  <g id="Word_To_PDF" data-name="Word To PDF" transform="translate(-202 -119.333)">
    <g id="Group_2869" data-name="Group 2869" transform="translate(202.5 119.833)">
      <rect id="Rectangle_657" data-name="Rectangle 657" width="26.667" height="26.667" rx="2.5" fill="#fff" stroke="#1e70b9" stroke-miterlimit="10" stroke-width="1"/>
      <path id="Path_1766" data-name="Path 1766" d="M209,140.159a1.58,1.58,0,0,1-1.066-.462,1.819,1.819,0,0,1-.5-1.706,1.4,1.4,0,0,1,.6-.888,16.719,16.719,0,0,1,3.624-2.025,39.078,39.078,0,0,0,2.133-4.442,10.148,10.148,0,0,1-1.137-3.3,3.156,3.156,0,0,1,.106-1.422c.355-1.137,1.137-1.173,1.457-1.137.071,0,1.314.177,1.528,1.954a9.615,9.615,0,0,1-.817,3.873,12.33,12.33,0,0,0,2.771,3.27,16.391,16.391,0,0,1,4.015.462,1.518,1.518,0,0,1,.818.5,1.317,1.317,0,0,1,.248,1.386h0a1.482,1.482,0,0,1-.283.5,1.374,1.374,0,0,1-1.742.391,18.885,18.885,0,0,1-3.411-2.239,14.955,14.955,0,0,0-4.9,1.031c-.6,1.1-1.35,2.31-2.2,3.661a1.507,1.507,0,0,1-.675.568h0C209.323,140.124,209.146,140.159,209,140.159Zm1.742-3.589a13.222,13.222,0,0,0-2.1,1.314c-.106.106-.213.214-.213.32a.842.842,0,0,0,.285.782.506.506,0,0,0,.426.106h0a.291.291,0,0,0,.177-.177C209.82,138.1,210.319,137.317,210.745,136.571Zm8.279-1.706a19.961,19.961,0,0,0,2.133,1.28.339.339,0,0,0,.426-.107.981.981,0,0,0,.142-.248c.072-.178.072-.249-.035-.355a.686.686,0,0,0-.319-.178A13.516,13.516,0,0,0,219.024,134.864ZM214.4,131.7c-.355.817-.782,1.742-1.35,2.807a16.248,16.248,0,0,1,3.127-.639A17.808,17.808,0,0,1,214.4,131.7Zm-.355-5.97c-.142,0-.248.143-.354.463a2.107,2.107,0,0,0-.072.959,8.952,8.952,0,0,0,.6,2.062,7.1,7.1,0,0,0,.462-2.417c-.106-.959-.6-1.066-.64-1.066Z" transform="translate(-201.802 -119.129)" fill="#1e70b9"/>
      <rect id="Rectangle_658" data-name="Rectangle 658" width="26.667" height="26.667" rx="2.5" transform="translate(13.333 13.333)" fill="#fff" stroke="#1e70b9" stroke-miterlimit="10" stroke-width="1"/>
      <g id="Group_2868" data-name="Group 2868" transform="translate(23.119 23.119)">
        <line id="Line_357" data-name="Line 357" x1="7.094" y1="7.094" fill="#fff" stroke="#1e70b9" stroke-linecap="round" stroke-miterlimit="10" stroke-width="1"/>
        <path id="Path_1767" data-name="Path 1767" d="M222.73,143.636v-3.573H226.3" transform="translate(-222.73 -140.063)" fill="none" stroke="#1e70b9" stroke-linecap="round" stroke-linejoin="round" stroke-width="1"/>
      </g>
    </g>
  </g>
</svg>
