<svg xmlns="http://www.w3.org/2000/svg" xmlns:xlink="http://www.w3.org/1999/xlink" width="28" height="28" viewBox="0 0 28 28">
  <defs>
    <clipPath id="clip-path">
      <rect id="Rectangle_577" data-name="Rectangle 577" width="28" height="28" fill="none"/>
    </clipPath>
  </defs>
  <g id="xml_formatter" data-name="xml formatter" transform="translate(0 0)">
    <g id="Group_1337" data-name="Group 1337" transform="translate(0 0.001)" clip-path="url(#clip-path)">
      <path id="Path_2114" data-name="Path 2114" d="M25.121,27.56H2.914A2.384,2.384,0,0,1,.5,25.207V2.854A2.384,2.384,0,0,1,2.914.5H25.121a2.384,2.384,0,0,1,2.414,2.353V25.207a2.384,2.384,0,0,1-2.414,2.353" transform="translate(-0.017 -0.03)" fill="#fff"/>
      <rect id="Rectangle_576" data-name="Rectangle 576" width="27.034" height="27.059" rx="2.5" transform="translate(0.483 0.471)" fill="none" stroke="#1e70b9" stroke-linecap="round" stroke-linejoin="round" stroke-width="1"/>
      <path id="Path_2115" data-name="Path 2115" d="M12.686,22.3V16.615l2.188,4.977,2.188-4.977V22.3" transform="translate(-0.437 -0.978)" fill="none" stroke="#1e70b9" stroke-linecap="round" stroke-linejoin="round" stroke-width="1"/>
      <path id="Path_2116" data-name="Path 2116" d="M19.185,16.615V22.3h3.647" transform="translate(-0.662 -0.978)" fill="none" stroke="#1e70b9" stroke-linecap="round" stroke-linejoin="round" stroke-width="1"/>
      <line id="Line_473" data-name="Line 473" x2="4.506" y2="5.875" transform="translate(5.83 15.638)" fill="none" stroke="#1e70b9" stroke-linecap="round" stroke-linejoin="round" stroke-width="1"/>
      <line id="Line_474" data-name="Line 474" x1="4.506" y2="5.875" transform="translate(5.83 15.638)" fill="none" stroke="#1e70b9" stroke-linecap="round" stroke-linejoin="round" stroke-width="1"/>
      <line id="Line_475" data-name="Line 475" x2="7.854" transform="translate(10.034 7.771)" fill="none" stroke="#1e70b9" stroke-linecap="round" stroke-miterlimit="10" stroke-width="1"/>
      <path id="Path_2117" data-name="Path 2117" d="M9.3,6.467,7.569,8.153,9.3,9.837" transform="translate(-0.261 -0.381)" fill="none" stroke="#1e70b9" stroke-linecap="round" stroke-linejoin="round" stroke-width="1"/>
      <path id="Path_2118" data-name="Path 2118" d="M19.64,6.467l1.729,1.686L19.64,9.837" transform="translate(-0.677 -0.381)" fill="none" stroke="#1e70b9" stroke-linecap="round" stroke-linejoin="round" stroke-width="1"/>
    </g>
  </g>
</svg>
