<svg xmlns="http://www.w3.org/2000/svg" xmlns:xlink="http://www.w3.org/1999/xlink" width="28" height="34" viewBox="0 0 28 34">
  <defs>
    <clipPath id="clip-path">
      <rect id="Rectangle_579" data-name="Rectangle 579" width="28" height="34" fill="none"/>
    </clipPath>
  </defs>
  <g id="XML_Beautifier" data-name="XML Beautifier" transform="translate(0 0.126)">
    <g id="Group_1338" data-name="Group 1338" transform="translate(0 -0.126)" clip-path="url(#clip-path)">
      <path id="Path_2119" data-name="Path 2119" d="M25.383,33.433H2.939A2.4,2.4,0,0,1,.5,31.081V2.852A2.4,2.4,0,0,1,2.939.5H25.383a2.4,2.4,0,0,1,2.439,2.352V31.081a2.4,2.4,0,0,1-2.439,2.352" transform="translate(-0.012 0.096)" fill="#fff"/>
      <rect id="Rectangle_578" data-name="Rectangle 578" width="27.322" height="32.933" rx="2.5" transform="translate(0.488 0.596)" fill="none" stroke="#1e70b9" stroke-linecap="round" stroke-linejoin="round" stroke-width="1"/>
      <path id="Path_2120" data-name="Path 2120" d="M12.686,28.551V22.865L14.9,27.841l2.211-4.976v5.686" transform="translate(-0.307 -1.224)" fill="none" stroke="#1e70b9" stroke-linecap="round" stroke-linejoin="round" stroke-width="1"/>
      <path id="Path_2121" data-name="Path 2121" d="M19.185,22.865v5.686H22.87" transform="translate(-0.464 -1.224)" fill="none" stroke="#1e70b9" stroke-linecap="round" stroke-linejoin="round" stroke-width="1"/>
      <line id="Line_476" data-name="Line 476" x2="4.554" y2="5.873" transform="translate(5.892 21.641)" fill="none" stroke="#1e70b9" stroke-linecap="round" stroke-linejoin="round" stroke-width="1"/>
      <line id="Line_477" data-name="Line 477" x1="4.554" y2="5.873" transform="translate(5.892 21.641)" fill="none" stroke="#1e70b9" stroke-linecap="round" stroke-linejoin="round" stroke-width="1"/>
      <line id="Line_478" data-name="Line 478" x2="11.974" transform="translate(7.949 14.475)" fill="none" stroke="#1e70b9" stroke-linecap="round" stroke-miterlimit="10" stroke-width="1"/>
      <line id="Line_479" data-name="Line 479" x2="11.446" transform="translate(8.841 6.913)" fill="none" stroke="#1e70b9" stroke-linecap="round" stroke-miterlimit="10" stroke-width="1"/>
      <line id="Line_480" data-name="Line 480" x2="9.13" transform="translate(8.828 11.852)" fill="none" stroke="#1e70b9" stroke-linecap="round" stroke-miterlimit="10" stroke-width="1"/>
      <line id="Line_481" data-name="Line 481" x2="9.13" transform="translate(8.766 9.23)" fill="none" stroke="#1e70b9" stroke-linecap="round" stroke-miterlimit="10" stroke-width="1"/>
      <path id="Path_2122" data-name="Path 2122" d="M7.554,13.459,5.807,15.144l1.748,1.684" transform="translate(-0.141 -0.669)" fill="none" stroke="#1e70b9" stroke-linecap="round" stroke-linejoin="round" stroke-width="1"/>
      <path id="Path_2123" data-name="Path 2123" d="M21.4,5.423,23.15,7.108,21.4,8.792" transform="translate(-0.518 -0.194)" fill="none" stroke="#1e70b9" stroke-linecap="round" stroke-linejoin="round" stroke-width="1"/>
    </g>
  </g>
</svg>
